{"glyphs":{"0":{"ha":992,"x_min":77,"x_max":915,"o":"m 435 -14 q 536 141 497 43 q 604 570 604 312 q 583 870 604 722 q 605 898 583 880 q 643 916 627 916 q 795 825 732 890 q 915 500 915 702 q 839 212 915 341 q 616 15 756 69 q 453 -14 541 -14 q 444 -14 450 -14 q 435 -14 438 -14 m 557 931 q 456 776 495 875 q 387 346 387 605 q 409 48 387 197 q 387 21 409 39 q 349 3 366 3 q 198 93 260 28 q 77 418 77 216 q 153 707 77 576 q 376 902 235 847 q 539 931 451 931 l 557 931 z "},"1":{"ha":695,"x_min":81,"x_max":623,"o":"m 239 839 q 210 692 234 773 l 81 692 q 104 785 90 751 q 239 839 180 809 m 130 3 q 319 870 272 589 q 341 897 319 879 q 378 914 363 914 l 623 914 q 490 47 526 508 q 468 20 490 38 q 431 3 446 3 l 130 3 z "},"2":{"ha":926,"x_min":58,"x_max":846,"o":"m 351 3 l 71 3 q 58 89 58 41 q 85 194 58 136 q 155 302 112 252 q 249 404 197 353 q 353 505 301 455 q 447 602 404 554 q 543 804 543 711 q 531 863 543 834 q 553 889 532 872 q 590 907 574 906 q 807 787 734 881 q 846 686 846 736 q 822 589 846 635 q 759 498 798 542 q 674 408 720 454 q 581 317 627 362 q 496 230 534 273 q 433 144 457 188 q 409 76 409 100 q 409 45 409 52 q 388 21 410 39 q 351 3 366 3 m 136 576 q 192 850 150 723 q 215 880 198 864 q 247 900 232 896 q 520 931 369 928 q 349 807 426 884 q 195 620 273 730 q 167 591 185 607 q 136 576 149 576 m 741 269 q 767 296 748 280 q 800 313 785 313 q 757 52 777 123 q 732 20 751 37 q 702 3 714 3 l 452 3 q 741 269 630 121 z "},"3":{"ha":926,"x_min":62,"x_max":845,"o":"m 334 -3 q 452 104 407 38 q 496 263 496 170 q 438 397 496 347 q 297 445 389 441 q 296 472 296 453 q 307 509 296 491 q 432 546 376 509 q 517 637 488 582 q 545 763 545 693 q 493 878 545 833 q 516 906 493 888 q 555 924 539 924 q 747 875 658 924 q 818 809 790 850 q 845 719 845 768 q 821 630 845 670 q 759 564 797 590 q 669 518 720 537 q 460 476 577 484 q 702 435 614 476 q 814 336 787 397 q 831 250 831 300 q 810 153 831 199 q 751 77 788 107 q 664 25 714 46 q 559 -4 614 5 q 445 -14 505 -14 q 334 -3 385 -14 m 161 351 q 223 169 187 241 q 325 58 259 97 q 292 25 323 46 q 246 3 261 3 q 142 25 198 8 q 62 57 87 43 q 98 319 85 250 q 161 351 127 342 m 133 575 q 191 850 149 730 q 214 880 197 863 q 245 900 231 897 q 472 931 378 929 q 336 806 399 879 q 193 620 273 734 q 165 591 184 607 q 133 575 147 575 z "},"4":{"ha":925,"x_min":39,"x_max":877,"o":"m 877 264 q 867 207 876 248 q 851 152 857 166 l 735 152 q 726 47 731 116 q 704 20 726 38 q 667 3 682 3 l 366 3 q 499 870 460 404 q 521 897 499 879 q 558 914 543 914 l 859 914 q 746 264 791 631 l 877 264 m 334 152 l 70 152 q 39 260 52 192 q 240 517 102 327 q 443 815 379 707 q 177 264 342 507 l 374 264 q 354 200 374 247 q 334 152 334 153 z "},"5":{"ha":926,"x_min":69,"x_max":845,"o":"m 153 331 q 345 47 235 120 q 322 18 343 35 q 286 1 300 1 q 69 58 172 14 q 104 300 85 191 q 153 331 121 316 m 372 -9 q 523 258 523 128 q 438 407 523 350 q 191 463 353 463 q 132 461 162 463 q 257 862 206 745 q 282 895 262 875 q 315 914 302 914 l 507 914 q 412 523 425 753 q 487 526 442 526 q 581 519 532 526 q 678 496 630 513 q 760 453 726 479 q 836 287 836 395 q 656 35 836 121 q 434 -14 555 -14 q 372 -9 395 -14 m 740 608 q 675 764 713 711 q 556 860 637 817 q 576 914 561 889 l 845 914 q 799 652 840 786 q 775 624 795 640 q 740 608 755 608 z "},"6":{"ha":926,"x_min":77,"x_max":873,"o":"m 768 924 q 603 816 678 886 q 479 659 528 746 q 376 271 376 477 q 412 48 376 151 q 389 21 412 39 q 351 3 366 3 q 150 127 223 28 q 77 366 77 226 q 111 555 77 465 q 202 712 144 644 q 337 830 260 780 q 686 931 493 931 q 768 924 731 931 m 452 465 q 541 534 488 510 q 653 558 595 558 q 809 502 745 558 q 873 351 873 446 q 835 186 873 256 q 733 74 797 117 q 425 -14 603 -14 q 515 57 471 0 q 585 188 559 113 q 611 328 611 262 q 491 468 611 468 q 452 465 475 468 z "},"7":{"ha":926,"x_min":106,"x_max":859,"o":"m 642 870 q 667 897 647 880 q 703 914 687 914 l 859 914 q 798 644 859 780 q 697 451 756 553 q 610 297 638 349 q 549 85 549 179 q 552 47 549 73 q 530 20 552 38 q 492 3 508 3 l 174 3 q 169 54 169 28 q 298 377 169 192 q 418 538 357 459 q 642 870 587 756 m 189 589 q 106 566 162 566 q 156 866 132 776 q 181 897 162 880 q 211 914 199 914 l 640 914 q 338 768 451 874 q 189 589 269 703 z "},"8":{"ha":926,"x_min":51,"x_max":853,"o":"m 542 928 q 413 745 413 838 q 466 639 413 682 q 586 566 509 604 q 628 631 617 599 q 638 709 638 664 q 567 870 638 821 q 589 898 567 880 q 627 916 610 916 q 777 863 710 910 q 850 724 850 812 q 798 602 850 659 q 661 527 746 545 q 814 408 772 468 q 853 286 853 352 q 829 169 853 219 q 764 85 804 118 q 670 28 724 52 q 446 -14 570 -14 q 391 -9 415 -14 q 507 68 463 21 q 550 172 550 115 q 483 281 550 231 q 427 319 454 304 q 375 348 400 334 q 336 370 351 362 q 292 200 292 304 q 363 48 292 97 q 341 19 363 35 q 304 3 319 3 q 133 57 207 9 q 51 212 51 109 q 106 345 51 286 q 257 421 161 404 q 166 516 199 465 q 133 635 133 568 q 163 760 133 703 q 243 854 193 817 q 487 931 349 931 q 542 928 510 931 z "},"9":{"ha":926,"x_min":53,"x_max":848,"o":"m 157 -17 q 322 91 248 21 q 446 248 397 161 q 550 636 550 430 q 513 859 550 755 q 537 886 514 868 q 575 904 559 904 q 775 780 703 879 q 848 541 848 681 q 815 352 848 441 q 724 195 782 262 q 589 77 665 127 q 239 -24 433 -24 q 157 -17 195 -24 m 473 442 q 385 373 438 397 q 273 349 331 349 q 117 405 180 349 q 53 555 53 460 q 91 720 53 650 q 193 833 129 790 q 500 920 323 920 q 411 850 454 907 q 341 719 367 793 q 315 578 315 644 q 435 439 315 439 q 473 442 451 439 z "}," ":{"ha":464,"x_min":0,"x_max":0,"o":""},"!":{"ha":581,"x_min":87,"x_max":541,"o":"m 330 283 l 178 275 q 201 787 201 442 q 204 870 201 836 q 226 896 204 879 q 263 914 248 913 l 541 924 q 389 328 439 560 q 367 301 389 318 q 330 283 346 283 m 118 156 q 271 212 176 212 q 380 183 340 212 q 420 106 420 155 q 366 22 420 58 q 240 -14 312 -14 q 128 15 168 -14 q 87 85 87 43 q 118 156 87 126 z "},"\"":{"ha":578,"x_min":118,"x_max":591,"o":"m 220 632 l 118 632 q 134 891 131 736 q 156 919 134 901 q 193 937 178 937 l 340 937 q 279 677 309 813 q 256 647 275 663 q 220 632 237 632 m 471 632 l 369 632 q 385 891 382 736 q 407 919 385 901 q 444 937 429 937 l 591 937 q 530 677 559 813 q 507 647 526 663 q 471 632 488 632 z "},"#":{"ha":926,"x_min":121,"x_max":805,"o":"m 755 874 q 682 640 718 758 q 805 644 745 642 l 805 600 q 790 562 805 583 q 766 541 774 541 q 653 540 710 541 q 606 371 629 456 q 765 376 686 373 l 765 332 q 750 294 765 315 q 726 273 734 273 q 578 272 653 273 q 518 40 547 157 q 497 16 518 31 q 458 1 475 1 l 408 1 q 490 271 450 134 q 324 268 408 270 q 265 40 294 155 q 244 16 265 31 q 205 1 222 1 l 155 1 q 235 266 196 132 q 121 262 178 264 l 121 306 q 136 344 121 323 q 160 366 151 365 q 264 366 213 366 q 312 534 289 450 q 161 530 237 532 l 161 574 q 176 612 161 591 q 200 633 191 633 q 339 633 271 633 q 391 835 366 734 q 413 859 391 844 q 451 874 434 874 l 502 874 q 428 635 464 755 q 593 637 512 635 q 644 835 619 735 q 666 859 644 844 q 704 874 687 874 l 755 874 m 351 366 q 519 369 436 367 q 566 539 543 454 q 399 536 484 538 q 351 366 375 452 z "},"$":{"ha":926,"x_min":88,"x_max":851,"o":"m 154 646 q 240 841 154 758 q 457 944 326 924 q 473 1101 466 1023 q 495 1124 473 1109 q 532 1139 516 1139 l 560 1139 q 522 949 544 1074 q 469 839 469 903 q 504 709 469 774 q 587 599 540 644 q 661 527 635 553 q 720 462 687 500 q 772 395 753 425 q 819 262 819 322 q 744 93 819 170 q 541 -5 669 16 q 522 -186 527 -124 q 500 -210 522 -195 q 462 -225 479 -225 l 440 -225 q 482 -11 462 -135 q 504 55 504 20 q 490 124 504 89 q 446 201 475 160 q 341 330 399 267 q 261 420 283 393 q 210 488 238 447 q 154 646 154 568 m 179 389 q 235 239 195 315 q 327 112 275 164 q 423 48 378 60 q 398 -14 415 2 q 379 -190 382 -149 q 358 -214 379 -199 q 319 -229 336 -229 l 298 -229 q 340 -12 318 -145 l 338 -11 q 195 12 266 -5 q 89 52 124 28 q 88 94 88 66 q 119 345 88 227 q 142 373 122 356 q 179 389 163 389 m 748 539 q 724 675 748 605 q 568 895 677 811 q 583 917 569 903 q 612 937 597 930 q 630 1112 623 1034 q 651 1135 630 1120 q 689 1149 673 1149 l 717 1149 q 674 937 699 1076 q 848 883 763 922 q 851 812 851 863 q 842 686 851 762 q 819 566 832 610 q 790 548 814 556 q 748 539 765 539 z "},"%":{"ha":926,"x_min":60,"x_max":866,"o":"m 195 28 q 169 2 186 16 q 136 -12 151 -12 l 60 -12 q 730 884 430 467 q 757 910 740 897 q 790 924 774 924 l 866 924 q 195 28 569 536 m 251 536 q 155 581 193 536 q 117 689 117 626 q 140 804 117 752 q 209 890 164 857 q 311 923 254 923 q 406 878 368 923 q 444 753 444 833 q 390 605 444 674 q 251 536 335 536 m 290 837 q 227 798 254 837 q 199 714 199 759 q 218 646 199 670 q 272 622 237 622 q 334 661 307 622 q 361 744 361 699 q 343 812 361 788 q 290 837 325 837 m 610 -7 q 514 38 552 -7 q 476 146 476 83 q 500 262 476 210 q 569 347 524 314 q 671 380 614 380 q 766 335 728 380 q 804 211 804 290 q 749 62 804 132 q 610 -7 694 -7 m 649 294 q 586 255 614 294 q 559 172 559 216 q 577 103 559 127 q 631 79 596 79 q 693 118 666 79 q 721 201 721 157 q 703 270 721 245 q 649 294 684 294 z "},"&":{"ha":1041,"x_min":45,"x_max":989,"o":"m 340 -9 q 123 35 201 -9 q 45 165 45 80 q 172 345 45 279 q 312 390 238 380 q 267 224 267 296 q 399 37 267 91 q 378 8 399 26 q 340 -9 356 -9 m 989 47 q 967 20 989 38 q 930 3 945 3 l 551 3 q 375 342 479 174 q 259 554 279 497 q 239 659 239 612 q 321 840 239 762 q 536 932 403 918 q 519 838 519 897 q 555 685 519 779 q 643 506 591 592 q 762 326 694 419 q 989 47 874 172 m 747 524 q 726 660 747 591 q 576 876 686 791 q 599 905 578 889 q 636 922 621 922 q 751 902 685 922 q 856 865 817 883 q 859 793 859 844 q 850 668 859 743 q 826 551 840 593 q 794 533 823 542 q 747 524 766 524 z "},"'":{"ha":307,"x_min":111,"x_max":333,"o":"m 212 632 l 111 632 q 127 891 123 736 q 149 919 127 901 q 186 937 170 937 l 333 937 q 271 677 301 813 q 249 647 268 663 q 212 632 229 632 z "},"(":{"ha":366,"x_min":74,"x_max":405,"o":"m 372 1036 l 405 1025 q 264 279 264 663 q 315 -133 264 56 l 279 -147 q 129 90 184 -46 q 74 361 74 226 q 149 736 74 571 q 372 1036 224 902 z "},")":{"ha":366,"x_min":-19,"x_max":312,"o":"m 14 -149 l -19 -138 q 121 609 121 224 q 71 1021 121 832 l 107 1035 q 257 798 202 934 q 312 526 312 662 q 237 151 312 317 q 14 -149 162 -14 z "},"*":{"ha":739,"x_min":105,"x_max":686,"o":"m 418 667 l 380 677 q 348 886 371 806 q 373 904 349 893 q 409 916 397 916 q 423 915 420 916 l 500 895 q 533 866 516 890 q 550 831 550 842 q 418 667 493 778 m 225 841 l 230 840 q 346 664 265 767 l 325 631 q 116 664 200 661 q 105 703 105 671 q 112 745 105 735 l 155 811 q 186 832 163 824 q 225 841 209 840 m 326 594 l 351 564 q 255 376 284 455 q 238 373 252 373 q 204 379 224 373 q 177 396 185 386 l 127 458 q 117 502 117 470 q 123 538 117 534 q 326 594 203 549 m 573 419 l 574 415 q 559 380 574 403 q 530 351 544 357 l 455 323 q 436 321 449 321 q 401 329 422 321 q 377 345 380 337 q 389 457 389 408 q 388 554 389 505 l 423 568 q 573 419 508 470 m 444 600 l 441 639 q 629 734 559 686 q 660 711 640 731 q 681 672 680 690 l 686 592 q 668 550 686 576 q 642 525 650 525 q 444 600 571 564 z "},"+":{"ha":926,"x_min":140,"x_max":785,"o":"m 745 300 q 498 309 588 308 q 466 26 486 219 q 445 2 466 17 q 406 -14 423 -14 l 357 -14 q 407 309 401 262 q 140 290 319 306 l 140 338 q 156 376 140 355 q 180 398 171 397 q 418 389 319 391 q 449 659 423 431 q 470 683 449 668 q 509 699 492 699 l 557 699 q 509 389 530 527 q 785 408 587 391 l 785 359 q 769 321 785 342 q 745 300 754 300 z "},",":{"ha":463,"x_min":14,"x_max":357,"o":"m 50 149 q 190 205 102 205 q 317 166 277 205 q 357 72 357 127 q 338 -35 357 16 q 290 -122 319 -86 q 160 -203 224 -203 q 85 -178 131 -203 q 14 -128 40 -153 q 125 -91 76 -120 q 199 -19 174 -61 q 172 -21 185 -21 q 62 7 102 -21 q 22 77 22 36 q 50 149 22 119 z "},"-":{"ha":926,"x_min":140,"x_max":785,"o":"m 745 303 q 140 293 457 303 l 140 336 q 156 374 140 353 q 180 396 171 395 q 785 406 501 396 l 785 363 q 769 325 785 346 q 745 303 754 303 z "},".":{"ha":463,"x_min":22,"x_max":354,"o":"m 53 149 q 205 205 110 205 q 314 176 273 205 q 354 99 354 147 q 300 15 354 52 q 174 -21 246 -21 q 62 7 102 -21 q 22 77 22 36 q 53 149 22 119 z "},"/":{"ha":499,"x_min":-54,"x_max":569,"o":"m 61 -109 q 40 -133 61 -118 q 1 -149 18 -149 l -54 -149 q 454 957 228 444 q 475 981 454 966 q 513 996 496 996 l 569 996 q 61 -109 287 404 z "},":":{"ha":463,"x_min":22,"x_max":429,"o":"m 53 149 q 205 205 110 205 q 314 176 273 205 q 354 99 354 147 q 300 15 354 52 q 174 -21 246 -21 q 62 7 102 -21 q 22 77 22 36 q 53 149 22 119 m 127 637 q 279 694 184 694 q 388 665 348 694 q 429 588 429 635 q 375 504 429 540 q 249 467 321 467 q 137 496 177 467 q 97 566 97 524 q 127 637 97 607 z "},";":{"ha":463,"x_min":14,"x_max":429,"o":"m 127 637 q 279 694 184 694 q 388 665 348 694 q 429 588 429 635 q 375 504 429 540 q 249 467 321 467 q 137 496 177 467 q 97 566 97 524 q 127 637 97 607 m 50 149 q 190 205 102 205 q 317 166 277 205 q 357 72 357 127 q 338 -35 357 16 q 290 -122 319 -86 q 160 -203 224 -203 q 85 -178 131 -203 q 14 -128 40 -153 q 125 -91 76 -120 q 199 -19 174 -61 q 172 -21 185 -21 q 62 7 102 -21 q 22 77 22 36 q 50 149 22 119 z "},"<":{"ha":926,"x_min":152,"x_max":774,"o":"m 668 58 q 152 324 423 197 q 161 434 152 390 q 463 559 345 507 q 774 705 581 612 l 774 633 q 756 597 774 618 q 729 573 739 577 q 271 379 484 474 q 713 155 478 260 l 713 118 q 695 83 713 103 q 668 58 678 63 z "},"=":{"ha":926,"x_min":127,"x_max":799,"o":"m 732 168 q 127 157 444 168 l 127 201 q 142 239 127 218 q 166 260 157 260 q 771 271 488 260 l 771 227 q 756 189 771 210 q 732 168 741 168 m 760 479 q 155 469 471 479 l 155 513 q 170 551 155 530 q 194 572 185 572 q 799 583 515 572 l 799 539 q 784 501 799 522 q 760 479 768 479 z "},">":{"ha":926,"x_min":152,"x_max":774,"o":"m 258 705 q 774 439 503 566 q 764 330 774 374 q 463 204 581 256 q 152 58 345 152 l 152 131 q 169 166 152 146 q 197 191 186 186 q 654 385 442 290 q 213 608 448 504 l 213 646 q 230 681 213 661 q 258 705 248 701 z "},"?":{"ha":812,"x_min":89,"x_max":815,"o":"m 496 312 q 467 283 486 297 q 436 269 448 269 l 216 260 q 290 457 231 372 q 381 572 328 512 q 458 663 434 631 q 510 812 510 734 q 498 871 510 844 q 520 897 498 880 q 557 916 541 914 q 747 844 678 900 q 815 704 815 789 q 730 553 815 630 q 651 485 692 519 q 496 312 543 396 m 89 568 q 138 842 109 757 q 162 871 146 855 q 193 892 178 888 q 496 931 318 930 q 164 620 321 843 q 130 589 157 609 q 89 568 103 568 m 178 156 q 331 212 236 212 q 440 183 399 212 q 480 107 480 155 q 426 23 480 59 q 300 -14 372 -14 q 188 15 228 -14 q 148 85 148 43 q 178 156 148 126 z "},"@":{"ha":1499,"x_min":104,"x_max":1404,"o":"m 964 0 q 780 94 780 0 q 810 355 780 142 q 842 637 841 568 q 864 664 842 646 q 901 682 886 682 q 1175 643 1046 682 q 1143 486 1167 603 q 1096 165 1096 252 q 1140 110 1096 110 q 1265 180 1213 110 q 1323 428 1323 258 q 1191 726 1323 624 q 791 829 1059 829 q 445 739 597 829 q 217 475 279 641 q 183 281 183 385 q 789 -136 183 -136 q 1036 -105 907 -136 q 1258 -33 1165 -75 q 1223 -136 1250 -98 q 754 -209 1019 -209 q 138 89 260 -209 q 104 298 104 174 q 159 541 104 422 q 309 739 214 660 q 529 862 403 818 q 798 905 654 905 q 1052 878 941 905 q 1242 791 1163 850 q 1404 416 1404 673 q 964 0 1404 0 m 785 691 q 662 529 704 631 q 621 328 621 427 q 643 151 621 229 q 702 46 665 73 q 680 18 702 36 q 643 0 659 0 q 394 78 488 0 q 300 291 300 156 q 427 572 300 458 q 580 659 488 627 q 785 691 673 691 z "},"A":{"ha":926,"x_min":-27,"x_max":848,"o":"m 789 0 l 473 0 q 340 732 420 422 q 407 879 379 812 q 432 906 412 889 q 466 923 452 923 l 682 923 q 756 467 709 718 q 848 45 804 216 q 827 18 848 36 q 789 0 805 0 m 247 120 l 249 45 q 227 18 249 36 q 189 0 205 0 l -27 0 q 305 666 80 182 q 311 617 311 648 q 302 526 311 585 q 279 385 293 466 q 258 254 264 304 q 399 220 355 239 q 386 160 399 180 q 247 142 315 154 l 247 120 z "},"B":{"ha":1041,"x_min":70,"x_max":985,"o":"m 70 3 q 202 871 159 363 q 224 897 202 880 q 261 915 245 914 q 571 932 465 932 q 437 40 474 514 q 416 13 437 31 q 378 -5 394 -5 q 70 3 260 -5 m 475 -1 q 606 110 550 25 q 663 281 663 195 q 555 442 663 398 q 545 465 545 449 q 566 507 545 501 q 648 593 614 520 q 682 755 682 666 q 625 886 682 844 q 648 915 625 897 q 688 933 671 933 q 966 798 903 919 q 985 714 985 761 q 961 627 985 667 q 902 561 938 587 q 817 513 865 534 q 629 467 728 477 q 696 469 670 469 q 898 415 825 469 q 971 262 971 361 q 946 157 971 204 q 882 78 922 109 q 789 26 842 47 q 574 -14 692 -14 q 475 -1 523 -14 z "},"C":{"ha":1041,"x_min":97,"x_max":979,"o":"m 857 512 q 797 722 831 638 q 699 878 763 806 q 722 907 701 890 q 759 923 744 923 q 979 874 877 910 q 962 728 977 835 q 931 557 946 621 q 901 529 928 547 q 857 512 873 512 m 920 342 q 877 62 907 202 q 752 7 839 28 q 553 -14 665 -14 q 711 128 652 57 q 831 304 770 199 q 874 331 846 319 q 920 342 903 342 m 511 33 q 490 4 511 22 q 452 -14 468 -14 q 204 119 306 13 q 126 244 155 172 q 97 400 97 317 q 117 559 97 482 q 181 706 138 636 q 288 827 225 775 q 633 941 422 941 q 659 940 649 941 q 504 693 559 854 q 448 346 448 532 q 511 33 448 159 z "},"D":{"ha":1156,"x_min":97,"x_max":1073,"o":"m 506 -14 q 616 126 566 29 q 697 347 667 223 q 726 589 726 470 q 653 886 726 777 q 675 915 653 897 q 712 933 696 933 q 851 903 785 933 q 966 819 918 873 q 1044 687 1015 766 q 1073 521 1073 608 q 1052 358 1073 434 q 984 214 1030 282 q 873 96 939 146 q 713 16 808 45 q 506 -14 618 -14 m 405 -5 q 97 3 288 -5 q 229 871 189 371 q 251 897 229 880 q 289 915 273 913 q 598 932 491 932 q 465 40 503 519 q 443 13 465 31 q 405 -5 421 -5 z "},"E":{"ha":925,"x_min":63,"x_max":891,"o":"m 487 469 q 723 429 648 452 q 707 374 723 392 q 469 339 596 368 q 438 45 450 197 q 416 18 438 36 q 379 0 395 0 l 63 0 q 197 879 154 329 q 220 905 197 888 q 258 923 242 923 l 572 923 q 487 469 521 699 m 779 512 q 717 716 762 614 q 625 869 671 818 q 645 923 629 901 l 891 923 q 871 746 886 857 q 838 557 855 635 q 814 529 835 546 q 779 512 794 512 m 747 279 q 781 306 755 288 q 823 323 808 323 q 779 49 800 122 q 755 18 773 35 q 725 0 736 0 l 476 0 q 747 279 643 112 z "},"F":{"ha":926,"x_min":63,"x_max":891,"o":"m 379 0 l 63 0 q 197 879 154 329 q 220 905 197 888 q 258 923 242 923 l 572 923 q 485 453 520 703 q 619 435 538 448 q 730 413 700 422 q 715 357 730 374 q 466 319 585 349 q 438 45 452 203 q 416 18 438 36 q 379 0 395 0 m 779 512 q 717 716 762 614 q 625 869 671 818 q 645 923 629 901 l 891 923 q 871 746 886 857 q 838 557 855 635 q 814 529 835 546 q 779 512 794 512 z "},"G":{"ha":1041,"x_min":97,"x_max":979,"o":"m 564 355 q 577 394 566 372 q 600 416 587 416 q 951 424 749 424 q 897 77 932 222 q 863 46 889 66 q 827 21 838 26 q 709 -2 788 9 q 553 -14 629 -14 q 661 100 605 14 q 717 233 717 186 q 667 317 717 280 q 564 355 618 355 m 857 512 q 797 722 831 638 q 699 878 763 806 q 722 907 701 890 q 759 923 744 923 q 979 874 878 910 q 962 728 978 836 q 931 557 946 621 q 901 529 928 547 q 857 512 873 512 m 511 33 q 490 4 511 22 q 452 -14 469 -14 q 204 119 306 13 q 126 244 155 172 q 97 400 97 317 q 117 559 97 482 q 181 706 138 636 q 287 827 225 775 q 438 910 349 880 q 633 941 528 941 q 659 940 649 941 q 504 693 559 854 q 448 346 448 532 q 511 33 448 160 z "},"H":{"ha":1158,"x_min":90,"x_max":1095,"o":"m 399 0 l 90 0 q 223 879 186 411 q 245 905 223 888 q 283 923 267 923 l 591 923 q 507 475 541 714 q 627 447 600 457 q 611 385 627 405 q 492 370 541 380 q 458 45 471 204 q 436 18 458 36 q 399 0 414 0 m 903 0 l 595 0 q 728 879 689 404 q 749 905 728 888 q 787 923 771 923 l 1095 923 q 962 45 1000 522 q 940 18 962 36 q 903 0 918 0 z "},"I":{"ha":578,"x_min":49,"x_max":556,"o":"m 364 0 l 49 0 q 181 879 142 405 q 203 905 181 888 q 241 923 225 923 l 556 923 q 423 45 462 522 q 401 18 423 36 q 364 0 380 0 z "},"J":{"ha":810,"x_min":22,"x_max":758,"o":"m 326 -14 q 345 260 342 105 q 354 575 349 415 q 382 878 360 736 q 405 905 382 888 q 441 923 427 923 l 758 923 q 696 590 709 716 q 675 391 683 464 q 661 269 668 317 q 640 173 654 220 q 604 98 626 127 q 545 45 583 69 q 326 -14 480 1 m 50 238 q 74 266 52 248 q 109 283 95 283 q 177 146 138 202 q 277 49 216 90 q 265 -14 275 13 q 22 38 144 -14 q 50 238 24 126 z "},"K":{"ha":1041,"x_min":77,"x_max":1072,"o":"m 384 0 l 77 0 q 210 878 168 366 q 232 905 210 888 q 269 923 254 923 l 577 923 q 444 45 481 514 q 422 18 444 36 q 384 0 400 0 m 937 334 l 927 168 q 941 109 927 132 q 991 81 954 87 q 968 12 984 39 q 743 -17 846 -17 q 583 97 583 -17 q 598 225 583 140 q 614 341 614 309 q 553 433 614 426 q 764 878 580 523 q 789 907 770 890 q 824 923 808 923 l 1072 923 q 686 486 889 663 q 741 488 715 488 q 891 450 845 488 q 937 334 937 412 z "},"L":{"ha":926,"x_min":90,"x_max":860,"o":"m 406 0 l 90 0 q 224 879 181 329 q 247 905 224 888 q 285 923 269 923 l 600 923 q 465 45 503 513 q 444 18 465 37 q 406 0 422 0 m 769 340 q 808 375 779 359 q 860 391 836 391 q 812 50 827 100 q 787 18 806 35 q 758 0 769 0 l 496 0 q 648 151 577 60 q 769 340 720 241 z "},"M":{"ha":1156,"x_min":-10,"x_max":1073,"o":"m 1013 0 l 714 0 q 718 340 718 167 q 701 732 718 513 q 766 879 724 781 q 790 906 770 890 q 825 923 810 923 l 1032 923 q 1027 724 1027 833 q 1073 45 1027 382 q 1051 18 1073 36 q 1013 0 1029 0 m 548 35 q 527 13 543 25 q 501 0 511 0 l 393 0 q 319 355 365 169 q 229 663 274 542 q 247 758 232 678 q 269 879 262 838 q 292 906 271 888 q 328 923 313 923 l 525 923 q 603 556 572 652 q 659 404 633 461 q 548 35 594 210 m 214 490 q 227 231 218 321 q 267 45 236 142 q 244 18 267 36 q 206 0 222 0 l -10 0 q 95 259 57 160 q 155 446 133 359 q 177 473 155 455 q 214 490 199 490 z "},"N":{"ha":1041,"x_min":79,"x_max":989,"o":"m 857 45 q 835 18 857 36 q 798 0 813 0 l 623 0 q 418 317 546 139 q 185 614 290 494 q 212 879 194 687 q 236 906 214 888 q 271 923 257 923 l 448 923 q 641 623 538 764 q 881 313 744 481 q 857 45 863 151 m 845 432 q 786 695 812 600 q 713 879 759 791 q 735 905 713 888 q 774 923 758 923 l 989 923 q 905 477 944 727 q 883 450 905 468 q 845 432 861 432 m 222 482 q 270 244 239 340 q 355 45 300 148 q 333 18 355 36 q 295 0 311 0 l 79 0 q 162 437 125 197 q 184 464 162 446 q 222 482 206 482 z "},"O":{"ha":1041,"x_min":83,"x_max":986,"o":"m 467 -14 q 615 228 566 69 q 663 562 663 387 q 627 879 663 737 q 649 906 627 888 q 687 924 671 924 q 854 842 785 905 q 986 509 986 722 q 905 217 986 347 q 656 16 814 71 q 467 -14 570 -14 m 602 941 q 454 699 503 857 q 405 365 405 541 q 442 49 405 189 q 420 21 442 39 q 382 3 398 3 q 156 152 233 33 q 83 417 83 267 q 164 711 83 579 q 412 910 254 855 q 602 941 499 941 z "},"P":{"ha":1041,"x_min":90,"x_max":1017,"o":"m 546 311 q 654 479 615 386 q 693 679 693 573 q 637 887 693 785 q 660 915 637 897 q 697 933 682 933 q 932 845 847 923 q 1017 647 1017 768 q 982 507 1017 572 q 890 399 947 442 q 608 307 766 307 q 546 311 570 307 m 458 45 q 436 18 458 36 q 398 0 414 0 l 90 0 q 222 871 183 374 q 244 898 222 880 q 281 916 266 915 q 592 932 498 932 q 458 45 495 516 z "},"Q":{"ha":1041,"x_min":83,"x_max":986,"o":"m 420 -94 l 650 -98 q 878 -71 744 -98 q 892 -119 889 -95 q 786 -262 840 -217 q 656 -307 731 -307 q 442 -251 577 -307 q 184 -183 304 -193 q 204 -125 188 -147 q 420 -94 294 -94 m 467 -24 q 615 217 566 58 q 663 551 663 376 q 627 868 663 726 q 649 896 627 878 q 687 913 671 913 q 854 831 785 895 q 986 498 986 711 q 905 206 986 336 q 656 5 814 60 q 467 -24 570 -24 m 602 930 q 454 688 503 846 q 405 354 405 530 q 442 38 405 178 q 420 10 442 28 q 382 -8 398 -8 q 156 141 233 22 q 83 406 83 256 q 164 700 83 568 q 412 899 254 844 q 602 930 499 930 z "},"R":{"ha":1041,"x_min":70,"x_max":992,"o":"m 437 45 q 416 18 437 36 q 378 0 394 0 l 70 0 q 202 871 163 374 q 224 897 202 880 q 261 915 245 914 q 572 932 465 932 q 437 45 474 510 m 930 305 l 920 169 q 934 109 920 132 q 984 81 947 87 q 962 12 977 39 q 755 -17 840 -17 q 624 6 670 -17 q 577 79 577 30 q 592 215 577 129 q 608 337 608 300 q 591 397 608 373 q 547 425 575 422 q 570 479 551 455 q 659 572 627 509 q 691 708 691 635 q 625 886 691 818 q 647 915 625 897 q 684 933 669 933 q 895 883 806 933 q 966 812 939 857 q 992 709 992 768 q 905 547 992 614 q 671 469 817 479 l 732 464 q 876 417 821 455 q 930 305 930 378 z "},"S":{"ha":926,"x_min":95,"x_max":858,"o":"m 529 949 q 475 839 475 903 q 511 709 475 774 q 594 599 547 644 q 668 527 642 553 q 727 462 694 500 q 779 395 760 425 q 825 268 825 322 q 803 166 825 213 q 738 81 780 119 q 632 18 696 43 q 489 -11 567 -7 q 511 55 511 20 q 496 124 511 89 q 453 201 482 160 q 348 330 406 267 q 268 420 290 393 q 216 488 245 447 q 161 649 161 568 q 210 799 161 730 q 344 908 260 868 q 529 949 429 948 m 755 539 q 731 675 755 605 q 575 895 684 811 q 598 924 576 907 q 634 941 620 941 q 750 921 684 941 q 854 883 816 901 q 858 812 858 863 q 848 686 858 762 q 825 566 839 610 q 797 548 821 556 q 755 539 772 539 m 430 48 q 405 -14 422 2 q 237 5 334 -14 q 96 52 140 23 q 95 94 95 66 q 126 345 95 227 q 149 373 129 356 q 186 389 170 389 q 242 239 201 315 q 333 112 282 164 q 430 48 385 60 z "},"T":{"ha":1041,"x_min":79,"x_max":1043,"o":"m 587 0 l 271 0 q 413 879 371 360 q 435 905 413 888 q 472 923 457 923 l 774 923 q 647 45 687 555 q 625 18 647 36 q 587 0 604 0 m 905 498 q 875 705 905 591 q 812 869 846 818 q 832 923 816 900 l 1043 923 q 985 543 1021 719 q 952 516 983 533 q 905 498 922 498 m 79 499 q 104 708 84 578 q 135 875 125 837 q 158 906 140 888 q 189 923 177 923 l 395 923 q 289 770 326 840 q 218 635 252 701 q 165 536 184 570 q 128 514 161 528 q 79 499 94 499 z "},"U":{"ha":1041,"x_min":144,"x_max":999,"o":"m 860 227 q 765 60 840 127 q 536 -14 682 -14 q 191 120 275 -14 q 144 311 144 194 q 176 581 144 389 q 207 878 207 774 q 229 905 207 888 q 266 923 250 923 l 589 923 q 484 260 484 431 q 644 96 484 96 q 766 133 707 96 q 860 227 825 169 m 814 264 q 792 611 814 468 q 711 878 770 755 q 732 905 711 888 q 770 923 754 923 l 999 923 q 873 310 920 564 q 850 282 871 300 q 814 264 829 264 z "},"V":{"ha":926,"x_min":87,"x_max":979,"o":"m 270 0 q 87 879 195 452 q 109 905 87 888 q 147 923 131 923 l 470 923 q 518 584 495 692 q 557 414 541 475 q 634 282 593 282 q 657 290 646 282 q 545 45 614 204 q 520 17 540 35 q 485 0 500 0 l 270 0 m 705 802 l 703 879 q 725 905 703 888 q 762 923 747 923 l 979 923 q 705 385 897 785 q 681 358 701 374 q 646 341 661 341 q 705 802 705 555 z "},"W":{"ha":1387,"x_min":101,"x_max":1421,"o":"m 645 923 l 944 923 q 952 834 947 897 q 962 719 957 772 q 975 598 967 667 q 991 478 982 530 q 1013 378 1001 425 q 1074 279 1037 279 q 1100 290 1086 279 q 987 45 1049 190 q 963 17 983 35 q 928 0 943 0 l 729 0 q 673 448 714 198 q 585 879 632 699 q 607 905 585 888 q 645 923 629 923 m 1147 802 l 1145 879 q 1167 905 1145 888 q 1206 923 1190 923 l 1421 923 q 1148 385 1343 791 q 1124 358 1143 374 q 1088 341 1104 341 q 1147 802 1147 554 m 160 923 l 460 923 q 536 413 498 547 q 612 279 574 279 q 639 290 626 279 q 526 45 595 204 q 502 17 522 35 q 467 0 481 0 l 268 0 q 193 456 240 205 q 101 879 146 707 q 123 905 101 888 q 160 923 144 923 z "},"X":{"ha":927,"x_min":-18,"x_max":986,"o":"m 444 0 q 116 879 308 468 q 138 905 116 888 q 176 923 160 923 l 523 923 q 671 466 600 659 q 850 45 743 274 q 829 18 850 36 q 791 0 807 0 l 444 0 m 708 489 q 747 711 747 617 q 739 790 747 756 q 710 879 730 825 q 732 905 710 888 q 770 923 754 923 l 986 923 q 854 711 905 800 q 767 535 802 623 q 743 507 763 524 q 708 489 724 489 m 260 437 q 222 227 222 313 q 258 45 222 142 q 236 18 258 36 q 199 0 214 0 l -18 0 q 201 392 141 245 q 225 420 205 403 q 260 437 245 437 z "},"Y":{"ha":926,"x_min":104,"x_max":963,"o":"m 523 0 l 223 0 q 260 238 248 128 q 104 879 204 537 q 125 905 104 888 q 163 923 146 923 l 478 923 q 616 267 512 573 q 583 45 596 173 q 561 18 583 36 q 523 0 539 0 m 685 412 q 660 384 680 401 q 626 367 641 367 q 688 824 688 598 q 687 879 688 861 q 709 905 687 888 q 747 923 731 923 l 963 923 q 685 412 861 764 z "},"Z":{"ha":926,"x_min":39,"x_max":927,"o":"m 112 568 q 161 875 132 762 q 185 906 166 888 q 216 923 203 923 l 472 923 q 171 614 303 798 q 145 585 163 602 q 112 568 126 568 m 845 357 q 797 49 825 169 q 772 18 791 35 q 741 0 753 0 l 485 0 q 786 313 650 122 q 813 342 795 326 q 845 357 831 357 m 39 45 q 536 923 344 492 l 867 923 q 904 906 883 923 q 927 879 925 888 q 863 774 911 853 q 802 674 815 696 q 750 588 789 653 q 698 501 711 524 q 653 424 685 479 q 606 342 621 369 l 564 265 q 517 179 536 216 q 474 96 498 142 q 427 0 450 49 l 98 0 q 60 18 82 0 q 39 45 39 36 z "},"[":{"ha":366,"x_min":1,"x_max":465,"o":"m 1 -119 l 176 1013 l 465 1013 l 454 945 l 330 960 l 281 498 l 172 -66 l 300 -52 l 290 -119 l 1 -119 z "},"\\":{"ha":499,"x_min":-7,"x_max":578,"o":"m 519 -149 l 498 -149 q -7 957 248 422 q 14 981 -7 966 q 52 996 35 996 l 73 996 q 578 -109 323 426 q 557 -133 578 -118 q 519 -149 536 -149 z "},"]":{"ha":366,"x_min":-90,"x_max":374,"o":"m 374 1010 l 199 -121 l -90 -121 l -79 -54 l 45 -68 l 94 394 l 203 958 l 75 943 l 85 1010 l 374 1010 z "},"^":{"ha":926,"x_min":144,"x_max":723,"o":"m 216 233 l 144 233 q 435 852 309 574 q 496 869 456 869 q 549 854 536 869 q 723 278 628 564 q 698 251 718 268 q 663 233 678 233 l 626 233 q 486 734 549 525 q 276 278 376 509 q 251 251 271 268 q 216 233 231 233 z "},"_":{"ha":694,"x_min":-70,"x_max":724,"o":"m -70 -209 l -70 -146 l 724 -146 l 724 -209 l -70 -209 z "},"`":{"ha":761,"x_min":244,"x_max":661,"o":"m 628 777 q 244 855 397 803 q 287 975 252 897 q 349 1088 321 1053 q 661 848 502 989 q 628 777 651 806 z "},"a":{"ha":1042,"x_min":83,"x_max":958,"o":"m 882 27 q 598 -1 750 -1 q 564 97 564 45 q 594 358 564 149 q 625 637 625 568 q 648 664 625 646 q 685 682 670 682 q 958 643 830 682 q 922 470 956 621 q 889 228 889 319 q 938 88 889 137 q 919 57 938 79 q 882 27 900 35 m 568 691 q 446 529 488 631 q 404 328 404 427 q 426 151 404 229 q 486 46 448 73 q 464 18 486 36 q 427 0 442 0 q 177 78 271 0 q 83 291 83 156 q 210 572 83 458 q 364 659 271 627 q 568 691 456 691 z "},"b":{"ha":1041,"x_min":85,"x_max":958,"o":"m 424 46 q 402 18 424 37 q 364 0 380 0 l 85 0 q 154 426 115 127 q 208 894 193 724 q 229 921 208 903 q 267 939 251 939 l 552 939 q 477 508 516 789 q 424 46 439 227 m 488 5 q 605 165 564 54 q 646 407 646 276 q 572 646 646 538 q 593 673 572 656 q 630 691 614 691 q 794 654 720 691 q 913 547 868 618 q 958 383 958 476 q 836 109 958 212 q 488 5 713 5 z "},"c":{"ha":930,"x_min":90,"x_max":877,"o":"m 705 671 q 830 600 783 654 q 877 491 877 546 q 829 411 877 437 q 732 385 781 385 q 636 403 684 385 q 641 519 641 467 q 632 627 641 572 q 660 656 634 642 q 705 671 685 671 m 590 689 q 473 542 519 635 q 427 365 427 449 q 447 231 427 281 q 505 150 467 180 q 696 90 578 90 q 824 105 756 90 q 687 13 768 38 q 487 -12 606 -12 q 281 24 368 -12 q 142 134 195 60 q 90 316 90 209 q 146 513 90 424 q 294 650 201 602 q 499 699 387 699 q 590 689 535 699 z "},"d":{"ha":1042,"x_min":83,"x_max":1005,"o":"m 566 691 q 445 529 485 631 q 404 328 404 427 q 426 151 404 229 q 486 46 448 73 q 464 18 486 36 q 427 0 442 0 q 178 81 273 0 q 83 298 83 161 q 210 575 83 463 q 362 660 271 629 q 566 691 454 691 m 877 46 q 855 18 877 37 q 817 0 833 0 l 545 0 q 609 413 574 125 q 661 894 644 701 q 682 921 661 903 q 720 939 704 939 l 1005 939 q 930 508 969 789 q 877 46 892 227 z "},"e":{"ha":926,"x_min":77,"x_max":875,"o":"m 687 674 q 827 585 779 642 q 875 463 875 528 q 798 312 875 374 q 589 250 722 250 q 498 264 548 250 q 595 380 570 309 q 617 527 617 443 q 614 627 617 543 q 641 654 613 635 q 687 674 669 673 m 577 685 q 444 535 493 628 q 395 336 395 442 q 476 164 395 231 q 713 98 557 98 q 805 105 756 98 q 682 21 773 55 q 492 -12 591 -12 q 321 8 392 -12 q 196 67 251 28 q 109 170 140 106 q 77 310 77 233 q 100 448 77 386 q 165 553 124 509 q 262 629 207 597 q 513 691 371 691 q 577 685 549 691 z "},"f":{"ha":695,"x_min":64,"x_max":768,"o":"m 532 448 q 563 623 538 547 q 697 583 621 597 q 708 550 703 574 q 712 513 712 527 q 532 448 604 481 m 459 505 q 408 45 433 334 q 387 18 408 36 q 349 0 365 0 l 64 0 q 123 358 93 117 q 157 628 153 600 q 268 866 180 786 q 528 945 355 945 q 758 901 665 945 q 768 832 766 872 q 709 834 737 834 q 581 806 631 834 q 505 707 531 778 q 459 505 479 637 z "},"g":{"ha":1042,"x_min":83,"x_max":957,"o":"m 589 691 q 464 538 517 639 q 411 339 411 437 q 496 143 411 212 q 475 115 496 133 q 437 97 453 97 q 121 266 187 97 q 103 371 103 313 q 129 487 103 430 q 204 590 155 544 q 334 665 254 637 q 517 692 415 692 q 589 691 540 692 m 631 639 q 652 667 631 648 q 690 686 674 686 q 808 675 730 686 q 957 643 885 665 q 863 19 916 442 q 492 -317 821 -317 q 400 -311 441 -317 q 492 -178 459 -256 q 544 -24 530 -87 q 610 369 589 183 q 631 639 631 555 m 282 -295 q 142 -244 200 -287 q 83 -151 83 -201 q 123 -64 83 -100 q 333 2 198 2 q 416 -7 377 2 q 358 -95 380 -43 q 336 -188 336 -147 q 342 -250 336 -229 q 320 -277 342 -260 q 282 -295 298 -295 z "},"h":{"ha":1041,"x_min":68,"x_max":935,"o":"m 590 -7 q 551 91 551 31 q 581 319 551 151 q 611 526 611 487 q 592 582 611 565 q 544 600 574 600 q 567 661 550 640 q 646 683 592 673 q 746 693 700 693 q 881 652 836 693 q 926 521 926 610 q 905 345 926 471 q 883 190 883 218 q 885 147 883 161 q 889 125 888 133 q 899 106 891 117 q 908 93 906 96 q 922 80 910 91 q 935 66 933 68 q 916 35 935 57 q 880 6 896 13 q 590 -7 793 -7 m 408 46 q 386 18 408 37 q 348 0 364 0 l 68 0 q 137 426 98 127 q 191 894 176 724 q 213 921 191 903 q 250 939 235 939 l 536 939 q 461 508 500 789 q 408 46 422 227 z "},"i":{"ha":578,"x_min":66,"x_max":539,"o":"m 66 0 q 156 629 125 250 q 178 656 156 638 q 216 673 201 673 l 500 673 q 410 45 441 420 q 388 18 410 36 q 351 0 366 0 l 66 0 m 462 765 l 178 765 q 195 867 191 817 q 217 895 195 877 q 254 913 239 913 l 539 913 q 521 810 530 881 q 499 783 521 800 q 462 765 478 765 z "},"j":{"ha":578,"x_min":18,"x_max":545,"o":"m 215 673 l 499 673 q 439 343 475 567 q 389 1 403 119 q 285 -219 372 -153 q 18 -286 198 -286 q 97 137 54 -163 q 156 629 140 437 q 178 655 156 637 q 215 673 199 673 m 467 765 l 184 765 q 201 867 197 817 q 222 895 201 877 q 260 913 244 913 l 545 913 q 526 810 536 881 q 505 783 526 800 q 467 765 484 765 z "},"k":{"ha":1041,"x_min":94,"x_max":964,"o":"m 907 249 l 903 149 q 917 102 903 117 q 964 87 930 87 q 941 18 957 45 q 740 -10 845 -10 q 605 13 635 -10 q 574 73 574 35 q 584 171 574 111 q 593 267 593 231 q 522 342 593 329 q 545 395 528 375 q 642 454 610 414 q 673 529 673 493 q 659 584 673 564 q 627 603 646 603 q 589 597 608 603 q 612 658 595 637 q 768 696 692 696 q 888 663 844 696 q 932 576 932 629 q 908 488 932 524 q 846 430 885 452 q 672 375 770 385 q 847 342 787 375 q 907 249 907 309 m 433 46 q 411 18 433 37 q 373 0 389 0 l 94 0 q 162 426 123 127 q 216 894 201 724 q 238 921 216 903 q 275 939 260 939 l 561 939 q 486 508 525 789 q 433 46 448 227 z "},"l":{"ha":578,"x_min":69,"x_max":536,"o":"m 408 46 q 387 18 408 37 q 349 0 365 0 l 69 0 q 138 426 99 127 q 192 894 177 724 q 214 921 192 903 q 251 939 235 939 l 536 939 q 462 508 500 789 q 408 46 423 227 z "},"m":{"ha":1502,"x_min":78,"x_max":1381,"o":"m 363 0 l 78 0 q 178 627 151 310 q 199 652 178 635 q 245 673 221 669 q 363 684 269 677 q 509 691 457 691 q 422 45 450 391 q 400 18 422 36 q 363 0 378 0 m 545 0 q 616 502 616 408 q 572 597 616 597 q 602 659 581 633 q 759 691 671 691 q 888 648 846 691 q 930 519 930 606 q 905 304 930 473 q 873 45 880 135 q 852 18 873 36 q 814 0 830 0 l 545 0 m 1055 -1 q 1015 87 1015 39 q 1040 308 1015 135 q 1066 521 1066 480 q 1042 579 1066 562 q 987 597 1019 597 q 1010 659 994 636 q 1092 681 1035 671 q 1196 691 1149 691 q 1332 650 1286 691 q 1377 519 1377 608 q 1353 346 1377 468 q 1329 195 1329 224 q 1331 153 1329 167 q 1335 131 1333 138 q 1344 112 1337 123 q 1354 99 1352 101 q 1368 85 1356 96 q 1381 72 1380 73 q 1361 41 1381 63 q 1325 12 1341 19 q 1055 -1 1238 -1 z "},"n":{"ha":1041,"x_min":64,"x_max":939,"o":"m 349 0 l 64 0 q 162 627 135 297 q 184 652 162 635 q 230 673 205 669 q 348 684 254 677 q 493 691 441 691 q 408 45 438 407 q 387 18 408 36 q 349 0 365 0 m 594 -7 q 555 91 555 31 q 585 319 555 151 q 615 526 615 487 q 596 582 615 565 q 548 600 578 600 q 571 661 554 640 q 650 683 596 673 q 750 693 704 693 q 885 652 840 693 q 930 521 930 610 q 909 345 930 471 q 887 190 887 218 q 889 147 887 161 q 893 125 892 133 q 903 106 895 117 q 912 93 910 96 q 926 80 914 91 q 939 66 937 68 q 920 35 939 57 q 884 6 900 13 q 594 -7 797 -7 z "},"o":{"ha":1041,"x_min":90,"x_max":951,"o":"m 566 696 q 404 275 404 541 q 433 49 404 163 q 411 21 433 39 q 375 3 390 3 q 178 98 261 19 q 90 304 90 180 q 152 516 90 428 q 322 650 214 604 q 566 696 430 696 m 475 -6 q 637 415 637 150 q 608 642 637 528 q 630 669 608 652 q 666 687 651 687 q 863 593 780 671 q 951 386 951 510 q 889 175 951 262 q 719 40 827 87 q 475 -6 611 -6 z "},"p":{"ha":1041,"x_min":35,"x_max":958,"o":"m 35 -284 q 173 629 140 204 q 195 654 173 637 q 244 674 216 671 q 370 683 272 677 q 511 688 468 688 q 380 -240 437 368 q 358 -267 380 -249 q 321 -284 336 -284 l 35 -284 m 488 0 q 576 100 539 33 q 646 382 646 227 q 572 646 646 538 q 593 673 572 656 q 630 691 614 691 q 794 654 720 691 q 913 547 868 618 q 958 383 958 476 q 831 106 958 213 q 488 0 705 0 z "},"q":{"ha":1041,"x_min":83,"x_max":966,"o":"m 844 -240 q 823 -267 844 -249 q 785 -284 801 -284 l 500 -284 q 578 170 536 -134 q 634 648 621 473 q 656 673 634 656 q 694 691 679 691 q 966 653 840 691 q 898 229 936 525 q 844 -240 859 -68 m 566 691 q 444 519 484 630 q 404 318 404 409 q 428 155 404 228 q 486 46 452 83 q 465 18 486 36 q 427 0 443 0 q 176 82 269 0 q 83 309 83 163 q 118 450 83 382 q 214 572 153 519 q 367 659 275 626 q 566 691 459 691 z "},"r":{"ha":810,"x_min":47,"x_max":814,"o":"m 737 691 q 814 594 814 691 q 793 474 814 534 q 741 382 772 414 q 630 434 696 413 q 505 456 565 454 q 527 536 511 494 q 737 691 636 691 m 331 0 l 47 0 q 144 627 116 296 q 166 652 144 635 q 212 673 189 669 q 333 684 235 677 q 484 691 431 691 q 390 45 416 355 q 368 18 390 36 q 331 0 347 0 z "},"s":{"ha":810,"x_min":15,"x_max":787,"o":"m 449 697 q 410 620 410 661 q 555 423 410 525 q 656 345 620 377 q 739 185 739 271 q 653 47 739 100 q 412 -5 567 -5 q 430 66 430 34 q 412 128 430 98 q 366 183 394 158 q 302 234 337 208 q 233 286 268 259 q 170 340 199 312 q 106 476 106 403 q 165 608 106 557 q 449 697 268 694 m 554 695 q 718 657 650 695 q 787 566 787 620 q 629 463 787 481 q 631 477 631 467 q 598 573 631 529 q 507 643 566 616 q 522 673 507 654 q 554 695 537 692 m 294 -3 q 243 -5 260 -5 q 80 27 145 -5 q 15 111 15 59 q 172 241 15 214 q 167 190 166 212 q 182 147 168 168 q 221 109 196 125 q 332 54 266 79 q 320 23 332 43 q 294 -3 307 3 z "},"t":{"ha":695,"x_min":69,"x_max":688,"o":"m 613 41 q 336 -3 474 -3 q 69 209 69 -3 q 89 393 69 255 q 109 584 109 531 q 104 664 109 636 q 267 758 197 705 q 404 886 338 810 q 492 896 438 896 q 420 567 447 736 q 393 318 393 398 q 405 202 393 237 q 442 146 416 166 q 586 112 488 112 q 636 114 610 112 q 613 41 630 69 m 494 513 q 525 688 500 607 q 673 648 591 660 q 684 615 679 638 q 688 578 688 591 q 494 513 594 552 z "},"u":{"ha":1039,"x_min":106,"x_max":965,"o":"m 106 175 q 129 368 106 245 q 151 540 151 490 q 119 610 151 589 q 139 649 119 621 q 173 678 159 678 l 438 678 q 463 653 451 671 q 475 608 475 635 q 446 428 475 580 q 416 190 416 275 q 438 124 416 146 q 495 101 460 101 q 494 79 494 92 q 486 40 494 49 q 398 6 452 19 q 293 -6 343 -6 q 106 175 106 -6 m 618 1 q 564 94 564 39 q 593 340 564 149 q 630 633 622 532 q 652 660 630 642 q 690 678 674 678 l 965 678 q 906 382 928 521 q 884 194 884 244 q 896 120 884 144 q 936 75 909 96 q 916 43 936 65 q 880 14 897 21 q 618 1 793 1 z "},"v":{"ha":810,"x_min":58,"x_max":842,"o":"m 602 633 q 625 660 602 642 q 665 678 648 678 l 842 678 q 669 406 772 574 q 637 387 664 397 q 593 377 610 377 q 614 521 614 452 q 602 633 614 590 m 235 0 q 58 635 191 230 q 80 662 58 644 q 120 680 103 680 l 411 680 q 451 470 424 568 q 556 286 501 286 q 595 291 581 286 q 612 298 610 297 q 546 152 591 258 q 498 40 501 45 q 476 17 496 34 q 441 0 456 0 l 235 0 z "},"w":{"ha":1270,"x_min":60,"x_max":1299,"o":"m 123 680 l 427 680 q 467 469 442 560 q 573 295 515 295 q 601 298 587 295 q 535 152 580 258 q 487 40 490 45 q 465 17 484 34 q 429 0 445 0 l 251 0 q 95 531 224 149 l 60 635 q 83 662 60 644 q 123 680 106 680 m 604 680 l 907 680 q 918 572 913 629 q 929 476 924 516 q 942 406 935 435 q 959 350 949 376 q 1013 295 979 295 q 1041 298 1027 295 q 976 156 1020 259 q 928 43 932 52 q 904 17 924 34 q 869 0 884 0 l 692 0 q 620 340 664 149 q 541 635 576 530 q 564 662 541 644 q 604 680 587 680 m 1059 633 q 1082 660 1059 642 q 1121 678 1105 678 l 1299 678 q 1199 538 1281 651 q 1090 377 1117 425 q 1065 358 1086 368 q 1027 349 1044 349 q 1061 581 1061 460 q 1059 633 1061 607 z "},"x":{"ha":926,"x_min":-20,"x_max":947,"o":"m 743 0 l 435 0 q 239 447 372 186 q 145 633 171 579 q 167 660 145 642 q 204 678 189 678 l 513 678 q 707 235 573 492 q 803 45 774 104 q 781 18 803 35 q 743 0 760 0 m 661 416 q 682 542 682 473 q 668 633 682 611 q 691 661 669 643 q 730 678 713 678 l 947 678 q 886 624 926 659 q 828 572 847 589 q 737 461 776 524 q 704 434 731 452 q 661 416 676 416 m 271 303 q 240 159 240 231 q 258 45 240 87 q 234 18 258 36 q 195 0 211 0 l -20 0 q 101 131 52 73 q 192 259 150 189 q 226 286 197 269 q 271 303 255 303 z "},"y":{"ha":1041,"x_min":85,"x_max":958,"o":"m 121 213 q 141 372 121 269 q 161 522 161 476 q 123 610 161 594 q 142 649 123 621 q 176 678 162 678 l 440 678 q 467 657 456 673 q 477 612 477 641 q 464 521 477 584 q 423 238 423 330 q 449 172 423 195 q 510 149 474 149 q 487 88 505 110 q 316 42 414 42 q 121 213 121 42 m 632 639 q 653 661 632 647 q 692 675 675 675 l 958 675 q 868 60 904 416 q 704 -274 841 -203 q 486 -317 621 -317 q 418 -314 465 -317 q 507 -154 476 -246 q 563 66 538 -61 q 610 368 587 193 q 633 581 632 543 q 632 639 633 618 m 282 -297 q 139 -256 193 -290 q 85 -174 85 -222 q 127 -93 85 -126 q 360 -28 211 -28 q 456 -36 408 -28 q 393 -119 417 -74 q 370 -196 370 -164 q 376 -252 370 -228 q 341 -279 376 -262 q 282 -297 307 -297 z "},"z":{"ha":926,"x_min":44,"x_max":888,"o":"m 92 410 q 133 629 106 538 q 157 661 138 643 q 187 678 175 678 l 407 678 q 385 640 400 662 q 354 607 370 617 q 254 530 298 571 q 155 425 210 488 q 131 414 151 419 q 92 410 111 410 m 850 292 q 805 49 835 155 q 782 18 800 35 q 751 0 763 0 l 517 0 q 578 76 538 48 q 636 118 618 104 q 684 157 654 132 q 777 269 731 199 q 808 284 782 275 q 850 292 833 292 m 44 59 q 498 678 282 315 l 828 678 q 865 661 844 678 q 888 633 886 643 q 676 366 803 541 q 431 0 549 191 l 104 0 q 66 24 88 0 q 44 59 44 49 z "},"{":{"ha":366,"x_min":28,"x_max":425,"o":"m 147 662 l 165 801 q 199 929 177 897 q 239 974 221 960 q 288 994 257 987 q 425 1006 334 1006 l 418 949 q 368 936 382 949 q 348 899 354 922 q 328 769 337 860 l 313 639 q 141 452 296 482 q 224 409 195 435 q 254 348 254 383 q 241 211 254 312 l 230 132 q 224 30 224 92 q 285 -71 224 -68 l 277 -124 q 113 -98 165 -124 q 60 0 60 -71 q 69 133 60 51 l 80 228 q 92 358 92 323 q 77 409 92 392 q 28 426 62 426 l 39 496 q 115 528 95 496 q 147 662 134 559 z "},"|":{"ha":530,"x_min":123,"x_max":401,"o":"m 232 -245 q 211 -269 232 -254 q 172 -284 189 -284 l 123 -284 q 216 353 164 -28 q 292 957 268 734 q 314 981 292 966 q 352 996 335 996 l 401 996 q 308 359 360 740 q 232 -245 256 -22 z "},"}":{"ha":366,"x_min":-45,"x_max":353,"o":"m 233 230 l 216 91 q 181 -37 203 -5 q 141 -82 159 -68 q 94 -102 123 -95 q -45 -114 47 -114 l -38 -58 q 13 -44 -1 -58 q 33 -8 26 -31 q 53 123 43 32 l 67 253 q 239 440 84 410 q 156 483 186 457 q 126 544 126 509 q 140 681 126 580 l 151 760 q 156 862 156 800 q 96 963 156 960 l 103 1016 q 268 989 216 1016 q 320 892 320 963 q 311 759 320 841 l 300 664 q 289 534 289 568 q 303 483 289 500 q 353 466 318 466 l 342 395 q 266 364 286 395 q 233 230 246 332 z "},"~":{"ha":926,"x_min":81,"x_max":823,"o":"m 818 306 q 615 262 707 262 q 410 280 523 262 q 221 298 297 298 q 81 280 144 298 q 86 344 81 323 q 286 388 199 388 q 476 370 372 388 q 670 352 581 352 q 823 370 760 352 q 818 306 823 327 z "},"¡":{"ha":581,"x_min":20,"x_max":473,"o":"m 231 397 l 382 405 q 359 -107 359 238 q 356 -190 359 -155 q 334 -216 356 -199 q 297 -234 312 -233 l 20 -244 q 172 353 121 120 q 193 379 172 362 q 231 397 214 397 m 442 525 q 289 468 385 468 q 180 497 220 468 q 140 574 140 526 q 194 658 140 622 q 320 694 248 694 q 432 665 392 694 q 473 595 473 637 q 442 525 473 554 z "},"¢":{"ha":926,"x_min":90,"x_max":877,"o":"m 484 -144 q 462 -168 484 -153 q 424 -183 441 -183 l 402 -183 q 434 -10 416 -127 q 186 84 281 1 q 90 312 90 168 q 146 513 90 424 q 294 650 201 602 q 499 699 387 699 q 527 697 508 699 q 541 841 536 779 q 563 864 541 850 q 600 879 584 879 l 628 879 q 590 689 612 814 q 473 542 519 635 q 427 365 427 449 q 447 231 427 281 q 505 150 467 180 q 696 90 578 90 q 824 105 756 90 q 693 15 770 41 q 496 -12 616 -11 q 484 -144 489 -76 m 705 671 q 830 600 783 654 q 877 491 877 546 q 829 411 877 437 q 732 385 781 385 q 636 403 684 385 q 641 519 641 467 q 632 627 641 572 q 660 656 634 642 q 705 671 685 671 z "},"£":{"ha":926,"x_min":28,"x_max":922,"o":"m 157 189 q 198 334 181 252 q 28 303 87 317 l 28 325 q 43 363 28 342 q 67 385 58 385 q 210 399 102 387 q 223 486 215 430 q 235 567 231 542 q 248 636 239 592 q 265 704 256 681 q 289 763 274 727 q 323 818 304 798 q 368 861 341 837 q 428 898 395 885 q 600 937 507 930 q 524 613 547 793 q 505 434 510 503 q 673 465 628 454 l 673 437 q 658 400 673 421 q 635 378 644 378 q 497 366 602 376 q 452 260 485 292 q 272 203 408 218 q 157 189 229 199 m 656 -25 l 248 -15 q 31 -20 111 -15 q 60 45 38 12 q 115 98 83 78 q 224 129 148 117 q 387 145 300 140 q 563 159 473 150 q 736 196 652 168 q 871 270 821 223 q 823 62 850 113 q 762 -5 798 12 q 656 -25 721 -25 m 800 512 q 741 722 774 638 q 643 878 707 806 q 666 907 644 890 q 703 923 688 923 q 922 874 821 910 q 905 728 921 835 q 875 557 890 621 q 844 529 872 547 q 800 512 817 512 z "},"¤":{"ha":926,"x_min":47,"x_max":900,"o":"m 247 817 l 318 694 q 521 757 418 757 q 697 711 623 757 l 758 793 q 786 821 766 806 q 822 837 806 836 l 900 801 q 769 648 824 715 q 837 452 837 566 q 800 289 837 367 q 697 152 762 210 q 802 11 752 75 q 781 -13 802 2 q 743 -28 760 -28 l 694 -28 q 618 94 635 66 q 421 40 523 40 q 243 91 320 40 q 218 57 237 82 q 190 18 199 31 q 161 -11 180 4 q 125 -27 141 -26 l 47 9 q 174 156 108 78 q 112 345 112 236 q 146 497 112 422 q 241 632 180 572 q 138 778 145 768 q 160 802 138 787 q 198 817 181 817 l 247 817 m 433 132 q 549 157 492 132 q 648 224 606 182 q 717 322 691 265 q 743 439 743 379 q 679 600 743 536 q 525 664 614 664 q 365 622 437 664 q 249 509 293 580 q 205 349 205 437 q 269 196 205 260 q 433 132 334 132 z "},"¥":{"ha":926,"x_min":37,"x_max":963,"o":"m 77 271 q 250 289 143 277 l 236 359 q 51 326 109 340 l 51 347 q 66 386 51 364 q 90 407 81 407 q 223 420 123 410 q 104 879 180 616 q 125 905 104 888 q 163 923 146 923 l 478 923 q 606 296 511 585 q 682 307 632 300 q 827 332 793 323 l 827 304 q 812 266 827 288 q 788 244 798 245 q 746 241 779 244 q 609 231 699 239 q 583 45 595 157 q 561 18 583 36 q 523 0 539 0 l 223 0 q 260 229 248 125 q 37 190 102 205 l 37 212 q 53 250 37 229 q 77 271 68 271 m 963 923 q 700 442 868 774 q 854 473 818 464 l 854 446 q 839 408 854 429 q 816 387 825 387 q 630 367 745 380 l 626 367 q 688 824 688 598 q 687 879 688 861 q 709 905 687 888 q 747 923 731 923 l 963 923 z "},"¦":{"ha":530,"x_min":123,"x_max":401,"o":"m 210 295 l 302 299 q 232 -245 252 -69 q 211 -269 232 -254 q 172 -284 189 -284 l 123 -284 q 210 295 174 35 m 328 488 l 235 481 q 292 957 266 712 q 314 981 292 966 q 352 996 335 996 l 401 996 q 328 488 376 839 z "},"§":{"ha":895,"x_min":77,"x_max":831,"o":"m 541 1019 q 502 941 502 982 q 646 745 502 846 q 819 582 792 642 q 831 525 831 555 q 617 382 831 382 q 522 388 574 382 q 457 505 522 448 q 394 555 429 530 q 325 607 359 581 q 262 661 290 633 q 197 798 197 724 q 257 929 197 878 q 541 1019 359 1015 m 252 498 q 385 510 316 509 q 529 313 385 415 q 631 235 594 267 q 713 76 713 161 q 627 -63 713 -10 q 387 -115 541 -115 q 404 -45 404 -76 q 386 16 404 -14 q 339 69 368 45 q 276 118 311 94 q 206 167 241 142 q 142 218 171 192 q 95 275 113 243 q 77 341 77 307 q 91 403 77 375 q 131 448 105 431 q 185 478 156 466 q 252 498 215 491 m 184 -113 q 120 -92 143 -113 q 97 -36 97 -72 q 131 24 97 0 q 203 48 164 48 q 265 27 241 48 q 288 -27 288 7 q 257 -87 288 -61 q 184 -113 227 -113 m 701 857 q 636 878 659 857 q 613 934 613 898 q 647 994 613 970 q 719 1018 680 1018 q 781 997 758 1018 q 804 943 804 977 q 773 883 804 909 q 701 857 743 857 z "},"¨":{"ha":761,"x_min":78,"x_max":743,"o":"m 104 947 q 237 1007 154 1007 q 331 977 296 1007 q 366 897 366 947 q 319 808 366 846 q 210 770 273 770 q 113 800 148 770 q 78 873 78 830 q 104 947 78 916 m 481 947 q 603 1007 532 1007 q 709 977 674 1007 q 743 897 743 947 q 696 808 743 846 q 587 770 650 770 q 490 800 525 770 q 455 873 455 830 q 481 947 455 916 z "},"©":{"ha":1158,"x_min":102,"x_max":1059,"o":"m 139 275 q 102 461 102 363 q 139 647 102 559 q 241 800 177 736 q 394 902 305 864 q 580 940 482 940 q 766 902 677 940 q 919 800 854 864 q 1021 647 983 736 q 1059 461 1059 559 q 1021 275 1059 363 q 919 122 983 186 q 766 21 854 58 q 580 -17 677 -17 q 394 21 482 -17 q 241 122 305 58 q 139 275 177 186 m 212 674 q 156 461 156 576 q 213 248 156 346 q 367 94 269 151 q 580 37 465 37 q 793 94 695 37 q 947 248 890 151 q 1004 461 1004 346 q 947 674 1004 576 q 793 828 890 772 q 580 885 695 885 q 367 828 465 885 q 212 674 269 772 m 755 490 q 719 617 740 566 q 661 711 699 667 q 675 728 662 718 q 696 738 688 738 q 829 709 770 730 q 818 620 827 684 q 800 517 809 555 q 782 501 799 511 q 755 490 766 490 m 793 388 q 768 218 785 296 q 692 185 745 198 q 572 173 640 173 q 668 258 632 216 q 740 364 703 300 q 766 381 749 374 q 793 388 783 388 m 636 748 q 543 600 576 696 q 509 390 509 503 q 547 201 509 278 q 534 184 547 195 q 511 173 521 173 q 359 256 421 189 q 297 423 297 323 q 376 646 297 549 q 478 721 414 692 q 621 749 541 749 q 636 748 630 749 z "},"ª":{"ha":695,"x_min":43,"x_max":696,"o":"m 640 500 q 426 479 543 479 q 401 549 401 513 q 423 732 401 585 q 446 928 446 880 q 462 947 446 935 q 490 960 478 960 q 696 932 604 960 q 670 811 694 917 q 646 640 646 705 q 682 543 646 576 q 667 520 682 536 q 640 500 653 505 m 404 966 q 314 852 345 924 q 284 711 284 781 q 300 587 284 642 q 344 513 316 532 q 328 493 344 507 q 301 480 312 480 q 115 535 186 480 q 43 685 43 591 q 142 885 43 804 q 404 966 241 966 z "},"«":{"ha":911,"x_min":64,"x_max":882,"o":"m 523 658 l 523 572 q 507 540 523 557 q 433 475 492 522 q 243 309 375 429 q 455 77 361 176 q 436 25 455 64 q 410 -16 418 -13 q 64 267 261 111 q 80 370 69 328 q 523 658 314 519 m 882 658 l 882 572 q 867 540 882 557 q 793 475 851 522 q 602 309 734 429 q 814 77 721 176 q 796 25 814 64 q 770 -16 777 -13 q 423 267 621 111 q 439 370 429 328 q 882 658 673 519 z "},"¬":{"ha":926,"x_min":140,"x_max":785,"o":"m 754 182 q 733 158 754 173 q 694 142 711 142 l 646 142 q 669 300 662 220 q 140 290 429 299 l 140 336 q 156 374 140 353 q 180 396 171 395 q 785 406 501 396 q 754 182 767 313 z "},"­":{"ha":1158,"x_min":256,"x_max":901,"o":"m 861 303 q 256 293 573 303 l 256 336 q 272 374 256 353 q 296 396 287 395 q 901 406 617 396 l 901 363 q 885 325 901 346 q 861 303 870 303 z "},"®":{"ha":1158,"x_min":102,"x_max":1059,"o":"m 139 275 q 102 461 102 363 q 139 647 102 559 q 241 800 177 736 q 394 902 305 864 q 580 940 482 940 q 766 902 677 940 q 919 800 854 864 q 1021 647 983 736 q 1059 461 1059 559 q 1021 275 1059 363 q 919 122 983 186 q 766 21 854 58 q 580 -17 677 -17 q 394 21 482 -17 q 241 122 305 58 q 139 275 177 186 m 212 674 q 156 461 156 576 q 213 248 156 346 q 367 94 269 151 q 580 37 465 37 q 793 94 695 37 q 947 248 890 151 q 1004 461 1004 346 q 947 674 1004 576 q 793 828 890 772 q 580 885 695 885 q 367 828 465 885 q 212 674 269 772 m 515 217 q 502 201 515 212 q 479 190 489 190 l 294 190 q 374 715 349 410 q 387 731 374 720 q 409 742 399 741 q 596 752 531 752 q 515 217 537 496 m 812 374 l 806 292 q 814 256 806 269 q 845 239 823 243 q 831 197 840 211 q 709 180 762 180 q 628 194 656 180 q 600 238 600 208 q 609 319 600 268 q 618 391 618 371 q 582 446 618 442 q 595 479 584 465 q 649 534 629 496 q 668 628 668 572 q 629 724 668 683 q 642 742 629 730 q 664 753 655 753 q 791 722 738 753 q 850 624 850 688 q 797 519 850 559 q 656 473 745 479 l 693 470 q 780 442 747 466 q 812 374 812 418 z "},"¯":{"ha":761,"x_min":175,"x_max":636,"o":"m 576 825 q 175 815 336 825 l 195 964 q 212 1002 198 981 q 235 1023 227 1023 q 636 1034 498 1023 l 616 885 q 599 846 613 867 q 576 825 585 825 z "},"°":{"ha":499,"x_min":76,"x_max":467,"o":"m 76 787 q 139 953 76 888 q 302 1018 203 1018 q 421 970 376 1018 q 467 848 467 922 q 402 681 467 744 q 253 618 338 618 q 121 666 167 618 q 76 787 76 714 m 283 937 q 200 899 235 937 q 165 808 165 861 q 189 727 165 755 q 260 700 213 700 q 342 736 307 700 q 377 827 377 772 q 354 909 377 881 q 283 937 330 937 z "},"±":{"ha":926,"x_min":120,"x_max":805,"o":"m 766 371 q 519 380 608 379 q 496 193 507 290 q 484 90 486 96 q 764 99 583 92 l 764 52 q 749 14 764 35 q 725 -7 734 -7 q 120 -18 437 -7 l 120 29 q 135 67 120 46 q 159 89 151 88 l 382 89 q 427 380 419 322 q 161 361 339 377 l 161 410 q 176 448 161 427 q 200 469 191 469 q 438 460 340 462 q 469 730 444 503 q 491 754 469 739 q 529 770 512 770 l 578 770 q 530 460 550 598 q 805 479 608 462 l 805 431 q 790 392 805 414 q 766 371 774 371 z "},"²":{"ha":695,"x_min":76,"x_max":630,"o":"m 334 514 l 334 506 q 320 491 334 500 q 294 481 305 481 l 84 481 q 76 529 76 502 q 94 588 76 555 q 141 650 112 621 q 205 709 170 680 q 275 767 240 739 q 340 821 311 795 q 405 928 405 880 q 397 961 405 945 q 411 975 397 966 q 437 985 426 985 q 630 857 630 973 q 526 704 630 784 q 439 639 482 671 q 334 514 334 564 m 121 801 q 160 954 132 884 q 176 970 164 962 q 197 981 187 979 q 376 999 285 998 q 271 935 309 972 q 168 825 220 885 q 148 811 164 821 q 121 801 131 801 m 559 629 q 580 644 564 635 q 606 654 596 654 q 577 508 591 553 q 560 490 572 500 q 540 481 548 481 l 377 481 q 559 629 469 531 z "},"³":{"ha":695,"x_min":69,"x_max":644,"o":"m 644 872 q 362 743 644 758 q 525 728 486 743 q 587 700 564 714 q 635 616 635 671 q 595 529 635 562 q 359 467 519 467 q 271 473 311 467 q 388 624 388 527 q 367 680 388 657 q 243 726 328 723 l 243 734 q 251 762 243 747 q 374 804 326 762 q 422 895 422 846 q 385 968 422 943 q 401 985 385 975 q 429 995 418 995 q 609 941 543 995 q 644 872 644 912 m 146 673 q 251 507 184 546 q 234 489 250 501 q 207 477 218 477 q 130 490 173 479 q 69 507 86 500 q 94 655 81 592 q 146 673 110 665 m 119 798 q 146 923 134 896 q 199 981 171 977 q 363 999 288 998 q 266 929 309 968 q 169 824 223 890 q 148 808 165 819 q 119 798 131 798 z "},"´":{"ha":761,"x_min":224,"x_max":641,"o":"m 257 777 q 224 848 234 806 q 536 1088 383 989 q 598 975 564 1053 q 641 855 633 897 q 257 777 488 803 z "},"µ":{"ha":926,"x_min":113,"x_max":813,"o":"m 732 186 q 776 64 732 99 q 756 33 776 55 q 720 4 736 11 l 697 1 q 655 46 673 18 q 636 103 636 73 q 637 149 636 133 q 528 35 590 75 q 410 -5 466 -5 q 246 79 307 -5 q 214 -245 214 -123 q 193 -269 214 -254 q 155 -284 172 -284 l 113 -284 q 173 172 117 -168 q 229 561 229 511 q 228 624 229 610 q 249 658 228 638 q 284 678 269 678 l 305 678 q 327 654 317 672 q 336 613 336 636 q 307 418 336 591 q 279 194 279 245 q 318 114 279 143 q 418 84 357 84 q 539 123 479 84 q 646 232 599 161 q 695 633 683 494 q 717 660 695 642 q 755 678 739 678 l 813 678 q 754 382 777 521 q 732 186 732 244 z "},"¶":{"ha":970,"x_min":113,"x_max":950,"o":"m 549 950 q 450 517 450 784 q 458 374 450 443 q 436 347 458 365 q 398 328 414 328 q 193 414 273 336 q 113 606 113 491 q 160 800 113 721 q 468 958 254 958 q 549 950 517 958 m 711 936 q 545 -174 643 585 l 436 -174 q 524 349 472 -24 q 589 895 576 722 q 612 921 589 903 q 658 939 634 939 q 711 936 682 939 m 673 -174 l 621 -174 q 707 360 661 39 q 774 928 753 682 q 935 902 817 918 q 946 869 941 892 q 950 832 950 846 q 853 802 896 817 q 784 317 825 637 q 732 -130 743 -3 q 711 -157 732 -139 q 673 -174 689 -174 z "},"·":{"ha":463,"x_min":56,"x_max":388,"o":"m 87 420 q 239 477 144 477 q 348 448 307 477 q 388 371 388 418 q 334 287 388 323 q 208 250 280 250 q 96 279 136 250 q 56 349 56 307 q 87 420 56 390 z "},"¸":{"ha":761,"x_min":304,"x_max":694,"o":"m 305 -203 q 437 -234 370 -234 q 505 -186 505 -234 q 423 -139 505 -139 q 385 -141 416 -139 q 363 -90 370 -121 q 439 -61 405 -68 q 538 -54 474 -54 q 648 -85 602 -54 q 694 -179 694 -116 q 648 -280 694 -243 q 500 -317 602 -317 q 307 -271 398 -317 q 304 -233 304 -255 q 305 -203 304 -211 z "},"¹":{"ha":695,"x_min":100,"x_max":555,"o":"m 233 947 q 210 867 229 906 l 100 867 q 117 918 108 903 q 233 947 170 928 m 475 507 q 455 492 475 502 q 421 482 435 482 l 167 482 q 299 964 240 663 q 319 979 299 969 q 353 989 340 989 l 555 989 q 475 507 497 769 z "},"º":{"ha":695,"x_min":50,"x_max":713,"o":"m 404 967 q 290 671 290 868 q 313 511 290 592 q 296 492 313 504 q 267 479 279 479 q 113 549 176 491 q 50 697 50 606 q 146 894 50 821 q 404 967 243 967 m 359 473 q 474 768 474 570 q 450 928 474 851 q 468 948 450 935 q 496 960 485 960 q 651 891 588 949 q 713 743 713 833 q 617 546 713 618 q 359 473 520 473 z "},"»":{"ha":911,"x_min":37,"x_max":835,"o":"m 37 -16 l 37 70 q 81 130 37 92 q 316 326 179 208 q 104 564 221 436 q 123 616 104 578 q 149 658 142 654 q 496 368 311 516 q 479 265 490 307 q 37 -16 241 120 m 376 -16 l 376 70 q 420 130 376 92 q 655 326 518 208 q 444 564 560 436 q 462 616 444 578 q 488 658 481 654 q 835 368 650 516 q 819 265 829 307 q 376 -16 581 120 z "},"¼":{"ha":1321,"x_min":52,"x_max":1235,"o":"m 1235 152 q 1227 117 1234 143 q 1215 83 1219 91 l 1126 83 q 1119 24 1123 62 q 1102 10 1119 20 q 1074 0 1086 0 l 837 0 q 939 483 909 224 q 956 497 939 488 q 984 507 972 507 l 1221 507 q 1135 152 1166 341 l 1235 152 m 812 83 l 610 83 q 587 144 597 106 q 741 286 635 180 q 896 452 847 392 q 726 152 820 285 l 829 152 q 812 83 823 111 m 317 3 q 258 -36 286 -36 l 175 -36 q 952 910 582 441 q 1012 949 982 949 l 1095 949 q 317 3 749 540 m 184 947 q 162 867 180 906 l 52 867 q 68 918 60 903 q 184 947 121 928 m 427 507 q 407 492 427 502 q 373 482 387 482 l 119 482 q 251 964 192 663 q 271 979 251 969 q 305 989 292 989 l 507 989 q 427 507 449 769 z "},"½":{"ha":1321,"x_min":52,"x_max":1259,"o":"m 317 3 q 258 -36 286 -36 l 175 -36 q 952 910 582 441 q 1012 949 982 949 l 1095 949 q 317 3 749 540 m 184 947 q 162 867 180 906 l 52 867 q 68 918 60 903 q 184 947 121 928 m 427 507 q 407 492 427 502 q 373 482 387 482 l 119 482 q 251 964 192 663 q 271 979 251 969 q 305 989 292 989 l 507 989 q 427 507 449 769 m 964 101 l 964 93 q 949 78 964 87 q 924 68 935 68 l 713 68 q 705 116 705 89 q 723 175 705 142 q 770 237 741 208 q 834 296 800 267 q 905 354 869 326 q 969 408 940 382 q 1034 515 1034 467 q 1026 548 1034 532 q 1041 562 1026 553 q 1066 572 1055 572 q 1259 444 1259 560 q 1155 291 1259 371 q 1068 227 1112 258 q 964 101 964 151 m 751 388 q 789 541 761 471 q 805 557 793 549 q 827 568 817 566 q 1005 586 914 585 q 900 522 939 559 q 798 412 849 472 q 777 398 793 408 q 751 388 760 388 m 1188 216 q 1209 231 1193 222 q 1236 241 1225 241 q 1206 95 1221 140 q 1190 77 1202 87 q 1169 68 1177 68 l 1006 68 q 1188 216 1099 118 z "},"¾":{"ha":1321,"x_min":18,"x_max":1305,"o":"m 1305 152 q 1297 117 1304 143 q 1285 83 1289 91 l 1196 83 q 1189 24 1193 62 q 1172 10 1189 20 q 1143 0 1156 0 l 907 0 q 1008 483 979 224 q 1025 497 1008 488 q 1054 507 1042 507 l 1291 507 q 1204 152 1236 341 l 1305 152 m 882 83 l 680 83 q 656 144 667 106 q 811 286 705 180 q 966 452 917 392 q 796 152 890 285 l 899 152 q 882 83 893 111 m 387 3 q 328 -36 355 -36 l 245 -36 q 1022 910 652 441 q 1082 949 1051 949 l 1164 949 q 387 3 819 540 m 593 872 q 311 743 593 758 q 474 728 435 743 q 536 700 513 714 q 584 616 584 671 q 543 529 584 562 q 308 467 467 467 q 220 473 259 467 q 336 624 336 527 q 315 680 336 657 q 192 726 276 723 l 191 734 q 199 762 191 747 q 322 804 274 762 q 371 895 371 846 q 333 968 371 943 q 350 985 333 975 q 378 995 366 995 q 557 941 492 995 q 593 872 593 912 m 95 673 q 199 507 133 546 q 182 489 198 501 q 155 477 166 477 q 78 490 121 479 q 18 507 35 500 q 43 655 29 592 q 95 673 58 665 m 68 798 q 95 923 82 896 q 148 981 119 977 q 312 999 236 998 q 215 929 258 968 q 117 824 172 890 q 96 808 113 819 q 68 798 79 798 z "},"¿":{"ha":812,"x_min":-6,"x_max":720,"o":"m 313 368 q 342 397 323 383 q 373 412 361 411 l 593 420 q 519 222 578 309 q 428 109 481 168 q 351 16 375 49 q 299 -132 299 -54 q 311 -191 299 -164 q 289 -217 311 -200 q 252 -235 268 -234 q 62 -164 131 -220 q -6 -24 -6 -109 q 79 127 -6 50 q 159 195 117 161 q 313 368 266 284 m 720 112 q 671 -162 701 -77 q 647 -191 663 -175 q 616 -212 631 -208 q 313 -251 491 -250 q 645 60 488 -163 q 679 92 652 71 q 720 112 706 112 m 631 525 q 478 468 573 468 q 369 497 410 468 q 329 573 329 526 q 383 657 329 621 q 509 694 437 694 q 621 665 581 694 q 661 595 661 637 q 631 525 661 554 z "},"À":{"ha":926,"x_min":-27,"x_max":848,"o":"m 789 0 l 473 0 q 340 732 420 422 q 407 879 379 812 q 432 906 412 889 q 466 923 452 923 l 682 923 q 756 467 709 718 q 848 45 804 216 q 827 18 848 36 q 789 0 805 0 m 247 120 l 249 45 q 227 18 249 36 q 189 0 205 0 l -27 0 q 305 666 80 182 q 311 617 311 648 q 302 526 311 585 q 279 385 293 466 q 258 254 264 304 q 399 220 355 239 q 386 160 399 180 q 247 142 315 154 l 247 120 m 763 990 q 368 1040 524 1007 q 394 1141 372 1080 q 440 1242 416 1202 q 784 1051 593 1171 q 763 990 776 1017 z "},"Á":{"ha":926,"x_min":-27,"x_max":848,"o":"m 789 0 l 473 0 q 340 732 420 422 q 407 879 379 812 q 432 906 412 889 q 466 923 452 923 l 682 923 q 756 467 709 718 q 848 45 804 216 q 827 18 848 36 q 789 0 805 0 m 247 120 l 249 45 q 227 18 249 36 q 189 0 205 0 l -27 0 q 305 666 80 182 q 311 617 311 648 q 302 526 311 585 q 279 385 293 466 q 258 254 264 304 q 399 220 355 239 q 386 160 399 180 q 247 142 315 154 l 247 120 m 395 990 q 374 1051 382 1017 q 718 1242 565 1171 q 764 1141 742 1202 q 789 1040 786 1080 q 395 990 634 1007 z "},"Â":{"ha":926,"x_min":-27,"x_max":898,"o":"m 789 0 l 473 0 q 340 732 420 422 q 407 879 379 812 q 432 906 412 889 q 466 923 452 923 l 682 923 q 756 467 709 718 q 848 45 804 216 q 827 18 848 36 q 789 0 805 0 m 247 120 l 249 45 q 227 18 249 36 q 189 0 205 0 l -27 0 q 305 666 80 182 q 311 617 311 648 q 302 526 311 585 q 279 385 293 466 q 258 254 264 304 q 399 220 355 239 q 386 160 399 180 q 247 142 315 154 l 247 120 m 297 991 q 264 1063 275 1023 q 562 1236 396 1150 l 631 1236 q 898 1063 758 1162 q 857 991 883 1021 q 578 1036 694 1012 q 297 991 427 1009 z "},"Ã":{"ha":926,"x_min":-27,"x_max":857,"o":"m 789 0 l 473 0 q 340 732 420 422 q 407 879 379 812 q 432 906 412 889 q 466 923 452 923 l 682 923 q 756 467 709 718 q 848 45 804 216 q 827 18 848 36 q 789 0 805 0 m 247 120 l 249 45 q 227 18 249 36 q 189 0 205 0 l -27 0 q 305 666 80 182 q 311 617 311 648 q 302 526 311 585 q 279 385 293 466 q 258 254 264 304 q 399 220 355 239 q 386 160 399 180 q 247 142 315 154 l 247 120 m 310 1019 q 306 1056 306 1038 q 309 1090 306 1074 q 397 1172 349 1154 q 484 1187 438 1187 q 626 1163 529 1187 q 765 1139 724 1139 q 852 1143 807 1139 q 857 1106 857 1123 q 854 1073 857 1089 q 773 994 816 1013 q 681 975 730 975 q 534 999 632 975 q 396 1023 437 1023 q 310 1019 355 1023 z "},"Ä":{"ha":926,"x_min":-27,"x_max":912,"o":"m 789 0 l 473 0 q 340 732 420 422 q 407 879 379 812 q 432 906 412 889 q 466 923 452 923 l 682 923 q 756 467 709 718 q 848 45 804 216 q 827 18 848 36 q 789 0 805 0 m 247 120 l 249 45 q 227 18 249 36 q 189 0 205 0 l -27 0 q 305 666 80 182 q 311 617 311 648 q 302 526 311 585 q 279 385 293 466 q 258 254 264 304 q 399 220 355 239 q 386 160 399 180 q 247 142 315 154 l 247 120 m 273 1145 q 406 1200 321 1200 q 500 1172 466 1200 q 535 1095 535 1145 q 489 1011 535 1046 q 379 976 442 976 q 281 1003 316 976 q 247 1073 247 1030 q 273 1145 247 1116 m 650 1145 q 771 1200 699 1200 q 878 1173 844 1200 q 912 1096 912 1145 q 866 1011 912 1046 q 756 976 819 976 q 659 1003 693 976 q 624 1073 624 1030 q 650 1145 624 1116 z "},"Å":{"ha":926,"x_min":-27,"x_max":848,"o":"m 461 1138 q 594 1182 523 1182 q 709 1141 665 1182 q 752 1034 752 1101 q 694 915 752 966 q 684 906 688 910 q 756 467 711 708 q 848 45 804 216 q 827 18 848 36 q 789 0 805 0 l 473 0 q 340 732 420 422 q 407 879 379 812 q 431 906 412 889 q 433 907 433 907 q 394 996 394 947 q 413 1082 394 1047 q 461 1138 432 1116 m 247 120 l 249 45 q 227 18 249 36 q 189 0 205 0 l -27 0 q 305 666 80 182 q 311 617 311 648 q 302 526 311 585 q 279 385 293 466 q 258 254 264 304 q 399 220 355 239 q 386 160 399 180 q 247 142 315 154 l 247 120 m 579 1078 q 533 1061 555 1078 q 511 1020 511 1044 q 526 982 511 996 q 568 968 541 968 q 614 986 594 968 q 635 1026 635 1004 q 620 1063 635 1049 q 579 1078 604 1078 z "},"Æ":{"ha":1280,"x_min":-72,"x_max":1246,"o":"m 758 0 l 449 0 q 477 422 477 219 q 467 732 477 626 q 549 879 516 816 q 576 906 555 889 q 612 923 597 923 l 835 923 q 817 494 817 505 q 1044 459 992 475 q 1028 404 1044 422 q 814 375 932 399 q 814 247 814 346 q 821 45 814 147 q 797 18 820 36 q 758 0 773 0 m 165 0 l -72 0 q 177 341 -12 75 q 412 666 366 607 q 414 641 414 654 q 413 621 414 627 q 349 451 409 581 q 273 254 290 322 q 398 220 346 242 q 378 160 393 178 q 237 142 308 154 l 234 120 q 231 79 232 106 q 228 44 229 52 q 203 18 227 36 q 165 0 180 0 m 1133 512 q 1058 752 1090 692 q 986 837 1026 812 q 878 869 945 863 q 898 923 882 901 l 1246 923 q 1225 746 1241 857 q 1192 557 1210 635 q 1169 529 1190 546 q 1133 512 1149 512 m 1095 279 q 1129 306 1103 288 q 1171 323 1156 323 q 1127 49 1147 122 q 1103 18 1121 35 q 1073 0 1084 0 l 851 0 q 989 122 932 54 q 1095 279 1045 189 z "},"Ç":{"ha":1041,"x_min":97,"x_max":979,"o":"m 321 -203 q 453 -234 385 -234 q 521 -186 521 -234 q 439 -139 521 -139 q 401 -141 431 -139 q 378 -90 385 -121 q 455 -61 420 -68 q 554 -54 490 -54 q 664 -85 618 -54 q 709 -179 709 -116 q 663 -280 709 -243 q 515 -317 617 -317 q 323 -271 414 -317 q 320 -233 320 -255 q 321 -203 320 -211 m 857 512 q 797 722 831 638 q 699 878 763 806 q 722 907 701 890 q 759 923 744 923 q 979 874 877 910 q 962 728 977 835 q 931 557 946 621 q 901 529 928 547 q 857 512 873 512 m 920 342 q 877 62 907 202 q 752 7 839 28 q 553 -14 665 -14 q 711 128 652 57 q 831 304 770 199 q 874 331 846 319 q 920 342 903 342 m 511 33 q 490 4 511 22 q 452 -14 468 -14 q 204 119 306 13 q 126 244 155 172 q 97 400 97 317 q 117 559 97 482 q 181 706 138 636 q 288 827 225 775 q 633 941 422 941 q 659 940 649 941 q 504 693 559 854 q 448 346 448 532 q 511 33 448 159 z "},"È":{"ha":925,"x_min":63,"x_max":891,"o":"m 487 469 q 723 429 648 452 q 707 374 723 392 q 469 339 596 368 q 438 45 450 197 q 416 18 438 36 q 379 0 395 0 l 63 0 q 197 879 154 329 q 220 905 197 888 q 258 923 242 923 l 572 923 q 487 469 521 699 m 779 512 q 717 716 762 614 q 625 869 671 818 q 645 923 629 901 l 891 923 q 871 746 886 857 q 838 557 855 635 q 814 529 835 546 q 779 512 794 512 m 747 279 q 781 306 755 288 q 823 323 808 323 q 779 49 800 122 q 755 18 773 35 q 725 0 736 0 l 476 0 q 747 279 643 112 m 772 990 q 377 1040 532 1007 q 402 1141 380 1080 q 449 1242 425 1202 q 793 1051 602 1171 q 772 990 785 1017 z "},"É":{"ha":925,"x_min":63,"x_max":891,"o":"m 487 469 q 723 429 648 452 q 707 374 723 392 q 469 339 596 368 q 438 45 450 197 q 416 18 438 36 q 379 0 395 0 l 63 0 q 197 879 154 329 q 220 905 197 888 q 258 923 242 923 l 572 923 q 487 469 521 699 m 779 512 q 717 716 762 614 q 625 869 671 818 q 645 923 629 901 l 891 923 q 871 746 886 857 q 838 557 855 635 q 814 529 835 546 q 779 512 794 512 m 747 279 q 781 306 755 288 q 823 323 808 323 q 779 49 800 122 q 755 18 773 35 q 725 0 736 0 l 476 0 q 747 279 643 112 m 404 990 q 382 1051 391 1017 q 726 1242 574 1171 q 773 1141 751 1202 q 798 1040 795 1080 q 404 990 643 1007 z "},"Ê":{"ha":925,"x_min":63,"x_max":907,"o":"m 487 469 q 723 429 648 452 q 707 374 723 392 q 469 339 596 368 q 438 45 450 197 q 416 18 438 36 q 379 0 395 0 l 63 0 q 197 879 154 329 q 220 905 197 888 q 258 923 242 923 l 572 923 q 487 469 521 699 m 779 512 q 717 716 762 614 q 625 869 671 818 q 645 923 629 901 l 891 923 q 871 746 886 857 q 838 557 855 635 q 814 529 835 546 q 779 512 794 512 m 747 279 q 781 306 755 288 q 823 323 808 323 q 779 49 800 122 q 755 18 773 35 q 725 0 736 0 l 476 0 q 747 279 643 112 m 306 991 q 273 1063 283 1023 q 571 1236 405 1150 l 640 1236 q 907 1063 766 1162 q 866 991 892 1021 q 587 1036 703 1012 q 306 991 436 1009 z "},"Ë":{"ha":925,"x_min":63,"x_max":921,"o":"m 487 469 q 723 429 648 452 q 707 374 723 392 q 469 339 596 368 q 438 45 450 197 q 416 18 438 36 q 379 0 395 0 l 63 0 q 197 879 154 329 q 220 905 197 888 q 258 923 242 923 l 572 923 q 487 469 521 699 m 779 512 q 717 716 762 614 q 625 869 671 818 q 645 923 629 901 l 891 923 q 871 746 886 857 q 838 557 855 635 q 814 529 835 546 q 779 512 794 512 m 747 279 q 781 306 755 288 q 823 323 808 323 q 779 49 800 122 q 755 18 773 35 q 725 0 736 0 l 476 0 q 747 279 643 112 m 282 1145 q 414 1200 330 1200 q 509 1172 475 1200 q 544 1095 544 1145 q 497 1011 544 1046 q 388 976 451 976 q 290 1003 325 976 q 256 1073 256 1030 q 282 1145 256 1116 m 659 1145 q 780 1200 708 1200 q 887 1173 852 1200 q 921 1096 921 1145 q 874 1011 921 1046 q 765 976 828 976 q 667 1003 702 976 q 633 1073 633 1030 q 659 1145 633 1116 z "},"Ì":{"ha":578,"x_min":49,"x_max":587,"o":"m 364 0 l 49 0 q 181 879 142 405 q 203 905 181 888 q 241 923 225 923 l 556 923 q 423 45 462 522 q 401 18 423 36 q 364 0 380 0 m 566 990 q 172 1040 327 1007 q 197 1141 175 1080 q 243 1242 219 1202 q 587 1051 396 1171 q 566 990 579 1017 z "},"Í":{"ha":578,"x_min":49,"x_max":593,"o":"m 364 0 l 49 0 q 181 879 142 405 q 203 905 181 888 q 241 923 225 923 l 556 923 q 423 45 462 522 q 401 18 423 36 q 364 0 380 0 m 198 990 q 177 1051 185 1017 q 521 1242 368 1171 q 567 1141 545 1202 q 593 1040 589 1080 q 198 990 437 1007 z "},"Î":{"ha":578,"x_min":49,"x_max":701,"o":"m 364 0 l 49 0 q 181 879 142 405 q 203 905 181 888 q 241 923 225 923 l 556 923 q 423 45 462 522 q 401 18 423 36 q 364 0 380 0 m 100 991 q 68 1063 78 1023 q 366 1236 199 1150 l 435 1236 q 701 1063 561 1162 q 661 991 686 1021 q 382 1036 497 1012 q 100 991 231 1009 z "},"Ï":{"ha":578,"x_min":49,"x_max":715,"o":"m 364 0 l 49 0 q 181 879 142 405 q 203 905 181 888 q 241 923 225 923 l 556 923 q 423 45 462 522 q 401 18 423 36 q 364 0 380 0 m 76 1145 q 209 1200 125 1200 q 304 1172 269 1200 q 338 1095 338 1145 q 292 1011 338 1046 q 182 976 245 976 q 85 1003 119 976 q 50 1073 50 1030 q 76 1145 50 1116 m 454 1145 q 575 1200 503 1200 q 681 1173 647 1200 q 715 1096 715 1145 q 669 1011 715 1046 q 559 976 623 976 q 462 1003 496 976 q 427 1073 427 1030 q 454 1145 427 1116 z "},"Ð":{"ha":1156,"x_min":51,"x_max":1073,"o":"m 405 -5 q 97 3 288 -5 q 168 356 138 166 q 51 339 99 347 l 51 361 q 66 399 51 378 q 90 420 81 420 q 178 422 132 420 q 229 871 210 631 q 251 897 229 880 q 289 915 273 913 q 598 932 491 932 q 508 441 544 697 q 622 460 576 448 l 622 432 q 607 394 622 416 q 584 373 593 373 q 498 372 539 373 q 465 40 478 210 q 443 13 465 31 q 405 -5 421 -5 m 506 -14 q 616 126 566 29 q 697 347 667 223 q 726 589 726 470 q 653 886 726 777 q 675 915 653 897 q 712 933 696 933 q 851 903 785 933 q 966 819 918 873 q 1044 687 1015 766 q 1073 521 1073 608 q 1052 358 1073 434 q 984 214 1030 282 q 873 96 939 146 q 713 16 808 45 q 506 -14 618 -14 z "},"Ñ":{"ha":1041,"x_min":79,"x_max":989,"o":"m 857 45 q 835 18 857 36 q 798 0 813 0 l 623 0 q 418 317 546 139 q 185 614 290 494 q 212 879 194 687 q 236 906 214 888 q 271 923 257 923 l 448 923 q 641 623 538 764 q 881 313 744 481 q 857 45 863 151 m 845 432 q 786 695 812 600 q 713 879 759 791 q 735 905 713 888 q 774 923 758 923 l 989 923 q 905 477 944 727 q 883 450 905 468 q 845 432 861 432 m 222 482 q 270 244 239 340 q 355 45 300 148 q 333 18 355 36 q 295 0 311 0 l 79 0 q 162 437 125 197 q 184 464 162 446 q 222 482 206 482 m 355 1019 q 351 1056 351 1038 q 353 1090 351 1074 q 442 1172 394 1154 q 528 1187 483 1187 q 671 1163 574 1187 q 810 1139 768 1139 q 897 1143 852 1139 q 901 1106 901 1123 q 899 1073 901 1089 q 818 994 861 1013 q 726 975 775 975 q 579 999 677 975 q 441 1023 481 1023 q 355 1019 400 1023 z "},"Ò":{"ha":1041,"x_min":83,"x_max":986,"o":"m 467 -14 q 615 228 566 69 q 663 562 663 387 q 627 879 663 737 q 649 906 627 888 q 687 924 671 924 q 854 842 785 905 q 986 509 986 722 q 905 217 986 347 q 656 16 814 71 q 467 -14 570 -14 m 602 941 q 454 699 503 857 q 405 365 405 541 q 442 49 405 189 q 420 21 442 39 q 382 3 398 3 q 156 152 233 33 q 83 417 83 267 q 164 711 83 579 q 412 910 254 855 q 602 941 499 941 m 791 990 q 396 1040 551 1007 q 421 1141 399 1080 q 468 1242 444 1202 q 812 1051 621 1171 q 791 990 804 1017 z "},"Ó":{"ha":1041,"x_min":83,"x_max":986,"o":"m 467 -14 q 615 228 566 69 q 663 562 663 387 q 627 879 663 737 q 649 906 627 888 q 687 924 671 924 q 854 842 785 905 q 986 509 986 722 q 905 217 986 347 q 656 16 814 71 q 467 -14 570 -14 m 602 941 q 454 699 503 857 q 405 365 405 541 q 442 49 405 189 q 420 21 442 39 q 382 3 398 3 q 156 152 233 33 q 83 417 83 267 q 164 711 83 579 q 412 910 254 855 q 602 941 499 941 m 422 990 q 401 1051 410 1017 q 745 1242 593 1171 q 792 1141 770 1202 q 817 1040 814 1080 q 422 990 662 1007 z "},"Ô":{"ha":1041,"x_min":83,"x_max":986,"o":"m 467 -14 q 615 228 566 69 q 663 562 663 387 q 627 879 663 737 q 649 906 627 888 q 687 924 671 924 q 854 842 785 905 q 986 509 986 722 q 905 217 986 347 q 656 16 814 71 q 467 -14 570 -14 m 602 941 q 454 699 503 857 q 405 365 405 541 q 442 49 405 189 q 420 21 442 39 q 382 3 398 3 q 156 152 233 33 q 83 417 83 267 q 164 711 83 579 q 412 910 254 855 q 602 941 499 941 m 325 991 q 292 1063 302 1023 q 590 1236 424 1150 l 659 1236 q 926 1063 785 1162 q 885 991 911 1021 q 606 1036 722 1012 q 325 991 455 1009 z "},"Õ":{"ha":1041,"x_min":83,"x_max":986,"o":"m 467 -14 q 615 228 566 69 q 663 562 663 387 q 627 879 663 737 q 649 906 627 888 q 687 924 671 924 q 854 842 785 905 q 986 509 986 722 q 905 217 986 347 q 656 16 814 71 q 467 -14 570 -14 m 602 941 q 454 699 503 857 q 405 365 405 541 q 442 49 405 189 q 420 21 442 39 q 382 3 398 3 q 156 152 233 33 q 83 417 83 267 q 164 711 83 579 q 412 910 254 855 q 602 941 499 941 m 338 1019 q 334 1056 334 1038 q 336 1090 334 1074 q 426 1172 377 1154 q 511 1187 466 1187 q 654 1163 557 1187 q 793 1139 751 1139 q 880 1143 835 1139 q 884 1106 884 1123 q 882 1073 884 1089 q 801 994 844 1013 q 709 975 758 975 q 562 999 659 975 q 424 1023 464 1023 q 338 1019 383 1023 z "},"Ö":{"ha":1041,"x_min":83,"x_max":986,"o":"m 467 -14 q 615 228 566 69 q 663 562 663 387 q 627 879 663 737 q 649 906 627 888 q 687 924 671 924 q 854 842 785 905 q 986 509 986 722 q 905 217 986 347 q 656 16 814 71 q 467 -14 570 -14 m 602 941 q 454 699 503 857 q 405 365 405 541 q 442 49 405 189 q 420 21 442 39 q 382 3 398 3 q 156 152 233 33 q 83 417 83 267 q 164 711 83 579 q 412 910 254 855 q 602 941 499 941 m 301 1145 q 433 1200 349 1200 q 528 1172 494 1200 q 563 1095 563 1145 q 516 1011 563 1046 q 407 976 470 976 q 309 1003 344 976 q 275 1073 275 1030 q 301 1145 275 1116 m 678 1145 q 799 1200 727 1200 q 906 1173 871 1200 q 940 1096 940 1145 q 893 1011 940 1046 q 784 976 847 976 q 686 1003 721 976 q 652 1073 652 1030 q 678 1145 652 1116 z "},"×":{"ha":926,"x_min":102,"x_max":823,"o":"m 694 -12 l 661 -12 q 467 283 543 170 q 258 39 400 207 q 198 0 222 0 l 102 0 q 420 353 321 239 q 209 659 396 388 q 230 683 209 668 q 269 699 252 699 l 302 699 q 481 423 416 520 q 667 646 562 517 q 727 685 699 685 l 823 685 q 528 353 629 468 q 754 27 616 222 q 733 3 754 18 q 694 -12 711 -12 z "},"Ø":{"ha":1041,"x_min":26,"x_max":1040,"o":"m 467 -14 q 615 228 566 69 q 663 562 663 387 q 627 879 663 737 q 649 906 627 888 q 687 924 671 924 q 854 842 785 905 q 866 831 861 837 q 991 956 936 895 l 1024 918 q 1040 881 1040 899 q 1025 852 1040 863 q 918 767 976 815 q 986 509 986 662 q 905 217 986 347 q 656 16 814 71 q 467 -14 570 -14 m 602 941 q 454 699 503 857 q 405 365 405 541 q 442 49 405 189 q 420 21 442 39 q 382 3 398 3 q 193 104 265 26 q 75 -14 127 43 l 42 24 q 26 60 26 43 q 41 90 26 78 q 144 171 89 125 q 83 417 83 279 q 164 711 83 579 q 412 910 254 855 q 602 941 499 941 z "},"Ù":{"ha":1041,"x_min":144,"x_max":999,"o":"m 860 227 q 765 60 840 127 q 536 -14 682 -14 q 191 120 275 -14 q 144 311 144 194 q 176 581 144 389 q 207 878 207 774 q 229 905 207 888 q 266 923 250 923 l 589 923 q 484 260 484 431 q 644 96 484 96 q 766 133 707 96 q 860 227 825 169 m 814 264 q 792 611 814 468 q 711 878 770 755 q 732 905 711 888 q 770 923 754 923 l 999 923 q 873 310 920 564 q 850 282 871 300 q 814 264 829 264 m 873 990 q 478 1040 633 1007 q 504 1141 481 1080 q 550 1242 526 1202 q 894 1051 703 1171 q 873 990 886 1017 z "},"Ú":{"ha":1041,"x_min":144,"x_max":999,"o":"m 860 227 q 765 60 840 127 q 536 -14 682 -14 q 191 120 275 -14 q 144 311 144 194 q 176 581 144 389 q 207 878 207 774 q 229 905 207 888 q 266 923 250 923 l 589 923 q 484 260 484 431 q 644 96 484 96 q 766 133 707 96 q 860 227 825 169 m 814 264 q 792 611 814 468 q 711 878 770 755 q 732 905 711 888 q 770 923 754 923 l 999 923 q 873 310 920 564 q 850 282 871 300 q 814 264 829 264 m 505 990 q 484 1051 492 1017 q 827 1242 675 1171 q 874 1141 852 1202 q 899 1040 896 1080 q 505 990 744 1007 z "},"Û":{"ha":1041,"x_min":144,"x_max":1008,"o":"m 860 227 q 765 60 840 127 q 536 -14 682 -14 q 191 120 275 -14 q 144 311 144 194 q 176 581 144 389 q 207 878 207 774 q 229 905 207 888 q 266 923 250 923 l 589 923 q 484 260 484 431 q 644 96 484 96 q 766 133 707 96 q 860 227 825 169 m 814 264 q 792 611 814 468 q 711 878 770 755 q 732 905 711 888 q 770 923 754 923 l 999 923 q 873 310 920 564 q 850 282 871 300 q 814 264 829 264 m 407 991 q 374 1063 385 1023 q 672 1236 506 1150 l 741 1236 q 1008 1063 867 1162 q 967 991 993 1021 q 688 1036 804 1012 q 407 991 537 1009 z "},"Ü":{"ha":1041,"x_min":144,"x_max":1022,"o":"m 860 227 q 765 60 840 127 q 536 -14 682 -14 q 191 120 275 -14 q 144 311 144 194 q 176 581 144 389 q 207 878 207 774 q 229 905 207 888 q 266 923 250 923 l 589 923 q 484 260 484 431 q 644 96 484 96 q 766 133 707 96 q 860 227 825 169 m 814 264 q 792 611 814 468 q 711 878 770 755 q 732 905 711 888 q 770 923 754 923 l 999 923 q 873 310 920 564 q 850 282 871 300 q 814 264 829 264 m 382 1145 q 515 1200 431 1200 q 610 1172 576 1200 q 645 1095 645 1145 q 598 1011 645 1046 q 489 976 552 976 q 391 1003 426 976 q 357 1073 357 1030 q 382 1145 357 1116 m 760 1145 q 881 1200 809 1200 q 988 1173 954 1200 q 1022 1096 1022 1145 q 976 1011 1022 1046 q 866 976 929 976 q 768 1003 803 976 q 734 1073 734 1030 q 760 1145 734 1116 z "},"Ý":{"ha":926,"x_min":104,"x_max":963,"o":"m 523 0 l 223 0 q 260 238 248 128 q 104 879 204 537 q 125 905 104 888 q 163 923 146 923 l 478 923 q 616 267 512 573 q 583 45 596 173 q 561 18 583 36 q 523 0 539 0 m 685 412 q 660 384 680 401 q 626 367 641 367 q 688 824 688 598 q 687 879 688 861 q 709 905 687 888 q 747 923 731 923 l 963 923 q 685 412 861 764 m 414 990 q 393 1051 401 1017 q 737 1242 585 1171 q 784 1141 762 1202 q 809 1040 806 1080 q 414 990 654 1007 z "},"Þ":{"ha":975,"x_min":49,"x_max":951,"o":"m 480 168 q 588 336 549 242 q 627 535 627 429 q 572 743 627 642 q 594 771 572 753 q 631 789 616 789 q 866 702 781 779 q 951 503 951 624 q 916 363 951 429 q 823 255 881 298 q 543 163 701 163 q 480 168 504 163 m 364 0 l 49 0 q 181 879 142 405 q 203 905 181 888 q 241 923 225 923 l 556 923 q 423 45 462 522 q 401 18 423 36 q 364 0 380 0 z "},"ß":{"ha":1164,"x_min":31,"x_max":1121,"o":"m 431 45 q 409 18 431 36 q 372 0 387 0 l 87 0 q 153 426 111 102 q 45 455 106 444 q 35 488 39 465 q 31 525 31 511 q 172 573 114 549 q 180 628 179 624 q 290 866 202 786 q 543 945 378 945 q 882 861 707 945 q 892 793 890 833 q 802 795 862 795 q 689 785 743 795 q 597 756 635 774 q 531 710 559 739 q 488 649 504 681 q 462 572 472 616 q 448 485 452 528 q 443 386 445 442 q 441 242 441 330 q 431 45 441 155 m 892 715 q 853 636 853 678 q 873 550 853 593 q 923 473 893 507 q 987 403 952 439 q 1051 335 1022 366 q 1121 189 1121 262 q 1035 47 1121 100 q 795 -5 949 -5 q 812 66 812 34 q 798 129 812 98 q 760 188 783 161 q 709 242 736 214 q 653 298 681 269 q 601 355 625 326 q 549 494 549 422 q 637 657 549 602 q 892 715 725 712 m 621 -4 q 557 16 580 -4 q 534 73 534 37 q 567 133 534 109 q 640 157 601 157 q 702 136 678 157 q 725 81 725 115 q 694 22 725 47 q 621 -4 663 -4 z "},"à":{"ha":1042,"x_min":83,"x_max":958,"o":"m 882 27 q 598 -1 750 -1 q 564 97 564 45 q 594 358 564 149 q 625 637 625 568 q 648 664 625 646 q 685 682 670 682 q 958 643 830 682 q 922 470 956 621 q 889 228 889 319 q 938 88 889 137 q 919 57 938 79 q 882 27 900 35 m 568 691 q 446 529 488 631 q 404 328 404 427 q 426 151 404 229 q 486 46 448 73 q 464 18 486 36 q 427 0 442 0 q 177 78 271 0 q 83 291 83 156 q 210 572 83 458 q 364 659 271 627 q 568 691 456 691 m 782 777 q 398 855 551 803 q 441 975 406 897 q 503 1088 475 1053 q 815 848 656 989 q 782 777 805 806 z "},"á":{"ha":1042,"x_min":83,"x_max":958,"o":"m 882 27 q 598 -1 750 -1 q 564 97 564 45 q 594 358 564 149 q 625 637 625 568 q 648 664 625 646 q 685 682 670 682 q 958 643 830 682 q 922 470 956 621 q 889 228 889 319 q 938 88 889 137 q 919 57 938 79 q 882 27 900 35 m 568 691 q 446 529 488 631 q 404 328 404 427 q 426 151 404 229 q 486 46 448 73 q 464 18 486 36 q 427 0 442 0 q 177 78 271 0 q 83 291 83 156 q 210 572 83 458 q 364 659 271 627 q 568 691 456 691 m 415 777 q 382 848 392 806 q 694 1088 541 989 q 756 975 722 1053 q 799 855 791 897 q 415 777 646 803 z "},"â":{"ha":1042,"x_min":83,"x_max":958,"o":"m 882 27 q 598 -1 750 -1 q 564 97 564 45 q 594 358 564 149 q 625 637 625 568 q 648 664 625 646 q 685 682 670 682 q 958 643 830 682 q 922 470 956 621 q 889 228 889 319 q 938 88 889 137 q 919 57 938 79 q 882 27 900 35 m 568 691 q 446 529 488 631 q 404 328 404 427 q 426 151 404 229 q 486 46 448 73 q 464 18 486 36 q 427 0 442 0 q 177 78 271 0 q 83 291 83 156 q 210 572 83 458 q 364 659 271 627 q 568 691 456 691 m 328 841 q 578 1082 449 979 l 648 1082 q 742 978 710 1018 q 840 841 774 937 q 785 770 823 804 q 595 863 666 825 q 368 770 496 820 q 328 841 339 800 z "},"ã":{"ha":1042,"x_min":83,"x_max":958,"o":"m 882 27 q 598 -1 750 -1 q 564 97 564 45 q 594 358 564 149 q 625 637 625 568 q 648 664 625 646 q 685 682 670 682 q 958 643 830 682 q 922 470 956 621 q 889 228 889 319 q 938 88 889 137 q 919 57 938 79 q 882 27 900 35 m 568 691 q 446 529 488 631 q 404 328 404 427 q 426 151 404 229 q 486 46 448 73 q 464 18 486 36 q 427 0 442 0 q 177 78 271 0 q 83 291 83 156 q 210 572 83 458 q 364 659 271 627 q 568 691 456 691 m 682 783 q 560 824 629 783 q 447 865 491 865 q 357 861 402 865 q 353 897 353 879 q 355 931 353 916 q 533 1056 434 1056 q 600 1042 572 1056 q 654 1014 629 1028 q 769 974 725 974 q 859 978 813 974 q 863 941 863 958 q 861 907 863 924 q 682 783 781 783 z "},"ä":{"ha":1042,"x_min":83,"x_max":958,"o":"m 882 27 q 598 -1 750 -1 q 564 97 564 45 q 594 358 564 149 q 625 637 625 568 q 648 664 625 646 q 685 682 670 682 q 958 643 830 682 q 922 470 956 621 q 889 228 889 319 q 938 88 889 137 q 919 57 938 79 q 882 27 900 35 m 568 691 q 446 529 488 631 q 404 328 404 427 q 426 151 404 229 q 486 46 448 73 q 464 18 486 36 q 427 0 442 0 q 177 78 271 0 q 83 291 83 156 q 210 572 83 458 q 364 659 271 627 q 568 691 456 691 m 293 947 q 425 1007 342 1007 q 520 977 485 1007 q 555 897 555 947 q 508 808 555 846 q 399 770 461 770 q 301 800 336 770 q 267 873 267 830 q 293 947 267 916 m 670 947 q 792 1007 721 1007 q 897 977 863 1007 q 932 897 932 947 q 885 808 932 846 q 776 770 838 770 q 679 800 713 770 q 644 873 644 830 q 670 947 644 916 z "},"å":{"ha":1042,"x_min":83,"x_max":958,"o":"m 882 27 q 598 -1 750 -1 q 564 97 564 45 q 594 358 564 149 q 625 637 625 568 q 648 664 625 646 q 685 682 670 682 q 958 643 830 682 q 922 470 956 621 q 889 228 889 319 q 938 88 889 137 q 919 57 938 79 q 882 27 900 35 m 568 691 q 446 529 488 631 q 404 328 404 427 q 426 151 404 229 q 486 46 448 73 q 464 18 486 36 q 427 0 442 0 q 177 78 271 0 q 83 291 83 156 q 210 572 83 458 q 364 659 271 627 q 568 691 456 691 m 597 960 q 551 944 572 960 q 529 903 529 927 q 544 864 529 878 q 585 850 559 850 q 632 868 612 850 q 652 909 652 886 q 637 946 652 932 q 597 960 622 960 m 479 1020 q 612 1065 541 1065 q 726 1024 683 1065 q 770 916 770 983 q 711 798 770 849 q 576 746 653 746 q 455 786 499 746 q 412 878 412 827 q 431 964 412 930 q 479 1020 450 999 z "},"æ":{"ha":1426,"x_min":83,"x_max":1375,"o":"m 1063 685 q 930 535 979 628 q 881 336 881 442 q 962 164 881 231 q 1200 98 1044 98 q 1291 105 1242 98 q 1168 21 1259 55 q 970 -12 1078 -12 q 790 15 863 -12 q 598 -1 697 -1 q 564 97 564 45 q 594 358 564 149 q 625 637 625 568 q 648 664 625 646 q 685 682 670 682 q 836 665 751 682 q 1000 691 910 691 q 1063 685 1035 691 m 568 691 q 446 529 488 631 q 404 328 404 427 q 426 151 404 229 q 486 46 448 73 q 464 18 486 36 q 427 0 442 0 q 177 78 271 0 q 83 291 83 156 q 210 572 83 458 q 364 659 271 627 q 568 691 456 691 m 1173 674 q 1323 594 1270 656 q 1375 453 1375 531 q 1292 304 1375 357 q 1076 250 1208 250 q 985 264 1034 250 q 1082 376 1050 306 q 1113 511 1113 446 q 1100 627 1113 577 q 1128 654 1100 635 q 1173 674 1156 673 z "},"ç":{"ha":930,"x_min":90,"x_max":877,"o":"m 705 671 q 830 600 783 654 q 877 491 877 546 q 829 411 877 437 q 732 385 781 385 q 636 403 684 385 q 641 519 641 467 q 632 627 641 572 q 660 656 634 642 q 705 671 685 671 m 590 689 q 473 542 519 635 q 427 365 427 449 q 447 231 427 281 q 505 150 467 180 q 696 90 578 90 q 824 105 756 90 q 687 13 768 38 q 487 -12 606 -12 q 281 24 368 -12 q 142 134 195 60 q 90 316 90 209 q 146 513 90 424 q 294 650 201 602 q 499 699 387 699 q 590 689 535 699 m 282 -203 q 414 -234 347 -234 q 482 -186 482 -234 q 400 -139 482 -139 q 362 -141 393 -139 q 340 -90 347 -121 q 416 -61 382 -68 q 515 -54 451 -54 q 625 -85 579 -54 q 671 -179 671 -116 q 625 -280 671 -243 q 477 -317 578 -317 q 284 -271 375 -317 q 281 -233 281 -255 q 282 -203 281 -211 z "},"è":{"ha":926,"x_min":77,"x_max":875,"o":"m 687 674 q 827 585 779 642 q 875 463 875 528 q 798 312 875 374 q 589 250 722 250 q 498 264 548 250 q 595 380 570 309 q 617 527 617 443 q 614 627 617 543 q 641 654 613 635 q 687 674 669 673 m 577 685 q 444 535 493 628 q 395 336 395 442 q 476 164 395 231 q 713 98 557 98 q 805 105 756 98 q 682 21 773 55 q 492 -12 591 -12 q 321 8 392 -12 q 196 67 251 28 q 109 170 140 106 q 77 310 77 233 q 100 448 77 386 q 165 553 124 509 q 262 629 207 597 q 513 691 371 691 q 577 685 549 691 m 719 777 q 335 855 488 803 q 378 975 343 897 q 439 1088 412 1053 q 752 848 593 989 q 719 777 742 806 z "},"é":{"ha":926,"x_min":77,"x_max":875,"o":"m 687 674 q 827 585 779 642 q 875 463 875 528 q 798 312 875 374 q 589 250 722 250 q 498 264 548 250 q 595 380 570 309 q 617 527 617 443 q 614 627 617 543 q 641 654 613 635 q 687 674 669 673 m 577 685 q 444 535 493 628 q 395 336 395 442 q 476 164 395 231 q 713 98 557 98 q 805 105 756 98 q 682 21 773 55 q 492 -12 591 -12 q 321 8 392 -12 q 196 67 251 28 q 109 170 140 106 q 77 310 77 233 q 100 448 77 386 q 165 553 124 509 q 262 629 207 597 q 513 691 371 691 q 577 685 549 691 m 352 777 q 319 848 329 806 q 631 1088 478 989 q 693 975 659 1053 q 736 855 728 897 q 352 777 583 803 z "},"ê":{"ha":926,"x_min":77,"x_max":875,"o":"m 687 674 q 827 585 779 642 q 875 463 875 528 q 798 312 875 374 q 589 250 722 250 q 498 264 548 250 q 595 380 570 309 q 617 527 617 443 q 614 627 617 543 q 641 654 613 635 q 687 674 669 673 m 577 685 q 444 535 493 628 q 395 336 395 442 q 476 164 395 231 q 713 98 557 98 q 805 105 756 98 q 682 21 773 55 q 492 -12 591 -12 q 321 8 392 -12 q 196 67 251 28 q 109 170 140 106 q 77 310 77 233 q 100 448 77 386 q 165 553 124 509 q 262 629 207 597 q 513 691 371 691 q 577 685 549 691 m 265 841 q 515 1082 386 979 l 585 1082 q 679 978 647 1018 q 777 841 711 937 q 722 770 760 804 q 532 863 603 825 q 304 770 433 820 q 265 841 276 800 z "},"ë":{"ha":926,"x_min":77,"x_max":875,"o":"m 687 674 q 827 585 779 642 q 875 463 875 528 q 798 312 875 374 q 589 250 722 250 q 498 264 548 250 q 595 380 570 309 q 617 527 617 443 q 614 627 617 543 q 641 654 613 635 q 687 674 669 673 m 577 685 q 444 535 493 628 q 395 336 395 442 q 476 164 395 231 q 713 98 557 98 q 805 105 756 98 q 682 21 773 55 q 492 -12 591 -12 q 321 8 392 -12 q 196 67 251 28 q 109 170 140 106 q 77 310 77 233 q 100 448 77 386 q 165 553 124 509 q 262 629 207 597 q 513 691 371 691 q 577 685 549 691 m 229 947 q 362 1007 279 1007 q 457 977 422 1007 q 492 897 492 947 q 445 808 492 846 q 336 770 398 770 q 238 800 273 770 q 203 873 203 830 q 229 947 203 916 m 607 947 q 729 1007 658 1007 q 834 977 800 1007 q 869 897 869 947 q 822 808 869 846 q 713 770 775 770 q 615 800 650 770 q 581 873 581 830 q 607 947 581 916 z "},"ì":{"ha":578,"x_min":66,"x_max":569,"o":"m 66 0 q 156 629 125 250 q 178 656 156 638 q 216 673 201 673 l 500 673 q 410 45 441 420 q 388 18 410 36 q 351 0 366 0 l 66 0 m 536 777 q 152 855 304 803 q 195 975 160 897 q 256 1088 229 1053 q 569 848 410 989 q 536 777 559 806 z "},"í":{"ha":578,"x_min":66,"x_max":553,"o":"m 66 0 q 156 629 125 250 q 178 656 156 638 q 216 673 201 673 l 500 673 q 410 45 441 420 q 388 18 410 36 q 351 0 366 0 l 66 0 m 170 777 q 136 848 146 806 q 449 1088 296 989 q 511 975 476 1053 q 553 855 545 897 q 170 777 401 803 z "},"î":{"ha":578,"x_min":66,"x_max":593,"o":"m 66 0 q 156 629 125 250 q 178 656 156 638 q 216 673 201 673 l 500 673 q 410 45 441 420 q 388 18 410 36 q 351 0 366 0 l 66 0 m 82 840 q 332 1081 203 979 l 401 1081 q 496 977 464 1017 q 593 840 528 937 q 539 769 577 804 q 349 863 420 825 q 121 769 250 819 q 82 840 93 800 z "},"ï":{"ha":578,"x_min":21,"x_max":686,"o":"m 66 0 q 156 629 125 250 q 178 656 156 638 q 216 673 201 673 l 500 673 q 410 45 441 420 q 388 18 410 36 q 351 0 366 0 l 66 0 m 47 947 q 180 1007 97 1007 q 274 977 239 1007 q 309 897 309 947 q 262 808 309 846 q 153 770 216 770 q 56 800 91 770 q 21 873 21 830 q 47 947 21 916 m 425 947 q 546 1007 475 1007 q 652 977 617 1007 q 686 897 686 947 q 640 808 686 846 q 530 770 593 770 q 433 800 468 770 q 398 873 398 830 q 425 947 398 916 z "},"ð":{"ha":958,"x_min":56,"x_max":877,"o":"m 420 -17 q 535 189 498 68 q 573 445 573 310 q 502 805 573 656 q 353 724 432 768 l 340 766 q 355 804 340 783 q 379 825 370 825 q 473 858 448 848 q 372 972 429 926 q 385 1000 372 983 q 413 1017 398 1017 q 618 918 517 998 q 778 1006 707 965 l 791 964 q 776 925 791 947 q 752 904 761 904 q 667 875 709 890 q 819 662 762 785 q 877 427 877 539 q 849 237 877 314 q 766 103 821 161 q 420 -17 651 -17 m 497 626 q 328 274 328 530 q 409 46 328 144 q 387 18 409 36 q 350 0 366 0 q 98 141 173 16 q 56 292 56 211 q 85 438 56 373 q 164 546 115 504 q 406 634 267 634 q 497 626 468 634 z "},"ñ":{"ha":1041,"x_min":64,"x_max":939,"o":"m 349 0 l 64 0 q 162 627 135 297 q 184 652 162 635 q 230 673 205 669 q 348 684 254 677 q 493 691 441 691 q 408 45 438 407 q 387 18 408 36 q 349 0 365 0 m 594 -7 q 555 91 555 31 q 585 319 555 151 q 615 526 615 487 q 596 582 615 565 q 548 600 578 600 q 571 661 554 640 q 650 683 596 673 q 750 693 704 693 q 885 652 840 693 q 930 521 930 610 q 909 345 930 471 q 887 190 887 218 q 889 147 887 161 q 893 125 892 133 q 903 106 895 117 q 912 93 910 96 q 926 80 914 91 q 939 66 937 68 q 920 35 939 57 q 884 6 900 13 q 594 -7 797 -7 m 665 783 q 543 824 612 783 q 430 865 474 865 q 340 861 385 865 q 336 897 336 879 q 338 931 336 916 q 516 1056 417 1056 q 583 1042 555 1056 q 637 1014 612 1028 q 752 974 708 974 q 842 978 796 974 q 846 941 846 958 q 844 907 846 924 q 665 783 764 783 z "},"ò":{"ha":1041,"x_min":90,"x_max":951,"o":"m 566 696 q 404 275 404 541 q 433 49 404 163 q 411 21 433 39 q 375 3 390 3 q 178 98 261 19 q 90 304 90 180 q 152 516 90 428 q 322 650 214 604 q 566 696 430 696 m 475 -6 q 637 415 637 150 q 608 642 637 528 q 630 669 608 652 q 666 687 651 687 q 863 593 780 671 q 951 386 951 510 q 889 175 951 262 q 719 40 827 87 q 475 -6 611 -6 m 760 777 q 376 855 528 803 q 418 975 384 897 q 480 1088 453 1053 q 793 848 633 989 q 760 777 783 806 z "},"ó":{"ha":1041,"x_min":90,"x_max":951,"o":"m 566 696 q 404 275 404 541 q 433 49 404 163 q 411 21 433 39 q 375 3 390 3 q 178 98 261 19 q 90 304 90 180 q 152 516 90 428 q 322 650 214 604 q 566 696 430 696 m 475 -6 q 637 415 637 150 q 608 642 637 528 q 630 669 608 652 q 666 687 651 687 q 863 593 780 671 q 951 386 951 510 q 889 175 951 262 q 719 40 827 87 q 475 -6 611 -6 m 393 777 q 359 848 370 806 q 672 1088 519 989 q 734 975 699 1053 q 777 855 768 897 q 393 777 624 803 z "},"ô":{"ha":1041,"x_min":90,"x_max":951,"o":"m 566 696 q 404 275 404 541 q 433 49 404 163 q 411 21 433 39 q 375 3 390 3 q 178 98 261 19 q 90 304 90 180 q 152 516 90 428 q 322 650 214 604 q 566 696 430 696 m 475 -6 q 637 415 637 150 q 608 642 637 528 q 630 669 608 652 q 666 687 651 687 q 863 593 780 671 q 951 386 951 510 q 889 175 951 262 q 719 40 827 87 q 475 -6 611 -6 m 306 841 q 556 1082 427 979 l 625 1082 q 720 978 688 1018 q 817 841 752 937 q 763 770 801 804 q 572 863 644 825 q 345 770 473 820 q 306 841 317 800 z "},"õ":{"ha":1041,"x_min":90,"x_max":951,"o":"m 566 696 q 404 275 404 541 q 433 49 404 163 q 411 21 433 39 q 375 3 390 3 q 178 98 261 19 q 90 304 90 180 q 152 516 90 428 q 322 650 214 604 q 566 696 430 696 m 475 -6 q 637 415 637 150 q 608 642 637 528 q 630 669 608 652 q 666 687 651 687 q 863 593 780 671 q 951 386 951 510 q 889 175 951 262 q 719 40 827 87 q 475 -6 611 -6 m 660 783 q 538 824 607 783 q 424 865 469 865 q 334 861 380 865 q 330 897 330 879 q 333 931 330 916 q 511 1056 412 1056 q 578 1042 549 1056 q 631 1014 606 1028 q 747 974 703 974 q 836 978 791 974 q 840 941 840 958 q 838 907 840 924 q 660 783 759 783 z "},"ö":{"ha":1041,"x_min":90,"x_max":951,"o":"m 566 696 q 404 275 404 541 q 433 49 404 163 q 411 21 433 39 q 375 3 390 3 q 178 98 261 19 q 90 304 90 180 q 152 516 90 428 q 322 650 214 604 q 566 696 430 696 m 475 -6 q 637 415 637 150 q 608 642 637 528 q 630 669 608 652 q 666 687 651 687 q 863 593 780 671 q 951 386 951 510 q 889 175 951 262 q 719 40 827 87 q 475 -6 611 -6 m 271 947 q 403 1007 320 1007 q 497 977 463 1007 q 532 897 532 947 q 486 808 532 846 q 376 770 439 770 q 279 800 314 770 q 244 873 244 830 q 271 947 244 916 m 648 947 q 769 1007 699 1007 q 875 977 840 1007 q 909 897 909 947 q 863 808 909 846 q 753 770 816 770 q 656 800 691 770 q 621 873 621 830 q 648 947 621 916 z "},"÷":{"ha":926,"x_min":140,"x_max":785,"o":"m 494 496 q 417 515 445 496 q 390 569 390 534 q 430 627 390 604 q 516 650 470 650 q 589 630 562 650 q 616 578 616 610 q 579 520 616 545 q 494 496 543 496 m 745 298 q 140 288 457 298 l 140 332 q 156 370 140 349 q 180 391 171 391 q 785 401 501 391 l 785 358 q 769 320 785 341 q 745 298 754 298 m 419 17 q 343 36 370 17 q 315 90 315 56 q 355 148 315 125 q 441 172 395 172 q 514 152 487 172 q 541 99 541 132 q 505 42 541 66 q 419 17 468 17 z "},"ø":{"ha":1041,"x_min":28,"x_max":964,"o":"m 566 696 q 404 275 404 541 q 433 49 404 163 q 411 21 433 39 q 375 3 390 3 q 184 91 266 18 q 77 -9 118 36 l 44 28 q 28 66 28 47 q 43 94 28 85 q 131 154 86 121 q 90 304 90 219 q 152 516 90 428 q 322 650 214 604 q 566 696 430 696 m 475 -6 q 637 415 637 150 q 608 642 637 528 q 630 669 608 652 q 666 687 651 687 q 809 635 745 676 q 915 734 873 689 l 947 696 q 964 658 964 677 q 948 630 964 640 q 875 581 912 607 q 951 386 951 500 q 889 175 951 262 q 719 40 827 87 q 475 -6 611 -6 z "},"ù":{"ha":1039,"x_min":106,"x_max":965,"o":"m 106 175 q 129 368 106 245 q 151 540 151 490 q 119 610 151 589 q 139 649 119 621 q 173 678 159 678 l 438 678 q 463 653 451 671 q 475 608 475 635 q 446 428 475 580 q 416 190 416 275 q 438 124 416 146 q 495 101 460 101 q 494 79 494 92 q 486 40 494 49 q 398 6 452 19 q 293 -6 343 -6 q 106 175 106 -6 m 618 1 q 564 94 564 39 q 593 340 564 149 q 630 633 622 532 q 652 660 630 642 q 690 678 674 678 l 965 678 q 906 382 928 521 q 884 194 884 244 q 896 120 884 144 q 936 75 909 96 q 916 43 936 65 q 880 14 897 21 q 618 1 793 1 m 771 777 q 387 855 540 803 q 430 975 395 897 q 492 1088 465 1053 q 804 848 645 989 q 771 777 794 806 z "},"ú":{"ha":1039,"x_min":106,"x_max":965,"o":"m 106 175 q 129 368 106 245 q 151 540 151 490 q 119 610 151 589 q 139 649 119 621 q 173 678 159 678 l 438 678 q 463 653 451 671 q 475 608 475 635 q 446 428 475 580 q 416 190 416 275 q 438 124 416 146 q 495 101 460 101 q 494 79 494 92 q 486 40 494 49 q 398 6 452 19 q 293 -6 343 -6 q 106 175 106 -6 m 618 1 q 564 94 564 39 q 593 340 564 149 q 630 633 622 532 q 652 660 630 642 q 690 678 674 678 l 965 678 q 906 382 928 521 q 884 194 884 244 q 896 120 884 144 q 936 75 909 96 q 916 43 936 65 q 880 14 897 21 q 618 1 793 1 m 404 777 q 371 848 381 806 q 684 1088 530 989 q 745 975 711 1053 q 788 855 780 897 q 404 777 635 803 z "},"û":{"ha":1039,"x_min":106,"x_max":965,"o":"m 106 175 q 129 368 106 245 q 151 540 151 490 q 119 610 151 589 q 139 649 119 621 q 173 678 159 678 l 438 678 q 463 653 451 671 q 475 608 475 635 q 446 428 475 580 q 416 190 416 275 q 438 124 416 146 q 495 101 460 101 q 494 79 494 92 q 486 40 494 49 q 398 6 452 19 q 293 -6 343 -6 q 106 175 106 -6 m 618 1 q 564 94 564 39 q 593 340 564 149 q 630 633 622 532 q 652 660 630 642 q 690 678 674 678 l 965 678 q 906 382 928 521 q 884 194 884 244 q 896 120 884 144 q 936 75 909 96 q 916 43 936 65 q 880 14 897 21 q 618 1 793 1 m 317 841 q 568 1082 438 979 l 637 1082 q 731 978 699 1018 q 829 841 764 937 q 774 770 812 804 q 584 863 655 825 q 357 770 485 820 q 317 841 328 800 z "},"ü":{"ha":1039,"x_min":106,"x_max":965,"o":"m 106 175 q 129 368 106 245 q 151 540 151 490 q 119 610 151 589 q 139 649 119 621 q 173 678 159 678 l 438 678 q 463 653 451 671 q 475 608 475 635 q 446 428 475 580 q 416 190 416 275 q 438 124 416 146 q 495 101 460 101 q 494 79 494 92 q 486 40 494 49 q 398 6 452 19 q 293 -6 343 -6 q 106 175 106 -6 m 618 1 q 564 94 564 39 q 593 340 564 149 q 630 633 622 532 q 652 660 630 642 q 690 678 674 678 l 965 678 q 906 382 928 521 q 884 194 884 244 q 896 120 884 144 q 936 75 909 96 q 916 43 936 65 q 880 14 897 21 q 618 1 793 1 m 282 947 q 414 1007 332 1007 q 509 977 474 1007 q 544 897 544 947 q 497 808 544 846 q 388 770 450 770 q 291 800 326 770 q 256 873 256 830 q 282 947 256 916 m 659 947 q 781 1007 710 1007 q 886 977 852 1007 q 921 897 921 947 q 874 808 921 846 q 765 770 827 770 q 668 800 703 770 q 633 873 633 830 q 659 947 633 916 z "},"ý":{"ha":1041,"x_min":85,"x_max":958,"o":"m 121 213 q 141 372 121 269 q 161 522 161 476 q 123 610 161 594 q 142 649 123 621 q 176 678 162 678 l 440 678 q 467 657 456 673 q 477 612 477 641 q 464 521 477 584 q 423 238 423 330 q 449 172 423 195 q 510 149 474 149 q 487 88 505 110 q 316 42 414 42 q 121 213 121 42 m 632 639 q 653 661 632 647 q 692 675 675 675 l 958 675 q 868 60 904 416 q 704 -274 841 -203 q 486 -317 621 -317 q 418 -314 465 -317 q 507 -154 476 -246 q 563 66 538 -61 q 610 368 587 193 q 633 581 632 543 q 632 639 633 618 m 282 -297 q 139 -256 193 -290 q 85 -174 85 -222 q 127 -93 85 -126 q 360 -28 211 -28 q 456 -36 408 -28 q 393 -119 417 -74 q 370 -196 370 -164 q 376 -252 370 -228 q 341 -279 376 -262 q 282 -297 307 -297 m 399 777 q 366 848 376 806 q 678 1088 525 989 q 740 975 705 1053 q 783 855 774 897 q 399 777 630 803 z "},"þ":{"ha":1041,"x_min":35,"x_max":958,"o":"m 488 0 q 576 100 539 33 q 646 382 646 227 q 572 646 646 538 q 593 673 572 656 q 630 691 614 691 q 794 654 720 691 q 913 547 868 618 q 958 383 958 476 q 831 106 958 213 q 488 0 705 0 m 380 -240 q 358 -267 380 -249 q 321 -284 336 -284 l 35 -284 q 145 351 112 131 q 208 894 178 570 q 229 921 208 903 q 267 939 251 939 l 552 939 q 446 345 479 576 q 380 -240 412 113 z "},"ÿ":{"ha":1041,"x_min":85,"x_max":958,"o":"m 121 213 q 141 372 121 269 q 161 522 161 476 q 123 610 161 594 q 142 649 123 621 q 176 678 162 678 l 440 678 q 467 657 456 673 q 477 612 477 641 q 464 521 477 584 q 423 238 423 330 q 449 172 423 195 q 510 149 474 149 q 487 88 505 110 q 316 42 414 42 q 121 213 121 42 m 632 639 q 653 661 632 647 q 692 675 675 675 l 958 675 q 868 60 904 416 q 704 -274 841 -203 q 486 -317 621 -317 q 418 -314 465 -317 q 507 -154 476 -246 q 563 66 538 -61 q 610 368 587 193 q 633 581 632 543 q 632 639 633 618 m 282 -297 q 139 -256 193 -290 q 85 -174 85 -222 q 127 -93 85 -126 q 360 -28 211 -28 q 456 -36 408 -28 q 393 -119 417 -74 q 370 -196 370 -164 q 376 -252 370 -228 q 341 -279 376 -262 q 282 -297 307 -297 m 277 947 q 409 1007 326 1007 q 504 977 469 1007 q 538 897 538 947 q 492 808 538 846 q 382 770 445 770 q 285 800 320 770 q 250 873 250 830 q 277 947 250 916 m 654 947 q 775 1007 705 1007 q 881 977 846 1007 q 916 897 916 947 q 869 808 916 846 q 760 770 822 770 q 662 800 697 770 q 627 873 627 830 q 654 947 627 916 z "},"Ā":{"ha":926,"x_min":-27,"x_max":848,"o":"m 789 0 l 473 0 q 340 732 420 422 q 407 879 379 812 q 432 906 412 889 q 466 923 452 923 l 682 923 q 756 467 709 718 q 848 45 804 216 q 827 18 848 36 q 789 0 805 0 m 247 120 l 249 45 q 227 18 249 36 q 189 0 205 0 l -27 0 q 305 666 80 182 q 311 617 311 648 q 302 526 311 585 q 279 385 293 466 q 258 254 264 304 q 399 220 355 239 q 386 160 399 180 q 247 142 315 154 l 247 120 m 754 1025 q 353 1015 513 1025 l 373 1163 q 390 1201 376 1180 q 412 1223 404 1222 q 814 1233 675 1223 l 793 1084 q 777 1046 791 1067 q 754 1025 762 1025 z "},"ā":{"ha":1042,"x_min":83,"x_max":958,"o":"m 882 27 q 598 -1 750 -1 q 564 97 564 45 q 594 358 564 149 q 625 637 625 568 q 648 664 625 646 q 685 682 670 682 q 958 643 830 682 q 922 470 956 621 q 889 228 889 319 q 938 88 889 137 q 919 57 938 79 q 882 27 900 35 m 568 691 q 446 529 488 631 q 404 328 404 427 q 426 151 404 229 q 486 46 448 73 q 464 18 486 36 q 427 0 442 0 q 177 78 271 0 q 83 291 83 156 q 210 572 83 458 q 364 659 271 627 q 568 691 456 691 m 773 825 q 372 815 532 825 l 392 964 q 409 1002 395 981 q 431 1023 423 1023 q 833 1034 694 1023 l 812 885 q 795 846 810 867 q 773 825 781 825 z "},"Ă":{"ha":926,"x_min":-27,"x_max":865,"o":"m 789 0 l 473 0 q 340 732 420 422 q 407 879 379 812 q 432 906 412 889 q 466 923 452 923 l 682 923 q 756 467 709 718 q 848 45 804 216 q 827 18 848 36 q 789 0 805 0 m 247 120 l 249 45 q 227 18 249 36 q 189 0 205 0 l -27 0 q 305 666 80 182 q 311 617 311 648 q 302 526 311 585 q 279 385 293 466 q 258 254 264 304 q 399 220 355 239 q 386 160 399 180 q 247 142 315 154 l 247 120 m 838 1257 q 865 1200 858 1230 q 753 1040 838 1097 q 568 983 669 983 q 394 1042 467 983 q 317 1217 317 1103 q 359 1274 330 1241 q 577 1174 425 1174 q 716 1196 646 1174 q 838 1257 786 1219 z "},"ă":{"ha":1042,"x_min":83,"x_max":958,"o":"m 882 27 q 598 -1 750 -1 q 564 97 564 45 q 594 358 564 149 q 625 637 625 568 q 648 664 625 646 q 685 682 670 682 q 958 643 830 682 q 922 470 956 621 q 889 228 889 319 q 938 88 889 137 q 919 57 938 79 q 882 27 900 35 m 568 691 q 446 529 488 631 q 404 328 404 427 q 426 151 404 229 q 486 46 448 73 q 464 18 486 36 q 427 0 442 0 q 177 78 271 0 q 83 291 83 156 q 210 572 83 458 q 364 659 271 627 q 568 691 456 691 m 840 1072 q 867 1015 860 1044 q 583 762 811 762 q 412 834 477 762 q 346 1031 346 906 q 389 1088 359 1055 q 590 943 451 943 q 840 1072 729 943 z "},"Ą":{"ha":926,"x_min":-27,"x_max":848,"o":"m 789 0 l 473 0 q 340 732 420 422 q 407 879 379 812 q 432 906 412 889 q 466 923 452 923 l 682 923 q 756 467 709 718 q 848 45 804 216 q 827 18 848 36 q 789 0 805 0 m 247 120 l 249 45 q 227 18 249 36 q 189 0 205 0 l -27 0 q 305 666 80 182 q 311 617 311 648 q 302 526 311 585 q 279 385 293 466 q 258 254 264 304 q 399 220 355 239 q 386 160 399 180 q 247 142 315 154 l 247 120 m 764 -308 q 559 -370 687 -370 q 369 -240 369 -370 q 416 -85 369 -160 q 516 45 455 -23 l 591 60 q 538 -111 538 -32 q 565 -189 538 -159 q 649 -218 592 -218 q 781 -190 706 -218 q 764 -308 776 -254 z "},"ą":{"ha":1042,"x_min":83,"x_max":958,"o":"m 882 27 q 704 2 797 9 q 672 -45 686 -22 q 640 -137 640 -99 q 668 -197 640 -176 q 748 -218 696 -218 q 873 -190 799 -218 q 857 -308 869 -254 q 652 -370 780 -370 q 462 -240 462 -370 q 576 -19 462 -136 q 596 1 585 -9 q 564 97 564 47 q 594 358 564 149 q 625 637 625 568 q 648 664 625 646 q 685 682 670 682 q 958 643 830 682 q 922 470 956 621 q 889 228 889 319 q 938 88 889 137 q 919 57 938 79 q 882 27 900 35 m 568 691 q 446 529 488 631 q 404 328 404 427 q 426 151 404 229 q 486 46 448 73 q 464 18 486 36 q 427 0 442 0 q 177 78 271 0 q 83 291 83 156 q 210 572 83 458 q 364 659 271 627 q 568 691 456 691 z "},"Ć":{"ha":1041,"x_min":97,"x_max":979,"o":"m 857 512 q 797 722 831 638 q 699 878 763 806 q 722 907 701 890 q 759 923 744 923 q 979 874 877 910 q 962 728 977 835 q 931 557 946 621 q 901 529 928 547 q 857 512 873 512 m 920 342 q 877 62 907 202 q 752 7 839 28 q 553 -14 665 -14 q 711 128 652 57 q 831 304 770 199 q 874 331 846 319 q 920 342 903 342 m 511 33 q 490 4 511 22 q 452 -14 468 -14 q 204 119 306 13 q 126 244 155 172 q 97 400 97 317 q 117 559 97 482 q 181 706 138 636 q 288 827 225 775 q 633 941 422 941 q 659 940 649 941 q 504 693 559 854 q 448 346 448 532 q 511 33 448 159 m 463 990 q 442 1051 450 1017 q 786 1242 633 1171 q 832 1141 810 1202 q 858 1040 854 1080 q 463 990 703 1007 z "},"ć":{"ha":930,"x_min":90,"x_max":877,"o":"m 705 671 q 830 600 783 654 q 877 491 877 546 q 829 411 877 437 q 732 385 781 385 q 636 403 684 385 q 641 519 641 467 q 632 627 641 572 q 660 656 634 642 q 705 671 685 671 m 590 689 q 473 542 519 635 q 427 365 427 449 q 447 231 427 281 q 505 150 467 180 q 696 90 578 90 q 824 105 756 90 q 687 13 768 38 q 487 -12 606 -12 q 281 24 368 -12 q 142 134 195 60 q 90 316 90 209 q 146 513 90 424 q 294 650 201 602 q 499 699 387 699 q 590 689 535 699 m 357 777 q 323 848 334 806 q 636 1088 483 989 q 698 975 663 1053 q 741 855 732 897 q 357 777 588 803 z "},"Ĉ":{"ha":1041,"x_min":97,"x_max":979,"o":"m 857 512 q 797 722 831 638 q 699 878 763 806 q 722 907 701 890 q 759 923 744 923 q 979 874 877 910 q 962 728 977 835 q 931 557 946 621 q 901 529 928 547 q 857 512 873 512 m 920 342 q 877 62 907 202 q 752 7 839 28 q 553 -14 665 -14 q 711 128 652 57 q 831 304 770 199 q 874 331 846 319 q 920 342 903 342 m 511 33 q 490 4 511 22 q 452 -14 468 -14 q 204 119 306 13 q 126 244 155 172 q 97 400 97 317 q 117 559 97 482 q 181 706 138 636 q 288 827 225 775 q 633 941 422 941 q 659 940 649 941 q 504 693 559 854 q 448 346 448 532 q 511 33 448 159 m 366 991 q 333 1063 343 1023 q 631 1236 465 1150 l 700 1236 q 966 1063 826 1162 q 926 991 951 1021 q 647 1036 762 1012 q 366 991 496 1009 z "},"ĉ":{"ha":930,"x_min":90,"x_max":877,"o":"m 705 671 q 830 600 783 654 q 877 491 877 546 q 829 411 877 437 q 732 385 781 385 q 636 403 684 385 q 641 519 641 467 q 632 627 641 572 q 660 656 634 642 q 705 671 685 671 m 590 689 q 473 542 519 635 q 427 365 427 449 q 447 231 427 281 q 505 150 467 180 q 696 90 578 90 q 824 105 756 90 q 687 13 768 38 q 487 -12 606 -12 q 281 24 368 -12 q 142 134 195 60 q 90 316 90 209 q 146 513 90 424 q 294 650 201 602 q 499 699 387 699 q 590 689 535 699 m 270 840 q 520 1081 391 979 l 589 1081 q 684 977 652 1017 q 781 840 716 937 q 727 769 765 804 q 536 863 608 825 q 309 769 437 819 q 270 840 281 800 z "},"Ċ":{"ha":1041,"x_min":97,"x_max":979,"o":"m 857 512 q 797 722 831 638 q 699 878 763 806 q 722 907 701 890 q 759 923 744 923 q 979 874 877 910 q 962 728 977 835 q 931 557 946 621 q 901 529 928 547 q 857 512 873 512 m 920 342 q 877 62 907 202 q 752 7 839 28 q 553 -14 665 -14 q 711 128 652 57 q 831 304 770 199 q 874 331 846 319 q 920 342 903 342 m 511 33 q 490 4 511 22 q 452 -14 468 -14 q 204 119 306 13 q 126 244 155 172 q 97 400 97 317 q 117 559 97 482 q 181 706 138 636 q 288 827 225 775 q 633 941 422 941 q 659 940 649 941 q 504 693 559 854 q 448 346 448 532 q 511 33 448 159 m 529 1181 q 669 1240 582 1240 q 768 1210 732 1240 q 805 1129 805 1179 q 756 1041 805 1080 q 641 1003 707 1003 q 539 1033 576 1003 q 502 1106 502 1063 q 529 1181 502 1149 z "},"ċ":{"ha":930,"x_min":90,"x_max":877,"o":"m 705 671 q 830 600 783 654 q 877 491 877 546 q 829 411 877 437 q 732 385 781 385 q 636 403 684 385 q 641 519 641 467 q 632 627 641 572 q 660 656 634 642 q 705 671 685 671 m 590 689 q 473 542 519 635 q 427 365 427 449 q 447 231 427 281 q 505 150 467 180 q 696 90 578 90 q 824 105 756 90 q 687 13 768 38 q 487 -12 606 -12 q 281 24 368 -12 q 142 134 195 60 q 90 316 90 209 q 146 513 90 424 q 294 650 201 602 q 499 699 387 699 q 590 689 535 699 m 412 947 q 552 1007 465 1007 q 652 977 615 1007 q 688 896 688 946 q 639 808 688 846 q 525 770 590 770 q 422 800 459 770 q 385 873 385 830 q 412 947 385 916 z "},"Č":{"ha":1041,"x_min":97,"x_max":979,"o":"m 857 512 q 797 722 831 638 q 699 878 763 806 q 722 907 701 890 q 759 923 744 923 q 979 874 877 910 q 962 728 977 835 q 931 557 946 621 q 901 529 928 547 q 857 512 873 512 m 920 342 q 877 62 907 202 q 752 7 839 28 q 553 -14 665 -14 q 711 128 652 57 q 831 304 770 199 q 874 331 846 319 q 920 342 903 342 m 511 33 q 490 4 511 22 q 452 -14 468 -14 q 204 119 306 13 q 126 244 155 172 q 97 400 97 317 q 117 559 97 482 q 181 706 138 636 q 288 827 225 775 q 633 941 422 941 q 659 940 649 941 q 504 693 559 854 q 448 346 448 532 q 511 33 448 159 m 929 1236 q 962 1164 951 1204 q 664 991 830 1077 l 595 991 q 328 1164 469 1065 q 369 1236 343 1206 q 648 1192 520 1217 q 929 1236 794 1217 z "},"č":{"ha":930,"x_min":90,"x_max":877,"o":"m 705 671 q 830 600 783 654 q 877 491 877 546 q 829 411 877 437 q 732 385 781 385 q 636 403 684 385 q 641 519 641 467 q 632 627 641 572 q 660 656 634 642 q 705 671 685 671 m 590 689 q 473 542 519 635 q 427 365 427 449 q 447 231 427 281 q 505 150 467 180 q 696 90 578 90 q 824 105 756 90 q 687 13 768 38 q 487 -12 606 -12 q 281 24 368 -12 q 142 134 195 60 q 90 316 90 209 q 146 513 90 424 q 294 650 201 602 q 499 699 387 699 q 590 689 535 699 m 807 1017 q 557 777 686 879 l 488 777 q 393 881 425 840 q 296 1017 361 921 q 350 1088 312 1054 q 540 995 457 1038 q 768 1088 641 1039 q 807 1017 796 1058 z "},"Ď":{"ha":1156,"x_min":97,"x_max":1073,"o":"m 506 -14 q 616 126 566 29 q 697 347 667 223 q 726 589 726 470 q 653 886 726 777 q 675 915 653 897 q 712 933 696 933 q 851 903 785 933 q 966 819 918 873 q 1044 687 1015 766 q 1073 521 1073 608 q 1052 358 1073 434 q 984 214 1030 282 q 873 96 939 146 q 713 16 808 45 q 506 -14 618 -14 m 405 -5 q 97 3 288 -5 q 229 871 189 371 q 251 897 229 880 q 289 915 273 913 q 598 932 491 932 q 465 40 503 519 q 443 13 465 31 q 405 -5 421 -5 m 901 1236 q 934 1164 924 1204 q 636 991 802 1077 l 567 991 q 300 1164 441 1065 q 341 1236 315 1206 q 620 1192 492 1217 q 901 1236 766 1217 z "},"ď":{"ha":1097,"x_min":83,"x_max":1194,"o":"m 998 632 q 1025 779 1010 688 q 1041 886 1040 871 q 1063 919 1042 901 q 1101 937 1085 937 l 1194 937 q 1175 845 1186 901 q 1158 766 1163 788 q 1143 712 1153 743 q 1123 672 1133 682 q 1096 650 1114 662 q 998 632 1069 632 m 566 691 q 445 529 485 631 q 404 328 404 427 q 426 151 404 229 q 486 46 448 73 q 464 18 486 36 q 427 0 442 0 q 178 81 273 0 q 83 298 83 161 q 210 575 83 463 q 362 660 271 629 q 566 691 454 691 m 877 46 q 855 18 877 37 q 817 0 833 0 l 545 0 q 609 413 574 125 q 661 894 644 701 q 682 921 661 903 q 720 939 704 939 l 1005 939 q 930 508 969 789 q 877 46 892 227 z "},"Đ":{"ha":1156,"x_min":51,"x_max":1073,"o":"m 405 -5 q 97 3 288 -5 q 168 356 138 166 q 51 339 99 347 l 51 361 q 66 399 51 378 q 90 420 81 420 q 178 422 132 420 q 229 871 210 631 q 251 897 229 880 q 289 915 273 913 q 598 932 491 932 q 508 441 544 697 q 622 460 576 448 l 622 432 q 607 394 622 416 q 584 373 593 373 q 498 372 539 373 q 465 40 478 210 q 443 13 465 31 q 405 -5 421 -5 m 506 -14 q 616 126 566 29 q 697 347 667 223 q 726 589 726 470 q 653 886 726 777 q 675 915 653 897 q 712 933 696 933 q 851 903 785 933 q 966 819 918 873 q 1044 687 1015 766 q 1073 521 1073 608 q 1052 358 1073 434 q 984 214 1030 282 q 873 96 939 146 q 713 16 808 45 q 506 -14 618 -14 z "},"đ":{"ha":1042,"x_min":83,"x_max":1095,"o":"m 877 46 q 855 18 877 37 q 817 0 833 0 l 545 0 q 609 413 574 125 q 648 768 633 614 q 524 751 574 760 l 524 772 q 539 811 524 789 q 564 832 555 832 q 655 834 606 832 q 661 894 658 865 q 682 921 661 903 q 720 939 704 939 l 1005 939 q 986 853 996 900 q 1095 871 1052 860 l 1095 844 q 1081 806 1095 827 q 1057 785 1066 785 q 973 783 1013 785 q 930 508 952 667 q 877 46 892 227 m 566 691 q 445 529 485 631 q 404 328 404 427 q 426 151 404 229 q 486 46 448 73 q 464 18 486 36 q 427 0 442 0 q 178 81 273 0 q 83 298 83 161 q 210 575 83 463 q 362 660 271 629 q 566 691 454 691 z "},"Ē":{"ha":925,"x_min":63,"x_max":891,"o":"m 487 469 q 723 429 648 452 q 707 374 723 392 q 469 339 596 368 q 438 45 450 197 q 416 18 438 36 q 379 0 395 0 l 63 0 q 197 879 154 329 q 220 905 197 888 q 258 923 242 923 l 572 923 q 487 469 521 699 m 779 512 q 717 716 762 614 q 625 869 671 818 q 645 923 629 901 l 891 923 q 871 746 886 857 q 838 557 855 635 q 814 529 835 546 q 779 512 794 512 m 747 279 q 781 306 755 288 q 823 323 808 323 q 779 49 800 122 q 755 18 773 35 q 725 0 736 0 l 476 0 q 747 279 643 112 m 763 1025 q 361 1015 522 1025 l 382 1163 q 399 1201 385 1180 q 421 1223 413 1222 q 823 1233 684 1223 l 802 1084 q 785 1046 800 1067 q 763 1025 771 1025 z "},"ē":{"ha":926,"x_min":77,"x_max":875,"o":"m 687 674 q 827 585 779 642 q 875 463 875 528 q 798 312 875 374 q 589 250 722 250 q 498 264 548 250 q 595 380 570 309 q 617 527 617 443 q 614 627 617 543 q 641 654 613 635 q 687 674 669 673 m 577 685 q 444 535 493 628 q 395 336 395 442 q 476 164 395 231 q 713 98 557 98 q 805 105 756 98 q 682 21 773 55 q 492 -12 591 -12 q 321 8 392 -12 q 196 67 251 28 q 109 170 140 106 q 77 310 77 233 q 100 448 77 386 q 165 553 124 509 q 262 629 207 597 q 513 691 371 691 q 577 685 549 691 m 710 825 q 309 815 469 825 l 329 964 q 346 1002 332 981 q 368 1023 360 1023 q 770 1034 631 1023 l 749 885 q 732 846 747 867 q 710 825 718 825 z "},"Ĕ":{"ha":925,"x_min":63,"x_max":891,"o":"m 487 469 q 723 429 648 452 q 707 374 723 392 q 469 339 596 368 q 438 45 450 197 q 416 18 438 36 q 379 0 395 0 l 63 0 q 197 879 154 329 q 220 905 197 888 q 258 923 242 923 l 572 923 q 487 469 521 699 m 779 512 q 717 716 762 614 q 625 869 671 818 q 645 923 629 901 l 891 923 q 871 746 886 857 q 838 557 855 635 q 814 529 835 546 q 779 512 794 512 m 747 279 q 781 306 755 288 q 823 323 808 323 q 779 49 800 122 q 755 18 773 35 q 725 0 736 0 l 476 0 q 747 279 643 112 m 847 1257 q 874 1200 867 1230 q 762 1040 846 1097 q 577 983 677 983 q 403 1042 475 983 q 326 1217 326 1103 q 368 1274 338 1241 q 586 1174 433 1174 q 725 1196 654 1174 q 847 1257 795 1219 z "},"ĕ":{"ha":926,"x_min":77,"x_max":875,"o":"m 687 674 q 827 585 779 642 q 875 463 875 528 q 798 312 875 374 q 589 250 722 250 q 498 264 548 250 q 595 380 570 309 q 617 527 617 443 q 614 627 617 543 q 641 654 613 635 q 687 674 669 673 m 577 685 q 444 535 493 628 q 395 336 395 442 q 476 164 395 231 q 713 98 557 98 q 805 105 756 98 q 682 21 773 55 q 492 -12 591 -12 q 321 8 392 -12 q 196 67 251 28 q 109 170 140 106 q 77 310 77 233 q 100 448 77 386 q 165 553 124 509 q 262 629 207 597 q 513 691 371 691 q 577 685 549 691 m 777 1072 q 804 1015 797 1044 q 520 762 748 762 q 349 834 414 762 q 283 1031 283 906 q 326 1088 296 1055 q 527 943 388 943 q 777 1072 666 943 z "},"Ė":{"ha":925,"x_min":63,"x_max":891,"o":"m 487 469 q 723 429 648 452 q 707 374 723 392 q 469 339 596 368 q 438 45 450 197 q 416 18 438 36 q 379 0 395 0 l 63 0 q 197 879 154 329 q 220 905 197 888 q 258 923 242 923 l 572 923 q 487 469 521 699 m 779 512 q 717 716 762 614 q 625 869 671 818 q 645 923 629 901 l 891 923 q 871 746 886 857 q 838 557 855 635 q 814 529 835 546 q 779 512 794 512 m 747 279 q 781 306 755 288 q 823 323 808 323 q 779 49 800 122 q 755 18 773 35 q 725 0 736 0 l 476 0 q 747 279 643 112 m 469 1181 q 609 1240 522 1240 q 709 1210 672 1240 q 745 1129 745 1179 q 696 1041 745 1080 q 582 1003 647 1003 q 479 1033 516 1003 q 442 1106 442 1063 q 469 1181 442 1149 z "},"ė":{"ha":926,"x_min":77,"x_max":875,"o":"m 687 674 q 827 585 779 642 q 875 463 875 528 q 798 312 875 374 q 589 250 722 250 q 498 264 548 250 q 595 380 570 309 q 617 527 617 443 q 614 627 617 543 q 641 654 613 635 q 687 674 669 673 m 577 685 q 444 535 493 628 q 395 336 395 442 q 476 164 395 231 q 713 98 557 98 q 805 105 756 98 q 682 21 773 55 q 492 -12 591 -12 q 321 8 392 -12 q 196 67 251 28 q 109 170 140 106 q 77 310 77 233 q 100 448 77 386 q 165 553 124 509 q 262 629 207 597 q 513 691 371 691 q 577 685 549 691 m 408 947 q 547 1007 460 1007 q 647 977 610 1007 q 684 896 684 946 q 634 808 684 846 q 520 770 585 770 q 417 800 454 770 q 380 873 380 830 q 408 947 380 916 z "},"Ę":{"ha":925,"x_min":63,"x_max":891,"o":"m 487 469 q 723 429 648 452 q 707 374 723 392 q 469 339 596 368 q 438 45 450 197 q 416 18 438 36 q 379 0 395 0 l 63 0 q 197 879 154 329 q 220 905 197 888 q 258 923 242 923 l 572 923 q 487 469 521 699 m 747 279 q 781 306 755 288 q 823 323 808 323 q 779 49 800 122 q 755 18 773 35 q 725 0 736 0 l 585 0 q 551 -44 567 -22 q 513 -137 513 -98 q 542 -197 513 -176 q 621 -218 570 -218 q 747 -190 673 -218 q 730 -308 742 -254 q 525 -370 653 -370 q 335 -240 335 -370 q 398 -81 335 -163 q 538 45 462 0 q 747 279 663 144 m 779 512 q 717 716 762 614 q 625 869 671 818 q 645 923 629 901 l 891 923 q 871 746 886 857 q 838 557 855 635 q 814 529 835 546 q 779 512 794 512 z "},"ę":{"ha":926,"x_min":77,"x_max":875,"o":"m 577 685 q 444 535 493 628 q 395 336 395 442 q 476 164 395 231 q 713 98 557 98 q 805 105 756 98 q 682 21 773 55 q 505 -12 597 -9 q 572 23 536 7 l 703 30 q 583 -50 637 5 q 528 -142 528 -105 q 628 -218 528 -218 q 762 -190 688 -218 q 745 -308 757 -254 q 540 -370 668 -370 q 350 -240 350 -370 q 415 -89 350 -161 q 505 -12 456 -45 l 492 -12 q 321 8 392 -12 q 196 67 251 28 q 109 170 140 106 q 77 310 77 233 q 100 448 77 386 q 165 553 124 509 q 262 629 207 597 q 513 691 371 691 q 577 685 549 691 m 687 674 q 827 585 779 642 q 875 463 875 528 q 798 312 875 374 q 589 250 722 250 q 498 264 548 250 q 595 380 570 309 q 617 527 617 443 q 614 627 617 543 q 641 654 613 635 q 687 674 669 673 z "},"Ě":{"ha":925,"x_min":63,"x_max":902,"o":"m 487 469 q 723 429 648 452 q 707 374 723 392 q 469 339 596 368 q 438 45 450 197 q 416 18 438 36 q 379 0 395 0 l 63 0 q 197 879 154 329 q 220 905 197 888 q 258 923 242 923 l 572 923 q 487 469 521 699 m 779 512 q 717 716 762 614 q 625 869 671 818 q 645 923 629 901 l 891 923 q 871 746 886 857 q 838 557 855 635 q 814 529 835 546 q 779 512 794 512 m 747 279 q 781 306 755 288 q 823 323 808 323 q 779 49 800 122 q 755 18 773 35 q 725 0 736 0 l 476 0 q 747 279 643 112 m 869 1236 q 902 1164 892 1204 q 604 991 770 1077 l 535 991 q 269 1164 409 1065 q 309 1236 283 1206 q 588 1192 460 1217 q 869 1236 734 1217 z "},"ě":{"ha":926,"x_min":77,"x_max":875,"o":"m 687 674 q 827 585 779 642 q 875 463 875 528 q 798 312 875 374 q 589 250 722 250 q 498 264 548 250 q 595 380 570 309 q 617 527 617 443 q 614 627 617 543 q 641 654 613 635 q 687 674 669 673 m 577 685 q 444 535 493 628 q 395 336 395 442 q 476 164 395 231 q 713 98 557 98 q 805 105 756 98 q 682 21 773 55 q 492 -12 591 -12 q 321 8 392 -12 q 196 67 251 28 q 109 170 140 106 q 77 310 77 233 q 100 448 77 386 q 165 553 124 509 q 262 629 207 597 q 513 691 371 691 q 577 685 549 691 m 802 1017 q 552 777 682 879 l 483 777 q 388 881 420 840 q 291 1017 356 921 q 345 1088 307 1054 q 535 995 452 1038 q 763 1088 636 1039 q 802 1017 791 1058 z "},"Ĝ":{"ha":1041,"x_min":97,"x_max":979,"o":"m 564 355 q 577 394 566 372 q 600 416 587 416 q 951 424 749 424 q 897 77 932 222 q 863 46 889 66 q 827 21 838 26 q 709 -2 788 9 q 553 -14 629 -14 q 661 100 605 14 q 717 233 717 186 q 667 317 717 280 q 564 355 618 355 m 857 512 q 797 722 831 638 q 699 878 763 806 q 722 907 701 890 q 759 923 744 923 q 979 874 878 910 q 962 728 978 836 q 931 557 946 621 q 901 529 928 547 q 857 512 873 512 m 511 33 q 490 4 511 22 q 452 -14 469 -14 q 204 119 306 13 q 126 244 155 172 q 97 400 97 317 q 117 559 97 482 q 181 706 138 636 q 287 827 225 775 q 438 910 349 880 q 633 941 528 941 q 659 940 649 941 q 504 693 559 854 q 448 346 448 532 q 511 33 448 160 m 366 991 q 334 1063 344 1023 q 631 1236 465 1150 l 701 1236 q 967 1063 827 1162 q 926 991 952 1021 q 648 1036 763 1012 q 366 991 496 1009 z "},"ĝ":{"ha":1042,"x_min":83,"x_max":957,"o":"m 589 691 q 464 538 517 639 q 411 339 411 437 q 496 143 411 212 q 475 115 496 133 q 437 97 453 97 q 121 266 187 97 q 103 371 103 313 q 129 487 103 430 q 204 590 155 544 q 334 665 254 637 q 517 692 415 692 q 589 691 540 692 m 631 639 q 652 667 631 648 q 690 686 674 686 q 808 675 730 686 q 957 643 885 665 q 863 19 916 442 q 492 -317 821 -317 q 400 -311 441 -317 q 492 -178 459 -256 q 544 -24 530 -87 q 610 369 589 183 q 631 639 631 555 m 282 -295 q 142 -244 200 -287 q 83 -151 83 -201 q 123 -64 83 -100 q 333 2 198 2 q 416 -7 377 2 q 358 -95 380 -43 q 336 -188 336 -147 q 342 -250 336 -229 q 320 -277 342 -260 q 282 -295 298 -295 m 308 841 q 558 1082 429 979 l 627 1082 q 722 978 690 1018 q 819 841 754 937 q 765 770 803 804 q 574 863 646 825 q 347 770 475 820 q 308 841 319 800 z "},"Ğ":{"ha":1041,"x_min":97,"x_max":979,"o":"m 564 355 q 577 394 566 372 q 600 416 587 416 q 951 424 749 424 q 897 77 932 222 q 863 46 889 66 q 827 21 838 26 q 709 -2 788 9 q 553 -14 629 -14 q 661 100 605 14 q 717 233 717 186 q 667 317 717 280 q 564 355 618 355 m 857 512 q 797 722 831 638 q 699 878 763 806 q 722 907 701 890 q 759 923 744 923 q 979 874 878 910 q 962 728 978 836 q 931 557 946 621 q 901 529 928 547 q 857 512 873 512 m 511 33 q 490 4 511 22 q 452 -14 469 -14 q 204 119 306 13 q 126 244 155 172 q 97 400 97 317 q 117 559 97 482 q 181 706 138 636 q 287 827 225 775 q 438 910 349 880 q 633 941 528 941 q 659 940 649 941 q 504 693 559 854 q 448 346 448 532 q 511 33 448 160 m 907 1257 q 935 1200 927 1230 q 822 1040 907 1097 q 637 983 738 983 q 463 1042 536 983 q 386 1217 386 1103 q 429 1274 399 1241 q 646 1174 494 1174 q 785 1196 715 1174 q 907 1257 855 1219 z "},"ğ":{"ha":1042,"x_min":83,"x_max":957,"o":"m 589 691 q 464 538 517 639 q 411 339 411 437 q 496 143 411 212 q 475 115 496 133 q 437 97 453 97 q 121 266 187 97 q 103 371 103 313 q 129 487 103 430 q 204 590 155 544 q 334 665 254 637 q 517 692 415 692 q 589 691 540 692 m 631 639 q 652 667 631 648 q 690 686 674 686 q 808 675 730 686 q 957 643 885 665 q 863 19 916 442 q 492 -317 821 -317 q 400 -311 441 -317 q 492 -178 459 -256 q 544 -24 530 -87 q 610 369 589 183 q 631 639 631 555 m 282 -295 q 142 -244 200 -287 q 83 -151 83 -201 q 123 -64 83 -100 q 333 2 198 2 q 416 -7 377 2 q 358 -95 380 -43 q 336 -188 336 -147 q 342 -250 336 -229 q 320 -277 342 -260 q 282 -295 298 -295 m 820 1072 q 847 1015 840 1044 q 563 762 791 762 q 391 834 457 762 q 326 1031 326 906 q 368 1088 338 1055 q 570 943 431 943 q 820 1072 709 943 z "},"Ġ":{"ha":1041,"x_min":97,"x_max":979,"o":"m 564 355 q 577 394 566 372 q 600 416 587 416 q 951 424 749 424 q 897 77 932 222 q 863 46 889 66 q 827 21 838 26 q 709 -2 788 9 q 553 -14 629 -14 q 661 100 605 14 q 717 233 717 186 q 667 317 717 280 q 564 355 618 355 m 857 512 q 797 722 831 638 q 699 878 763 806 q 722 907 701 890 q 759 923 744 923 q 979 874 878 910 q 962 728 978 836 q 931 557 946 621 q 901 529 928 547 q 857 512 873 512 m 511 33 q 490 4 511 22 q 452 -14 469 -14 q 204 119 306 13 q 126 244 155 172 q 97 400 97 317 q 117 559 97 482 q 181 706 138 636 q 287 827 225 775 q 438 910 349 880 q 633 941 528 941 q 659 940 649 941 q 504 693 559 854 q 448 346 448 532 q 511 33 448 160 m 530 1181 q 669 1240 583 1240 q 769 1210 732 1240 q 806 1129 806 1179 q 756 1041 806 1080 q 642 1003 707 1003 q 539 1033 576 1003 q 503 1106 503 1063 q 530 1181 503 1149 z "},"ġ":{"ha":1042,"x_min":83,"x_max":957,"o":"m 589 691 q 464 538 517 639 q 411 339 411 437 q 496 143 411 212 q 475 115 496 133 q 437 97 453 97 q 121 266 187 97 q 103 371 103 313 q 129 487 103 430 q 204 590 155 544 q 334 665 254 637 q 517 692 415 692 q 589 691 540 692 m 631 639 q 652 667 631 648 q 690 686 674 686 q 808 675 730 686 q 957 643 885 665 q 863 19 916 442 q 492 -317 821 -317 q 400 -311 441 -317 q 492 -178 459 -256 q 544 -24 530 -87 q 610 369 589 183 q 631 639 631 555 m 282 -295 q 142 -244 200 -287 q 83 -151 83 -201 q 123 -64 83 -100 q 333 2 198 2 q 416 -7 377 2 q 358 -95 380 -43 q 336 -188 336 -147 q 342 -250 336 -229 q 320 -277 342 -260 q 282 -295 298 -295 m 450 947 q 590 1007 503 1007 q 690 977 653 1007 q 726 896 726 946 q 677 808 726 846 q 563 770 628 770 q 460 800 497 770 q 423 873 423 830 q 450 947 423 916 z "},"Ģ":{"ha":1041,"x_min":97,"x_max":979,"o":"m 564 355 q 577 394 566 372 q 600 416 587 416 q 951 424 749 424 q 897 77 932 222 q 863 46 889 66 q 827 21 838 26 q 709 -2 788 9 q 553 -14 629 -14 q 661 100 605 14 q 717 233 717 186 q 667 317 717 280 q 564 355 618 355 m 857 512 q 797 722 831 638 q 699 878 763 806 q 722 907 701 890 q 759 923 744 923 q 979 874 878 910 q 962 728 978 836 q 931 557 946 621 q 901 529 928 547 q 857 512 873 512 m 511 33 q 490 4 511 22 q 452 -14 469 -14 q 204 119 306 13 q 126 244 155 172 q 97 400 97 317 q 117 559 97 482 q 181 706 138 636 q 287 827 225 775 q 438 910 349 880 q 633 941 528 941 q 659 940 649 941 q 504 693 559 854 q 448 346 448 532 q 511 33 448 160 m 353 -151 q 408 -74 353 -105 q 531 -43 463 -43 q 636 -69 600 -43 q 673 -132 673 -94 q 658 -203 673 -170 q 623 -259 643 -236 q 563 -313 578 -307 q 507 -319 548 -319 q 439 -317 465 -319 q 458 -251 458 -271 q 441 -221 458 -232 q 406 -204 425 -211 q 370 -184 386 -198 q 353 -151 353 -170 z "},"ģ":{"ha":1042,"x_min":83,"x_max":957,"o":"m 589 691 q 464 538 517 639 q 411 339 411 437 q 496 143 411 212 q 475 115 496 133 q 437 97 453 97 q 121 266 187 97 q 103 371 103 313 q 129 487 103 430 q 204 590 155 544 q 334 665 254 637 q 517 692 415 692 q 589 691 540 692 m 631 639 q 652 667 631 648 q 690 686 674 686 q 808 675 730 686 q 957 643 885 665 q 863 19 916 442 q 492 -317 821 -317 q 400 -311 441 -317 q 492 -178 459 -256 q 544 -24 530 -87 q 610 369 589 183 q 631 639 631 555 m 282 -295 q 142 -244 200 -287 q 83 -151 83 -201 q 123 -64 83 -100 q 333 2 198 2 q 416 -7 377 2 q 358 -95 380 -43 q 336 -188 336 -147 q 342 -250 336 -229 q 320 -277 342 -260 q 282 -295 298 -295 m 798 857 q 743 781 798 812 q 620 750 688 750 q 515 775 552 750 q 478 839 478 801 q 493 909 478 876 q 529 966 509 943 q 589 1020 574 1014 q 645 1025 604 1025 q 713 1023 686 1025 q 694 958 694 977 q 710 928 694 939 q 746 911 726 918 q 782 891 766 905 q 798 857 798 877 z "},"Ĥ":{"ha":1158,"x_min":90,"x_max":1095,"o":"m 399 0 l 90 0 q 223 879 186 411 q 245 905 223 888 q 283 923 267 923 l 591 923 q 507 475 541 714 q 627 447 600 457 q 611 385 627 405 q 492 370 541 380 q 458 45 471 204 q 436 18 458 36 q 399 0 414 0 m 903 0 l 595 0 q 728 879 689 404 q 749 905 728 888 q 787 923 771 923 l 1095 923 q 962 45 1000 522 q 940 18 962 36 q 903 0 918 0 m 403 991 q 370 1063 380 1023 q 668 1236 502 1150 l 737 1236 q 1004 1063 863 1162 q 963 991 989 1021 q 684 1036 800 1012 q 403 991 533 1009 z "},"ĥ":{"ha":1041,"x_min":68,"x_max":935,"o":"m 590 -7 q 551 91 551 31 q 581 319 551 151 q 611 526 611 487 q 592 582 611 565 q 544 600 574 600 q 567 661 550 640 q 646 683 592 673 q 746 693 700 693 q 881 652 836 693 q 926 521 926 610 q 905 345 926 471 q 883 190 883 218 q 885 147 883 161 q 889 125 888 133 q 899 106 891 117 q 908 93 906 96 q 922 80 910 91 q 935 66 933 68 q 916 35 935 57 q 880 6 896 13 q 590 -7 793 -7 m 408 46 q 386 18 408 37 q 348 0 364 0 l 68 0 q 137 426 98 127 q 191 894 176 724 q 213 921 191 903 q 250 939 235 939 l 536 939 q 461 508 500 789 q 408 46 422 227 m 137 991 q 104 1063 115 1023 q 402 1236 236 1150 l 471 1236 q 738 1063 597 1162 q 697 991 723 1021 q 418 1036 534 1012 q 137 991 267 1009 z "},"Ħ":{"ha":1158,"x_min":68,"x_max":1160,"o":"m 399 0 l 90 0 q 193 581 155 277 q 68 563 119 572 l 68 585 q 84 623 68 602 q 108 644 99 644 q 200 646 151 644 q 223 879 214 760 q 245 905 223 888 q 283 923 267 923 l 591 923 q 507 475 541 714 q 627 447 600 457 q 611 385 627 405 q 492 370 541 380 q 458 45 471 204 q 436 18 458 36 q 399 0 414 0 m 903 0 l 595 0 q 728 879 689 404 q 749 905 728 888 q 787 923 771 923 l 1095 923 q 1041 664 1065 797 q 1160 684 1113 671 l 1160 656 q 1145 618 1160 640 q 1122 597 1131 597 q 1029 595 1073 597 q 962 45 985 334 q 940 18 962 36 q 903 0 918 0 z "},"ħ":{"ha":1041,"x_min":36,"x_max":935,"o":"m 408 46 q 386 18 408 37 q 348 0 364 0 l 68 0 q 137 426 98 127 q 177 753 162 616 q 36 734 92 743 l 36 755 q 51 794 36 772 q 75 815 66 815 q 184 818 125 815 q 191 894 188 859 q 213 921 191 903 q 250 939 235 939 l 536 939 q 512 828 524 890 q 656 850 601 836 l 656 822 q 641 784 656 806 q 618 763 627 763 q 500 761 555 763 q 461 508 481 652 q 408 46 422 227 m 590 -7 q 551 91 551 31 q 581 319 551 151 q 611 526 611 487 q 592 582 611 565 q 544 600 574 600 q 567 661 550 640 q 646 683 592 673 q 746 693 700 693 q 881 652 836 693 q 926 521 926 610 q 905 345 926 471 q 883 190 883 218 q 885 147 883 161 q 889 125 888 133 q 899 106 891 117 q 908 93 906 96 q 922 80 910 91 q 935 66 933 68 q 916 35 935 57 q 880 6 896 13 q 590 -7 793 -7 z "},"Ĩ":{"ha":578,"x_min":49,"x_max":660,"o":"m 364 0 l 49 0 q 181 879 142 405 q 203 905 181 888 q 241 923 225 923 l 556 923 q 423 45 462 522 q 401 18 423 36 q 364 0 380 0 m 113 1019 q 109 1056 109 1038 q 112 1090 109 1074 q 201 1172 153 1154 q 287 1187 241 1187 q 430 1163 332 1187 q 569 1139 527 1139 q 656 1143 610 1139 q 660 1106 660 1123 q 658 1073 660 1089 q 576 994 619 1013 q 485 975 534 975 q 338 999 435 975 q 199 1023 240 1023 q 113 1019 159 1023 z "},"ĩ":{"ha":578,"x_min":66,"x_max":617,"o":"m 66 0 q 156 629 125 250 q 178 656 156 638 q 216 673 201 673 l 500 673 q 410 45 441 420 q 388 18 410 36 q 351 0 366 0 l 66 0 m 437 783 q 314 824 383 783 q 201 865 245 865 q 111 861 157 865 q 107 897 107 879 q 110 931 107 916 q 288 1056 189 1056 q 355 1042 326 1056 q 408 1014 383 1028 q 524 974 479 974 q 613 978 568 974 q 617 941 617 958 q 615 907 617 924 q 437 783 536 783 z "},"Ī":{"ha":578,"x_min":49,"x_max":617,"o":"m 364 0 l 49 0 q 181 879 142 405 q 203 905 181 888 q 241 923 225 923 l 556 923 q 423 45 462 522 q 401 18 423 36 q 364 0 380 0 m 557 1025 q 156 1015 317 1025 l 176 1163 q 193 1201 179 1180 q 216 1223 208 1222 q 617 1233 479 1223 l 597 1084 q 580 1046 594 1067 q 557 1025 566 1025 z "},"ī":{"ha":578,"x_min":66,"x_max":587,"o":"m 66 0 q 156 629 125 250 q 178 656 156 638 q 216 673 201 673 l 500 673 q 410 45 441 420 q 388 18 410 36 q 351 0 366 0 l 66 0 m 528 825 q 126 815 287 825 l 146 964 q 163 1002 149 981 q 186 1023 178 1023 q 587 1034 449 1023 l 567 885 q 550 846 564 867 q 528 825 536 825 z "},"Ĭ":{"ha":578,"x_min":49,"x_max":669,"o":"m 364 0 l 49 0 q 181 879 142 405 q 203 905 181 888 q 241 923 225 923 l 556 923 q 423 45 462 522 q 401 18 423 36 q 364 0 380 0 m 642 1257 q 669 1200 661 1230 q 556 1040 641 1097 q 372 983 472 983 q 197 1042 270 983 q 120 1217 120 1103 q 163 1274 133 1241 q 380 1174 228 1174 q 519 1196 449 1174 q 642 1257 589 1219 z "},"ĭ":{"ha":578,"x_min":66,"x_max":621,"o":"m 66 0 q 156 629 125 250 q 178 656 156 638 q 216 673 201 673 l 500 673 q 410 45 441 420 q 388 18 410 36 q 351 0 366 0 l 66 0 m 594 1072 q 621 1015 614 1044 q 337 762 565 762 q 165 834 231 762 q 100 1031 100 906 q 142 1088 113 1055 q 344 943 205 943 q 594 1072 483 943 z "},"Į":{"ha":578,"x_min":-9,"x_max":556,"o":"m 364 0 l 231 0 q 201 -45 214 -22 q 169 -137 169 -99 q 197 -197 169 -176 q 277 -218 225 -218 q 402 -190 328 -218 q 386 -308 397 -254 q 180 -370 309 -370 q -9 -240 -9 -370 q 104 -19 -9 -136 q 123 0 113 -9 l 49 0 q 181 879 142 405 q 203 905 181 888 q 241 923 225 923 l 556 923 q 423 45 462 522 q 401 18 423 36 q 364 0 380 0 z "},"į":{"ha":578,"x_min":-9,"x_max":539,"o":"m 66 0 q 156 629 125 250 q 178 656 156 638 q 216 673 201 673 l 500 673 q 410 45 441 420 q 388 18 410 36 q 351 0 366 0 l 231 0 q 201 -45 214 -22 q 169 -137 169 -99 q 197 -197 169 -176 q 277 -218 225 -218 q 402 -190 328 -218 q 386 -308 397 -254 q 180 -370 309 -370 q -9 -240 -9 -370 q 104 -19 -9 -136 q 123 0 113 -9 l 66 0 m 462 765 l 178 765 q 195 867 191 817 q 217 895 195 877 q 254 913 239 913 l 539 913 q 521 810 530 881 q 499 783 521 800 q 462 765 478 765 z "},"İ":{"ha":578,"x_min":49,"x_max":556,"o":"m 364 0 l 49 0 q 181 879 142 405 q 203 905 181 888 q 241 923 225 923 l 556 923 q 423 45 462 522 q 401 18 423 36 q 364 0 380 0 m 264 1181 q 404 1240 317 1240 q 503 1210 467 1240 q 540 1129 540 1179 q 491 1041 540 1080 q 376 1003 441 1003 q 274 1033 311 1003 q 237 1106 237 1063 q 264 1181 237 1149 z "},"ı":{"ha":578,"x_min":66,"x_max":500,"o":"m 66 0 q 156 629 125 250 q 178 656 156 638 q 216 673 201 673 l 500 673 q 410 45 441 420 q 388 18 410 36 q 351 0 366 0 l 66 0 z "},"Ĳ":{"ha":1388,"x_min":49,"x_max":1335,"o":"m 364 0 l 49 0 q 181 879 142 405 q 203 905 181 888 q 241 923 225 923 l 556 923 q 423 45 462 522 q 401 18 423 36 q 364 0 380 0 m 903 -14 q 923 260 920 105 q 932 575 926 415 q 960 878 938 736 q 982 905 960 888 q 1019 923 1004 923 l 1335 923 q 1274 590 1286 716 q 1253 391 1261 464 q 1239 269 1246 317 q 1218 173 1232 220 q 1182 98 1204 127 q 1123 45 1160 69 q 903 -14 1058 1 m 628 238 q 651 266 630 248 q 687 283 673 283 q 755 146 716 202 q 855 49 794 90 q 843 -14 853 13 q 600 38 722 -14 q 628 238 602 126 z "},"ĳ":{"ha":1156,"x_min":66,"x_max":1122,"o":"m 66 0 q 156 629 125 250 q 178 656 156 638 q 216 673 201 673 l 500 673 q 410 45 441 420 q 388 18 410 36 q 351 0 366 0 l 66 0 m 462 765 l 178 765 q 195 867 191 817 q 217 895 195 877 q 254 913 239 913 l 539 913 q 521 810 530 881 q 499 783 521 800 q 462 765 478 765 m 793 673 l 1077 673 q 1017 343 1053 567 q 967 1 981 119 q 863 -219 950 -153 q 596 -286 776 -286 q 675 137 632 -163 q 734 629 718 437 q 755 655 734 637 q 793 673 777 673 m 1045 765 l 762 765 q 779 867 774 817 q 800 895 779 877 q 838 913 822 913 l 1122 913 q 1104 810 1114 881 q 1083 783 1104 800 q 1045 765 1061 765 z "},"Ĵ":{"ha":810,"x_min":22,"x_max":900,"o":"m 326 -14 q 345 260 342 105 q 354 575 349 415 q 382 878 360 736 q 405 905 382 888 q 441 923 427 923 l 758 923 q 696 590 709 716 q 675 391 683 464 q 661 269 668 317 q 640 173 654 220 q 604 98 626 127 q 545 45 583 69 q 326 -14 480 1 m 50 238 q 74 266 52 248 q 109 283 95 283 q 177 146 138 202 q 277 49 216 90 q 265 -14 275 13 q 22 38 144 -14 q 50 238 24 126 m 299 991 q 267 1063 277 1023 q 564 1236 398 1150 l 633 1236 q 900 1063 760 1162 q 859 991 885 1021 q 581 1036 696 1012 q 299 991 429 1009 z "},"ĵ":{"ha":578,"x_min":18,"x_max":594,"o":"m 215 673 l 499 673 q 439 343 475 567 q 389 1 403 119 q 285 -219 372 -153 q 18 -286 198 -286 q 97 137 54 -163 q 156 629 140 437 q 178 655 156 637 q 215 673 199 673 m 83 840 q 333 1081 203 979 l 402 1081 q 497 977 465 1017 q 594 840 529 937 q 540 769 578 804 q 349 863 420 825 q 122 769 250 819 q 83 840 94 800 z "},"Ķ":{"ha":1041,"x_min":77,"x_max":1072,"o":"m 384 0 l 77 0 q 210 878 168 366 q 232 905 210 888 q 269 923 254 923 l 577 923 q 444 45 481 514 q 422 18 444 36 q 384 0 400 0 m 937 334 l 927 168 q 941 109 927 132 q 991 81 954 87 q 968 12 984 39 q 743 -17 846 -17 q 583 97 583 -17 q 598 225 583 140 q 614 341 614 309 q 553 433 614 426 q 764 878 580 523 q 789 907 770 890 q 824 923 808 923 l 1072 923 q 686 486 889 663 q 741 488 715 488 q 891 450 845 488 q 937 334 937 412 m 330 -151 q 385 -74 330 -105 q 508 -43 440 -43 q 613 -69 576 -43 q 650 -132 650 -94 q 635 -203 650 -170 q 600 -259 620 -236 q 540 -313 555 -307 q 484 -319 525 -319 q 416 -317 442 -319 q 435 -251 435 -271 q 418 -221 435 -232 q 382 -204 402 -211 q 347 -184 363 -198 q 330 -151 330 -170 z "},"ķ":{"ha":1041,"x_min":94,"x_max":964,"o":"m 907 249 l 903 149 q 917 102 903 117 q 964 87 930 87 q 941 18 957 45 q 740 -10 845 -10 q 605 13 635 -10 q 574 73 574 35 q 584 171 574 111 q 593 267 593 231 q 522 342 593 329 q 545 395 528 375 q 642 454 610 414 q 673 529 673 493 q 659 584 673 564 q 627 603 646 603 q 589 597 608 603 q 612 658 595 637 q 768 696 692 696 q 888 663 844 696 q 932 576 932 629 q 908 488 932 524 q 846 430 885 452 q 672 375 770 385 q 847 342 787 375 q 907 249 907 309 m 433 46 q 411 18 433 37 q 373 0 389 0 l 94 0 q 162 426 123 127 q 216 894 201 724 q 238 921 216 903 q 275 939 260 939 l 561 939 q 486 508 525 789 q 433 46 448 227 m 321 -151 q 376 -74 321 -105 q 499 -43 431 -43 q 605 -69 568 -43 q 642 -132 642 -94 q 626 -203 642 -170 q 590 -259 611 -236 q 531 -313 546 -307 q 475 -319 516 -319 q 407 -317 433 -319 q 426 -251 426 -271 q 410 -221 426 -232 q 374 -204 393 -211 q 338 -184 354 -198 q 321 -151 321 -170 z "},"ĸ":{"ha":1041,"x_min":91,"x_max":964,"o":"m 907 249 l 903 149 q 917 102 903 117 q 964 87 930 87 q 941 18 957 45 q 740 -10 845 -10 q 605 13 635 -10 q 574 73 574 35 q 584 171 574 111 q 593 267 593 231 q 522 342 593 329 q 545 395 528 375 q 642 454 610 414 q 673 529 673 493 q 659 584 673 564 q 627 603 646 603 q 589 597 608 603 q 612 658 595 637 q 768 696 692 696 q 888 663 844 696 q 932 576 932 629 q 908 488 932 524 q 846 430 885 452 q 672 375 770 385 q 847 342 787 375 q 907 249 907 309 m 513 691 q 435 45 469 462 q 413 18 435 36 q 376 0 391 0 l 91 0 q 182 627 151 253 q 203 652 182 635 q 249 673 225 669 q 367 684 273 677 q 513 691 461 691 z "},"Ĺ":{"ha":926,"x_min":90,"x_max":860,"o":"m 406 0 l 90 0 q 224 879 181 329 q 247 905 224 888 q 285 923 269 923 l 600 923 q 465 45 503 513 q 444 18 465 37 q 406 0 422 0 m 769 340 q 808 375 779 359 q 860 391 836 391 q 812 50 827 100 q 787 18 806 35 q 758 0 769 0 l 496 0 q 648 151 577 60 q 769 340 720 241 m 250 990 q 229 1051 237 1017 q 573 1242 420 1171 q 620 1141 597 1202 q 645 1040 642 1080 q 250 990 490 1007 z "},"ĺ":{"ha":578,"x_min":69,"x_max":597,"o":"m 408 46 q 387 18 408 37 q 349 0 365 0 l 69 0 q 138 426 99 127 q 192 894 177 724 q 214 921 192 903 q 251 939 235 939 l 536 939 q 462 508 500 789 q 408 46 423 227 m 203 1015 q 182 1076 190 1041 q 526 1267 373 1196 q 572 1165 550 1226 q 597 1064 594 1105 q 203 1015 442 1031 z "},"Ļ":{"ha":926,"x_min":90,"x_max":860,"o":"m 406 0 l 90 0 q 224 879 181 329 q 247 905 224 888 q 285 923 269 923 l 600 923 q 465 45 503 513 q 444 18 465 37 q 406 0 422 0 m 769 340 q 808 375 779 359 q 860 391 836 391 q 812 50 827 100 q 787 18 806 35 q 758 0 769 0 l 496 0 q 648 151 577 60 q 769 340 720 241 m 281 -151 q 336 -74 281 -105 q 459 -43 391 -43 q 565 -69 528 -43 q 602 -132 602 -94 q 586 -203 602 -170 q 551 -259 571 -236 q 491 -313 506 -307 q 435 -319 476 -319 q 367 -317 393 -319 q 386 -251 386 -271 q 370 -221 386 -232 q 334 -204 353 -211 q 298 -184 314 -198 q 281 -151 281 -170 z "},"ļ":{"ha":578,"x_min":45,"x_max":536,"o":"m 408 46 q 387 18 408 37 q 349 0 365 0 l 69 0 q 138 426 99 127 q 192 894 177 724 q 214 921 192 903 q 251 939 235 939 l 536 939 q 462 508 500 789 q 408 46 423 227 m 45 -151 q 100 -74 45 -105 q 223 -43 155 -43 q 329 -69 292 -43 q 366 -132 366 -94 q 350 -203 366 -170 q 315 -259 335 -236 q 255 -313 270 -307 q 198 -319 239 -319 q 131 -317 157 -319 q 150 -251 150 -271 q 134 -221 150 -232 q 98 -204 117 -211 q 62 -184 78 -198 q 45 -151 45 -170 z "},"Ľ":{"ha":926,"x_min":90,"x_max":860,"o":"m 406 0 l 90 0 q 224 879 181 329 q 247 905 224 888 q 285 923 269 923 l 600 923 q 465 45 503 513 q 444 18 465 37 q 406 0 422 0 m 769 340 q 808 375 779 359 q 860 391 836 391 q 812 50 827 100 q 787 18 806 35 q 758 0 769 0 l 496 0 q 648 151 577 60 q 769 340 720 241 m 727 1236 q 760 1164 749 1204 q 462 991 628 1077 l 393 991 q 126 1164 267 1065 q 167 1236 141 1206 q 446 1192 318 1217 q 727 1236 592 1217 z "},"ľ":{"ha":629,"x_min":69,"x_max":725,"o":"m 530 632 q 556 779 541 688 q 572 886 572 871 q 595 919 573 901 q 632 937 616 937 l 725 937 q 706 845 718 901 q 689 766 694 788 q 674 712 684 743 q 654 672 664 682 q 627 650 645 662 q 530 632 601 632 m 408 46 q 387 18 408 37 q 349 0 365 0 l 69 0 q 138 426 99 127 q 192 894 177 724 q 214 921 192 903 q 251 939 235 939 l 536 939 q 462 508 500 789 q 408 46 423 227 z "},"Ŀ":{"ha":926,"x_min":90,"x_max":954,"o":"m 406 0 l 90 0 q 224 879 181 329 q 247 905 224 888 q 285 923 269 923 l 600 923 q 465 45 503 513 q 444 18 465 37 q 406 0 422 0 m 769 340 q 808 375 779 359 q 860 391 836 391 q 812 50 827 100 q 787 18 806 35 q 758 0 769 0 l 496 0 q 648 151 577 60 q 769 340 720 241 m 678 659 q 817 718 730 718 q 917 688 880 718 q 954 607 954 657 q 904 519 954 557 q 790 481 855 481 q 687 511 724 481 q 650 584 650 541 q 678 659 650 627 z "},"ŀ":{"ha":831,"x_min":69,"x_max":829,"o":"m 408 46 q 387 18 408 37 q 349 0 365 0 l 69 0 q 138 426 99 127 q 192 894 177 724 q 214 921 192 903 q 251 939 235 939 l 536 939 q 462 508 500 789 q 408 46 423 227 m 553 418 q 692 478 606 478 q 792 448 755 478 q 829 367 829 417 q 780 279 829 317 q 665 241 730 241 q 563 271 600 241 q 526 344 526 301 q 553 418 526 387 z "},"Ł":{"ha":926,"x_min":31,"x_max":860,"o":"m 406 0 l 90 0 q 168 372 134 160 q 31 330 87 349 l 31 351 q 46 396 31 368 q 70 425 61 423 q 178 446 119 433 q 224 879 205 642 q 247 905 224 888 q 285 923 269 923 l 600 923 q 522 528 555 732 q 591 550 553 537 q 726 600 686 583 l 726 572 q 711 528 726 555 q 688 499 696 501 q 511 453 588 474 q 465 45 482 255 q 444 18 465 37 q 406 0 422 0 m 769 340 q 808 375 779 359 q 860 391 836 391 q 812 50 827 100 q 787 18 806 35 q 758 0 769 0 l 496 0 q 648 151 577 60 q 769 340 720 241 z "},"ł":{"ha":578,"x_min":-3,"x_max":594,"o":"m 408 46 q 387 18 408 37 q 349 0 365 0 l 69 0 q 135 402 98 122 q -3 363 58 384 l -3 385 q 13 422 -3 401 q 37 445 28 444 q 142 462 88 452 q 192 894 178 734 q 214 921 192 903 q 251 939 235 939 l 536 939 q 464 524 501 793 q 594 566 539 543 l 594 538 q 579 501 594 522 q 556 479 565 480 q 455 459 507 470 q 408 46 422 211 z "},"Ń":{"ha":1041,"x_min":79,"x_max":989,"o":"m 857 45 q 835 18 857 36 q 798 0 813 0 l 623 0 q 418 317 546 139 q 185 614 290 494 q 212 879 194 687 q 236 906 214 888 q 271 923 257 923 l 448 923 q 641 623 538 764 q 881 313 744 481 q 857 45 863 151 m 845 432 q 786 695 812 600 q 713 879 759 791 q 735 905 713 888 q 774 923 758 923 l 989 923 q 905 477 944 727 q 883 450 905 468 q 845 432 861 432 m 222 482 q 270 244 239 340 q 355 45 300 148 q 333 18 355 36 q 295 0 311 0 l 79 0 q 162 437 125 197 q 184 464 162 446 q 222 482 206 482 m 439 990 q 418 1051 427 1017 q 762 1242 610 1171 q 809 1141 787 1202 q 834 1040 831 1080 q 439 990 679 1007 z "},"ń":{"ha":1041,"x_min":64,"x_max":939,"o":"m 349 0 l 64 0 q 162 627 135 297 q 184 652 162 635 q 230 673 205 669 q 348 684 254 677 q 493 691 441 691 q 408 45 438 407 q 387 18 408 36 q 349 0 365 0 m 594 -7 q 555 91 555 31 q 585 319 555 151 q 615 526 615 487 q 596 582 615 565 q 548 600 578 600 q 571 661 554 640 q 650 683 596 673 q 750 693 704 693 q 885 652 840 693 q 930 521 930 610 q 909 345 930 471 q 887 190 887 218 q 889 147 887 161 q 893 125 892 133 q 903 106 895 117 q 912 93 910 96 q 926 80 914 91 q 939 66 937 68 q 920 35 939 57 q 884 6 900 13 q 594 -7 797 -7 m 398 777 q 365 848 375 806 q 677 1088 524 989 q 739 975 705 1053 q 782 855 774 897 q 398 777 629 803 z "},"Ņ":{"ha":1041,"x_min":79,"x_max":989,"o":"m 857 45 q 835 18 857 36 q 798 0 813 0 l 623 0 q 418 317 546 139 q 185 614 290 494 q 212 879 194 687 q 236 906 214 888 q 271 923 257 923 l 448 923 q 641 623 538 764 q 881 313 744 481 q 857 45 863 151 m 845 432 q 786 695 812 600 q 713 879 759 791 q 735 905 713 888 q 774 923 758 923 l 989 923 q 905 477 944 727 q 883 450 905 468 q 845 432 861 432 m 222 482 q 270 244 239 340 q 355 45 300 148 q 333 18 355 36 q 295 0 311 0 l 79 0 q 162 437 125 197 q 184 464 162 446 q 222 482 206 482 m 309 -151 q 363 -74 309 -105 q 487 -43 418 -43 q 592 -69 555 -43 q 629 -132 629 -94 q 613 -203 629 -170 q 578 -259 598 -236 q 518 -313 533 -307 q 462 -319 503 -319 q 394 -317 420 -319 q 413 -251 413 -271 q 397 -221 413 -232 q 361 -204 380 -211 q 325 -184 341 -198 q 309 -151 309 -170 z "},"ņ":{"ha":1041,"x_min":64,"x_max":939,"o":"m 349 0 l 64 0 q 162 627 135 297 q 184 652 162 635 q 230 673 205 669 q 348 684 254 677 q 493 691 441 691 q 408 45 438 407 q 387 18 408 36 q 349 0 365 0 m 594 -7 q 555 91 555 31 q 585 319 555 151 q 615 526 615 487 q 596 582 615 565 q 548 600 578 600 q 571 661 554 640 q 650 683 596 673 q 750 693 704 693 q 885 652 840 693 q 930 521 930 610 q 909 345 930 471 q 887 190 887 218 q 889 147 887 161 q 893 125 892 133 q 903 106 895 117 q 912 93 910 96 q 926 80 914 91 q 939 66 937 68 q 920 35 939 57 q 884 6 900 13 q 594 -7 797 -7 m 298 -151 q 353 -74 298 -105 q 476 -43 408 -43 q 581 -69 544 -43 q 618 -132 618 -94 q 603 -203 618 -170 q 567 -259 587 -236 q 507 -313 522 -307 q 451 -319 492 -319 q 383 -317 410 -319 q 402 -251 402 -271 q 386 -221 402 -232 q 350 -204 370 -211 q 314 -184 330 -198 q 298 -151 298 -170 z "},"Ň":{"ha":1041,"x_min":79,"x_max":989,"o":"m 857 45 q 835 18 857 36 q 798 0 813 0 l 623 0 q 418 317 546 139 q 185 614 290 494 q 212 879 194 687 q 236 906 214 888 q 271 923 257 923 l 448 923 q 641 623 538 764 q 881 313 744 481 q 857 45 863 151 m 845 432 q 786 695 812 600 q 713 879 759 791 q 735 905 713 888 q 774 923 758 923 l 989 923 q 905 477 944 727 q 883 450 905 468 q 845 432 861 432 m 222 482 q 270 244 239 340 q 355 45 300 148 q 333 18 355 36 q 295 0 311 0 l 79 0 q 162 437 125 197 q 184 464 162 446 q 222 482 206 482 m 905 1236 q 938 1164 928 1204 q 640 991 806 1077 l 571 991 q 304 1164 445 1065 q 345 1236 319 1206 q 624 1192 496 1217 q 905 1236 770 1217 z "},"ň":{"ha":1041,"x_min":64,"x_max":939,"o":"m 349 0 l 64 0 q 162 627 135 297 q 184 652 162 635 q 230 673 205 669 q 348 684 254 677 q 493 691 441 691 q 408 45 438 407 q 387 18 408 36 q 349 0 365 0 m 594 -7 q 555 91 555 31 q 585 319 555 151 q 615 526 615 487 q 596 582 615 565 q 548 600 578 600 q 571 661 554 640 q 650 683 596 673 q 750 693 704 693 q 885 652 840 693 q 930 521 930 610 q 909 345 930 471 q 887 190 887 218 q 889 147 887 161 q 893 125 892 133 q 903 106 895 117 q 912 93 910 96 q 926 80 914 91 q 939 66 937 68 q 920 35 939 57 q 884 6 900 13 q 594 -7 797 -7 m 848 1017 q 598 777 728 879 l 529 777 q 434 881 467 840 q 337 1017 402 921 q 391 1088 353 1054 q 581 995 498 1038 q 809 1088 682 1039 q 848 1017 838 1058 z "},"Ŋ":{"ha":1041,"x_min":79,"x_max":989,"o":"m 857 45 l 857 44 l 857 43 l 857 43 q 761 -227 844 -146 q 532 -317 684 -302 q 613 12 597 -181 q 613 16 613 14 q 418 317 538 149 q 185 614 290 494 q 212 879 194 687 q 236 906 214 888 q 271 923 257 923 l 448 923 q 641 623 538 764 q 881 313 744 481 q 857 45 863 151 m 845 432 q 786 695 812 600 q 713 879 759 791 q 735 905 713 888 q 774 923 758 923 l 989 923 q 905 477 944 727 q 883 450 905 468 q 845 432 861 432 m 222 482 q 270 244 239 340 q 355 45 300 148 q 333 18 355 36 q 295 0 311 0 l 79 0 q 162 437 125 197 q 184 464 162 446 q 222 482 206 482 z "},"ŋ":{"ha":1041,"x_min":64,"x_max":930,"o":"m 349 0 l 64 0 q 162 627 135 297 q 184 652 162 635 q 230 673 205 669 q 348 684 254 677 q 493 691 441 691 q 408 45 438 407 q 387 18 408 36 q 349 0 365 0 m 857 1 q 753 -219 840 -153 q 486 -286 666 -286 q 570 120 525 -155 q 615 536 615 395 q 596 584 615 568 q 548 600 576 600 q 571 661 554 640 q 650 683 596 673 q 750 693 704 693 q 885 652 840 693 q 930 521 930 610 q 896 238 930 452 q 857 1 861 24 z "},"Ō":{"ha":1041,"x_min":83,"x_max":986,"o":"m 467 -14 q 615 228 566 69 q 663 562 663 387 q 627 879 663 737 q 649 906 627 888 q 687 924 671 924 q 854 842 785 905 q 986 509 986 722 q 905 217 986 347 q 656 16 814 71 q 467 -14 570 -14 m 602 941 q 454 699 503 857 q 405 365 405 541 q 442 49 405 189 q 420 21 442 39 q 382 3 398 3 q 156 152 233 33 q 83 417 83 267 q 164 711 83 579 q 412 910 254 855 q 602 941 499 941 m 782 1025 q 380 1015 541 1025 l 401 1163 q 418 1201 404 1180 q 440 1223 432 1222 q 842 1233 703 1223 l 821 1084 q 804 1046 819 1067 q 782 1025 790 1025 z "},"ō":{"ha":1041,"x_min":90,"x_max":951,"o":"m 566 696 q 404 275 404 541 q 433 49 404 163 q 411 21 433 39 q 375 3 390 3 q 178 98 261 19 q 90 304 90 180 q 152 516 90 428 q 322 650 214 604 q 566 696 430 696 m 475 -6 q 637 415 637 150 q 608 642 637 528 q 630 669 608 652 q 666 687 651 687 q 863 593 780 671 q 951 386 951 510 q 889 175 951 262 q 719 40 827 87 q 475 -6 611 -6 m 751 825 q 349 815 510 825 l 370 964 q 387 1002 372 981 q 409 1023 401 1023 q 810 1034 672 1023 l 790 885 q 773 846 787 867 q 751 825 759 825 z "},"Ŏ":{"ha":1041,"x_min":83,"x_max":986,"o":"m 467 -14 q 615 228 566 69 q 663 562 663 387 q 627 879 663 737 q 649 906 627 888 q 687 924 671 924 q 854 842 785 905 q 986 509 986 722 q 905 217 986 347 q 656 16 814 71 q 467 -14 570 -14 m 602 941 q 454 699 503 857 q 405 365 405 541 q 442 49 405 189 q 420 21 442 39 q 382 3 398 3 q 156 152 233 33 q 83 417 83 267 q 164 711 83 579 q 412 910 254 855 q 602 941 499 941 m 866 1257 q 893 1200 886 1230 q 781 1040 865 1097 q 596 983 696 983 q 422 1042 494 983 q 345 1217 345 1103 q 387 1274 357 1241 q 605 1174 452 1174 q 744 1196 673 1174 q 866 1257 814 1219 z "},"ŏ":{"ha":1041,"x_min":90,"x_max":951,"o":"m 566 696 q 404 275 404 541 q 433 49 404 163 q 411 21 433 39 q 375 3 390 3 q 178 98 261 19 q 90 304 90 180 q 152 516 90 428 q 322 650 214 604 q 566 696 430 696 m 475 -6 q 637 415 637 150 q 608 642 637 528 q 630 669 608 652 q 666 687 651 687 q 863 593 780 671 q 951 386 951 510 q 889 175 951 262 q 719 40 827 87 q 475 -6 611 -6 m 818 1072 q 845 1015 838 1044 q 561 762 789 762 q 389 834 455 762 q 323 1031 323 906 q 366 1088 336 1055 q 568 943 429 943 q 818 1072 707 943 z "},"Ő":{"ha":1041,"x_min":83,"x_max":1000,"o":"m 467 -14 q 615 228 566 69 q 663 562 663 387 q 627 879 663 737 q 649 906 627 888 q 687 924 671 924 q 854 842 785 905 q 986 509 986 722 q 905 217 986 347 q 656 16 814 71 q 467 -14 570 -14 m 602 941 q 454 699 503 857 q 405 365 405 541 q 442 49 405 189 q 420 21 442 39 q 382 3 398 3 q 156 152 233 33 q 83 417 83 267 q 164 711 83 579 q 412 910 254 855 q 602 941 499 941 m 363 962 q 300 1018 324 985 q 383 1168 351 1116 q 460 1281 414 1221 q 548 1208 519 1237 q 631 1112 577 1180 q 363 962 519 1034 m 732 962 q 669 1018 693 985 q 752 1168 720 1116 q 829 1281 783 1221 q 917 1208 888 1237 q 1000 1112 946 1180 q 732 962 888 1034 z "},"ő":{"ha":1041,"x_min":90,"x_max":951,"o":"m 566 696 q 404 275 404 541 q 433 49 404 163 q 411 21 433 39 q 375 3 390 3 q 178 98 261 19 q 90 304 90 180 q 152 516 90 428 q 322 650 214 604 q 566 696 430 696 m 475 -6 q 637 415 637 150 q 608 642 637 528 q 630 669 608 652 q 666 687 651 687 q 863 593 780 671 q 951 386 951 510 q 889 175 951 262 q 719 40 827 87 q 475 -6 611 -6 m 304 776 q 240 832 264 800 q 304 997 275 937 q 379 1118 333 1058 q 579 930 477 1046 q 304 776 465 850 m 673 776 q 609 832 633 800 q 673 997 644 937 q 748 1118 702 1058 q 948 930 846 1046 q 673 776 833 850 z "},"Œ":{"ha":1374,"x_min":83,"x_max":1340,"o":"m 936 469 q 1172 429 1097 452 q 1156 374 1172 392 q 918 339 1045 368 q 887 45 899 197 q 866 18 887 36 q 828 0 844 1 l 515 -12 q 467 -14 491 -14 q 615 228 566 69 q 663 562 663 387 q 627 879 663 737 q 649 906 627 888 q 687 924 671 924 l 1021 923 q 936 469 970 699 m 602 941 q 454 699 503 857 q 405 365 405 541 q 442 49 405 189 q 420 21 442 39 q 382 3 398 3 q 156 152 233 33 q 83 417 83 267 q 164 711 83 579 q 412 910 254 855 q 602 941 499 941 m 1227 512 q 1166 716 1211 614 q 1074 869 1120 818 q 1094 923 1078 901 l 1340 923 q 1320 746 1335 857 q 1286 557 1304 635 q 1263 529 1284 546 q 1227 512 1243 512 m 1196 279 q 1230 306 1204 288 q 1272 323 1257 323 q 1228 49 1249 122 q 1204 18 1222 35 q 1174 0 1185 0 l 925 0 q 1196 279 1092 112 z "},"œ":{"ha":1463,"x_min":90,"x_max":1413,"o":"m 1101 685 q 967 535 1017 628 q 918 336 918 442 q 1000 164 918 231 q 1237 98 1081 98 q 1329 105 1280 98 q 1206 21 1297 55 q 998 -12 1115 -12 q 745 60 839 -12 q 475 -6 635 -6 q 637 415 637 150 q 608 642 637 528 q 630 669 608 652 q 666 687 651 687 q 803 632 745 675 q 1037 691 903 691 q 1101 685 1072 691 m 566 696 q 404 275 404 541 q 433 49 404 163 q 411 21 433 39 q 375 3 390 3 q 178 98 261 19 q 90 304 90 180 q 152 516 90 428 q 322 650 214 604 q 566 696 430 696 m 1211 674 q 1360 594 1308 656 q 1413 453 1413 531 q 1329 304 1413 357 q 1113 250 1245 250 q 1022 264 1072 250 q 1119 376 1088 306 q 1150 511 1150 446 q 1137 627 1150 577 q 1165 654 1137 635 q 1211 674 1194 673 z "},"Ŕ":{"ha":1041,"x_min":70,"x_max":992,"o":"m 437 45 q 416 18 437 36 q 378 0 394 0 l 70 0 q 202 871 163 374 q 224 897 202 880 q 261 915 245 914 q 572 932 465 932 q 437 45 474 510 m 930 305 l 920 169 q 934 109 920 132 q 984 81 947 87 q 962 12 977 39 q 755 -17 840 -17 q 624 6 670 -17 q 577 79 577 30 q 592 215 577 129 q 608 337 608 300 q 591 397 608 373 q 547 425 575 422 q 570 479 551 455 q 659 572 627 509 q 691 708 691 635 q 625 886 691 818 q 647 915 625 897 q 684 933 669 933 q 895 883 806 933 q 966 812 939 857 q 992 709 992 768 q 905 547 992 614 q 671 469 817 479 l 732 464 q 876 417 821 455 q 930 305 930 378 m 419 990 q 398 1051 406 1017 q 742 1242 589 1171 q 788 1141 766 1202 q 814 1040 810 1080 q 419 990 659 1007 z "},"ŕ":{"ha":810,"x_min":47,"x_max":814,"o":"m 737 691 q 814 594 814 691 q 793 474 814 534 q 741 382 772 414 q 630 434 696 413 q 505 456 565 454 q 527 536 511 494 q 737 691 636 691 m 331 0 l 47 0 q 144 627 116 296 q 166 652 144 635 q 212 673 189 669 q 333 684 235 677 q 484 691 431 691 q 390 45 416 355 q 368 18 390 36 q 331 0 347 0 m 365 777 q 332 848 342 806 q 644 1088 491 989 q 706 975 671 1053 q 749 855 741 897 q 365 777 596 803 z "},"Ŗ":{"ha":1041,"x_min":70,"x_max":992,"o":"m 437 45 q 416 18 437 36 q 378 0 394 0 l 70 0 q 202 871 163 374 q 224 897 202 880 q 261 915 245 914 q 572 932 465 932 q 437 45 474 510 m 930 305 l 920 169 q 934 109 920 132 q 984 81 947 87 q 962 12 977 39 q 755 -17 840 -17 q 624 6 670 -17 q 577 79 577 30 q 592 215 577 129 q 608 337 608 300 q 591 397 608 373 q 547 425 575 422 q 570 479 551 455 q 659 572 627 509 q 691 708 691 635 q 625 886 691 818 q 647 915 625 897 q 684 933 669 933 q 895 883 806 933 q 966 812 939 857 q 992 709 992 768 q 905 547 992 614 q 671 469 817 479 l 732 464 q 876 417 821 455 q 930 305 930 378 m 323 -151 q 378 -74 323 -105 q 502 -43 433 -43 q 607 -69 570 -43 q 644 -132 644 -94 q 628 -203 644 -170 q 593 -259 613 -236 q 533 -313 548 -307 q 477 -319 518 -319 q 409 -317 435 -319 q 428 -251 428 -271 q 412 -221 428 -232 q 376 -204 395 -211 q 340 -184 356 -198 q 323 -151 323 -170 z "},"ŗ":{"ha":810,"x_min":31,"x_max":814,"o":"m 737 691 q 814 594 814 691 q 793 474 814 534 q 741 382 772 414 q 630 434 696 413 q 505 456 565 454 q 527 536 511 494 q 737 691 636 691 m 331 0 l 47 0 q 144 627 116 296 q 166 652 144 635 q 212 673 189 669 q 333 684 235 677 q 484 691 431 691 q 390 45 416 355 q 368 18 390 36 q 331 0 347 0 m 31 -151 q 86 -74 31 -105 q 209 -43 141 -43 q 314 -69 277 -43 q 351 -132 351 -94 q 336 -203 351 -170 q 300 -259 321 -236 q 240 -313 256 -307 q 184 -319 225 -319 q 117 -317 143 -319 q 136 -251 136 -271 q 119 -221 136 -232 q 83 -204 103 -211 q 47 -184 64 -198 q 31 -151 31 -170 z "},"Ř":{"ha":1041,"x_min":70,"x_max":992,"o":"m 437 45 q 416 18 437 36 q 378 0 394 0 l 70 0 q 202 871 163 374 q 224 897 202 880 q 261 915 245 914 q 572 932 465 932 q 437 45 474 510 m 930 305 l 920 169 q 934 109 920 132 q 984 81 947 87 q 962 12 977 39 q 755 -17 840 -17 q 624 6 670 -17 q 577 79 577 30 q 592 215 577 129 q 608 337 608 300 q 591 397 608 373 q 547 425 575 422 q 570 479 551 455 q 659 572 627 509 q 691 708 691 635 q 625 886 691 818 q 647 915 625 897 q 684 933 669 933 q 895 883 806 933 q 966 812 939 857 q 992 709 992 768 q 905 547 992 614 q 671 469 817 479 l 732 464 q 876 417 821 455 q 930 305 930 378 m 885 1236 q 918 1164 907 1204 q 620 991 786 1077 l 551 991 q 284 1164 425 1065 q 325 1236 299 1206 q 604 1192 476 1217 q 885 1236 750 1217 z "},"ř":{"ha":810,"x_min":47,"x_max":814,"o":"m 737 691 q 814 594 814 691 q 793 474 814 534 q 741 382 772 414 q 630 434 696 413 q 505 456 565 454 q 527 536 511 494 q 737 691 636 691 m 331 0 l 47 0 q 144 627 116 296 q 166 652 144 635 q 212 673 189 669 q 333 684 235 677 q 484 691 431 691 q 390 45 416 355 q 368 18 390 36 q 331 0 347 0 m 659 1017 q 409 777 538 879 l 340 777 q 245 881 277 840 q 148 1017 213 921 q 202 1088 164 1054 q 392 995 309 1038 q 620 1088 493 1039 q 659 1017 648 1058 z "},"Ś":{"ha":926,"x_min":95,"x_max":858,"o":"m 529 949 q 475 839 475 903 q 511 709 475 774 q 594 599 547 644 q 668 527 642 553 q 727 462 694 500 q 779 395 760 425 q 825 268 825 322 q 803 166 825 213 q 738 81 780 119 q 632 18 696 43 q 489 -11 567 -7 q 511 55 511 20 q 496 124 511 89 q 453 201 482 160 q 348 330 406 267 q 268 420 290 393 q 216 488 245 447 q 161 649 161 568 q 210 799 161 730 q 344 908 260 868 q 529 949 429 948 m 755 539 q 731 675 755 605 q 575 895 684 811 q 598 924 576 907 q 634 941 620 941 q 750 921 684 941 q 854 883 816 901 q 858 812 858 863 q 848 686 858 762 q 825 566 839 610 q 797 548 821 556 q 755 539 772 539 m 430 48 q 405 -14 422 2 q 237 5 334 -14 q 96 52 140 23 q 95 94 95 66 q 126 345 95 227 q 149 373 129 356 q 186 389 170 389 q 242 239 201 315 q 333 112 282 164 q 430 48 385 60 m 381 990 q 360 1051 368 1017 q 704 1242 551 1171 q 750 1141 728 1202 q 776 1040 772 1080 q 381 990 621 1007 z "},"ś":{"ha":810,"x_min":15,"x_max":787,"o":"m 449 697 q 410 620 410 661 q 555 423 410 525 q 656 345 620 377 q 739 185 739 271 q 653 47 739 100 q 412 -5 567 -5 q 430 66 430 34 q 412 128 430 98 q 366 183 394 158 q 302 234 337 208 q 233 286 268 259 q 170 340 199 312 q 106 476 106 403 q 165 608 106 557 q 449 697 268 694 m 554 695 q 718 657 650 695 q 787 566 787 620 q 629 463 787 481 q 631 477 631 467 q 598 573 631 529 q 507 643 566 616 q 522 673 507 654 q 554 695 537 692 m 294 -3 q 243 -5 260 -5 q 80 27 145 -5 q 15 111 15 59 q 172 241 15 214 q 167 190 166 212 q 182 147 168 168 q 221 109 196 125 q 332 54 266 79 q 320 23 332 43 q 294 -3 307 3 m 320 777 q 287 848 297 806 q 600 1088 446 989 q 661 975 627 1053 q 704 855 696 897 q 320 777 551 803 z "},"Ŝ":{"ha":926,"x_min":95,"x_max":884,"o":"m 529 949 q 475 839 475 903 q 511 709 475 774 q 594 599 547 644 q 668 527 642 553 q 727 462 694 500 q 779 395 760 425 q 825 268 825 322 q 803 166 825 213 q 738 81 780 119 q 632 18 696 43 q 489 -11 567 -7 q 511 55 511 20 q 496 124 511 89 q 453 201 482 160 q 348 330 406 267 q 268 420 290 393 q 216 488 245 447 q 161 649 161 568 q 210 799 161 730 q 344 908 260 868 q 529 949 429 948 m 755 539 q 731 675 755 605 q 575 895 684 811 q 598 924 576 907 q 634 941 620 941 q 750 921 684 941 q 854 883 816 901 q 858 812 858 863 q 848 686 858 762 q 825 566 839 610 q 797 548 821 556 q 755 539 772 539 m 430 48 q 405 -14 422 2 q 237 5 334 -14 q 96 52 140 23 q 95 94 95 66 q 126 345 95 227 q 149 373 129 356 q 186 389 170 389 q 242 239 201 315 q 333 112 282 164 q 430 48 385 60 m 283 991 q 251 1063 261 1023 q 549 1236 382 1150 l 618 1236 q 884 1063 744 1162 q 844 991 869 1021 q 565 1036 680 1012 q 283 991 414 1009 z "},"ŝ":{"ha":810,"x_min":15,"x_max":787,"o":"m 449 697 q 410 620 410 661 q 555 423 410 525 q 656 345 620 377 q 739 185 739 271 q 653 47 739 100 q 412 -5 567 -5 q 430 66 430 34 q 412 128 430 98 q 366 183 394 158 q 302 234 337 208 q 233 286 268 259 q 170 340 199 312 q 106 476 106 403 q 165 608 106 557 q 449 697 268 694 m 554 695 q 718 657 650 695 q 787 566 787 620 q 629 463 787 481 q 631 477 631 467 q 598 573 631 529 q 507 643 566 616 q 522 673 507 654 q 554 695 537 692 m 294 -3 q 243 -5 260 -5 q 80 27 145 -5 q 15 111 15 59 q 172 241 15 214 q 167 190 166 212 q 182 147 168 168 q 221 109 196 125 q 332 54 266 79 q 320 23 332 43 q 294 -3 307 3 m 233 840 q 484 1081 354 979 l 553 1081 q 647 977 615 1017 q 745 840 680 937 q 690 769 728 804 q 500 863 571 825 q 273 769 401 819 q 233 840 244 800 z "},"Ş":{"ha":926,"x_min":95,"x_max":858,"o":"m 234 -203 q 366 -234 298 -234 q 434 -186 434 -234 q 352 -139 434 -139 q 314 -141 345 -139 q 292 -90 298 -121 q 370 -62 334 -69 q 469 -54 406 -54 q 577 -85 531 -54 q 623 -179 623 -116 q 576 -280 623 -243 q 429 -317 530 -317 q 236 -271 327 -317 q 233 -233 233 -255 q 234 -203 233 -211 m 529 949 q 475 839 475 903 q 511 709 475 774 q 594 599 547 644 q 668 527 642 553 q 727 462 694 500 q 779 395 760 425 q 825 268 825 322 q 803 166 825 213 q 738 81 780 119 q 632 18 696 43 q 489 -11 567 -7 q 511 55 511 20 q 496 124 511 89 q 453 201 482 160 q 348 330 406 267 q 268 420 290 393 q 216 488 245 447 q 161 649 161 568 q 210 799 161 730 q 344 908 260 868 q 529 949 429 948 m 755 539 q 731 675 755 605 q 575 895 684 811 q 598 924 576 907 q 634 941 620 941 q 750 921 684 941 q 854 883 816 901 q 858 812 858 863 q 848 686 858 762 q 825 566 839 610 q 797 548 821 556 q 755 539 772 539 m 430 48 q 405 -14 422 2 q 237 5 334 -14 q 96 52 140 23 q 95 94 95 66 q 126 345 95 227 q 149 373 129 356 q 186 389 170 389 q 242 239 201 315 q 333 112 282 164 q 430 48 385 60 z "},"ş":{"ha":810,"x_min":15,"x_max":787,"o":"m 159 -203 q 291 -234 223 -234 q 359 -186 359 -234 q 277 -139 359 -139 q 239 -141 269 -139 q 216 -90 223 -121 q 372 -54 289 -54 q 502 -85 456 -54 q 547 -179 547 -116 q 501 -280 547 -243 q 353 -317 455 -317 q 161 -271 252 -317 q 158 -233 158 -255 q 159 -203 158 -211 m 449 697 q 410 620 410 661 q 555 423 410 525 q 656 345 620 377 q 739 185 739 271 q 653 47 739 100 q 412 -5 567 -5 q 430 66 430 34 q 412 128 430 98 q 366 183 394 158 q 302 234 337 208 q 233 286 268 259 q 170 340 199 312 q 106 476 106 403 q 165 608 106 557 q 449 697 268 694 m 554 695 q 718 657 650 695 q 787 566 787 620 q 629 463 787 481 q 631 477 631 467 q 598 573 631 529 q 507 643 566 616 q 522 673 507 654 q 554 695 537 692 m 294 -3 q 243 -5 260 -5 q 80 27 145 -5 q 15 111 15 59 q 172 241 15 214 q 167 190 166 212 q 182 147 168 168 q 221 109 196 125 q 332 54 266 79 q 320 23 332 43 q 294 -3 307 3 z "},"Š":{"ha":926,"x_min":95,"x_max":880,"o":"m 529 949 q 475 839 475 903 q 511 709 475 774 q 594 599 547 644 q 668 527 642 553 q 727 462 694 500 q 779 395 760 425 q 825 268 825 322 q 803 166 825 213 q 738 81 780 119 q 632 18 696 43 q 489 -11 567 -7 q 511 55 511 20 q 496 124 511 89 q 453 201 482 160 q 348 330 406 267 q 268 420 290 393 q 216 488 245 447 q 161 649 161 568 q 210 799 161 730 q 344 908 260 868 q 529 949 429 948 m 755 539 q 731 675 755 605 q 575 895 684 811 q 598 924 576 907 q 634 941 620 941 q 750 921 684 941 q 854 883 816 901 q 858 812 858 863 q 848 686 858 762 q 825 566 839 610 q 797 548 821 556 q 755 539 772 539 m 430 48 q 405 -14 422 2 q 237 5 334 -14 q 96 52 140 23 q 95 94 95 66 q 126 345 95 227 q 149 373 129 356 q 186 389 170 389 q 242 239 201 315 q 333 112 282 164 q 430 48 385 60 m 847 1236 q 880 1164 869 1204 q 582 991 748 1077 l 513 991 q 246 1164 387 1065 q 287 1236 261 1206 q 566 1192 438 1217 q 847 1236 712 1217 z "},"š":{"ha":810,"x_min":15,"x_max":787,"o":"m 449 697 q 410 620 410 661 q 555 423 410 525 q 656 345 620 377 q 739 185 739 271 q 653 47 739 100 q 412 -5 567 -5 q 430 66 430 34 q 412 128 430 98 q 366 183 394 158 q 302 234 337 208 q 233 286 268 259 q 170 340 199 312 q 106 476 106 403 q 165 608 106 557 q 449 697 268 694 m 554 695 q 718 657 650 695 q 787 566 787 620 q 629 463 787 481 q 631 477 631 467 q 598 573 631 529 q 507 643 566 616 q 522 673 507 654 q 554 695 537 692 m 294 -3 q 243 -5 260 -5 q 80 27 145 -5 q 15 111 15 59 q 172 241 15 214 q 167 190 166 212 q 182 147 168 168 q 221 109 196 125 q 332 54 266 79 q 320 23 332 43 q 294 -3 307 3 m 770 1017 q 520 777 650 879 l 451 777 q 356 881 389 840 q 259 1017 324 921 q 313 1088 275 1054 q 503 995 420 1038 q 731 1088 604 1039 q 770 1017 760 1058 z "},"Ţ":{"ha":1041,"x_min":79,"x_max":1043,"o":"m 587 0 l 271 0 q 413 879 371 360 q 435 905 413 888 q 472 923 457 923 l 774 923 q 647 45 687 555 q 625 18 647 36 q 587 0 604 0 m 905 498 q 875 705 905 591 q 812 869 846 818 q 832 923 816 900 l 1043 923 q 985 543 1021 719 q 952 516 983 533 q 905 498 922 498 m 79 499 q 104 708 84 578 q 135 875 125 837 q 158 906 140 888 q 189 923 177 923 l 395 923 q 289 770 326 840 q 218 635 252 701 q 165 536 184 570 q 128 514 161 528 q 79 499 94 499 m 274 -151 q 329 -74 274 -105 q 452 -43 384 -43 q 557 -69 520 -43 q 594 -132 594 -94 q 579 -203 594 -170 q 543 -259 564 -236 q 484 -313 498 -307 q 427 -319 469 -319 q 359 -317 386 -319 q 378 -251 378 -271 q 362 -221 378 -232 q 326 -204 346 -211 q 290 -184 307 -198 q 274 -151 274 -170 z "},"ţ":{"ha":695,"x_min":69,"x_max":688,"o":"m 613 41 q 336 -3 474 -3 q 69 209 69 -3 q 89 393 69 255 q 109 584 109 531 q 104 664 109 636 q 267 758 197 705 q 404 886 338 810 q 492 896 438 896 q 420 567 447 736 q 393 318 393 398 q 405 202 393 237 q 442 146 416 166 q 586 112 488 112 q 636 114 610 112 q 613 41 630 69 m 494 513 q 525 688 500 607 q 673 648 591 660 q 684 615 679 638 q 688 578 688 591 q 494 513 594 552 m 145 -151 q 200 -74 145 -105 q 323 -43 255 -43 q 428 -69 391 -43 q 465 -132 465 -94 q 450 -203 465 -170 q 414 -259 435 -236 q 355 -313 370 -307 q 298 -319 340 -319 q 231 -317 257 -319 q 250 -251 250 -271 q 233 -221 250 -232 q 197 -204 217 -211 q 161 -184 178 -198 q 145 -151 145 -170 z "},"Ť":{"ha":1041,"x_min":79,"x_max":1043,"o":"m 587 0 l 271 0 q 413 879 371 360 q 435 905 413 888 q 472 923 457 923 l 774 923 q 647 45 687 555 q 625 18 647 36 q 587 0 604 0 m 905 498 q 875 705 905 591 q 812 869 846 818 q 832 923 816 900 l 1043 923 q 985 543 1021 719 q 952 516 983 533 q 905 498 922 498 m 79 499 q 104 708 84 578 q 135 875 125 837 q 158 906 140 888 q 189 923 177 923 l 395 923 q 289 770 326 840 q 218 635 252 701 q 165 536 184 570 q 128 514 161 528 q 79 499 94 499 m 897 1236 q 929 1164 919 1204 q 631 991 798 1077 l 562 991 q 296 1164 436 1065 q 336 1236 311 1206 q 615 1192 488 1217 q 897 1236 762 1217 z "},"ť":{"ha":695,"x_min":69,"x_max":730,"o":"m 535 755 q 562 902 547 810 q 578 1008 577 994 q 600 1041 578 1023 q 637 1059 622 1059 l 730 1059 q 711 967 723 1024 q 695 888 700 911 q 680 835 690 866 q 660 794 669 804 q 632 772 650 785 q 535 755 606 755 m 613 41 q 336 -3 474 -3 q 69 209 69 -3 q 89 393 69 255 q 109 584 109 531 q 104 664 109 636 q 267 758 197 705 q 404 886 338 810 q 492 896 438 896 q 420 567 447 736 q 393 318 393 398 q 405 202 393 237 q 442 146 416 166 q 586 112 488 112 q 636 114 610 112 q 613 41 630 69 m 494 513 q 525 688 500 607 q 673 648 591 660 q 684 615 679 638 q 688 578 688 591 q 494 513 594 552 z "},"Ŧ":{"ha":1041,"x_min":79,"x_max":1043,"o":"m 587 0 l 271 0 q 345 335 313 153 q 180 313 244 323 l 180 334 q 196 373 180 351 q 220 394 211 394 q 356 398 281 394 q 413 879 392 618 q 435 905 413 888 q 472 923 457 923 l 774 923 q 682 396 719 688 q 845 420 785 404 l 845 392 q 830 354 845 376 q 807 333 816 333 q 674 330 735 333 q 647 45 659 193 q 625 18 647 36 q 587 0 604 0 m 79 499 q 104 708 84 578 q 135 875 125 837 q 158 906 140 888 q 189 923 177 923 l 395 923 q 289 770 326 840 q 218 635 252 701 q 165 536 184 570 q 128 514 161 528 q 79 499 94 499 m 905 498 q 875 705 905 591 q 812 869 846 818 q 832 923 816 900 l 1043 923 q 985 543 1021 719 q 952 516 983 533 q 905 498 922 498 z "},"ŧ":{"ha":695,"x_min":-43,"x_max":688,"o":"m 613 41 q 336 -3 474 -3 q 69 209 69 -3 q 75 292 69 235 q -43 275 5 283 l -43 297 q -28 335 -43 314 q -4 357 -13 357 q 84 359 37 357 q 89 393 86 375 q 109 584 109 531 q 104 664 109 636 q 267 758 197 705 q 404 886 338 810 q 492 896 438 896 q 420 567 447 736 q 395 375 401 450 q 528 396 477 383 l 528 368 q 513 331 528 352 q 490 309 498 309 q 393 308 439 309 q 405 201 394 235 q 442 146 416 166 q 586 112 488 112 q 636 114 610 112 q 613 41 630 69 m 494 513 q 525 688 500 607 q 673 648 591 660 q 684 615 679 638 q 688 578 688 591 q 494 513 594 552 z "},"Ũ":{"ha":1041,"x_min":144,"x_max":999,"o":"m 860 227 q 765 60 840 127 q 536 -14 682 -14 q 191 120 275 -14 q 144 311 144 194 q 176 581 144 389 q 207 878 207 774 q 229 905 207 888 q 266 923 250 923 l 589 923 q 484 260 484 431 q 644 96 484 96 q 766 133 707 96 q 860 227 825 169 m 814 264 q 792 611 814 468 q 711 878 770 755 q 732 905 711 888 q 770 923 754 923 l 999 923 q 873 310 920 564 q 850 282 871 300 q 814 264 829 264 m 420 1019 q 416 1056 416 1038 q 418 1090 416 1074 q 507 1172 459 1154 q 593 1187 548 1187 q 736 1163 639 1187 q 875 1139 833 1139 q 962 1143 917 1139 q 966 1106 966 1123 q 964 1073 966 1089 q 883 994 926 1013 q 791 975 840 975 q 644 999 742 975 q 506 1023 547 1023 q 420 1019 465 1023 z "},"ũ":{"ha":1039,"x_min":106,"x_max":965,"o":"m 106 175 q 129 368 106 245 q 151 540 151 490 q 119 610 151 589 q 139 649 119 621 q 173 678 159 678 l 438 678 q 463 653 451 671 q 475 608 475 635 q 446 428 475 580 q 416 190 416 275 q 438 124 416 146 q 495 101 460 101 q 494 79 494 92 q 486 40 494 49 q 398 6 452 19 q 293 -6 343 -6 q 106 175 106 -6 m 618 1 q 564 94 564 39 q 593 340 564 149 q 630 633 622 532 q 652 660 630 642 q 690 678 674 678 l 965 678 q 906 382 928 521 q 884 194 884 244 q 896 120 884 144 q 936 75 909 96 q 916 43 936 65 q 880 14 897 21 q 618 1 793 1 m 671 783 q 549 824 618 783 q 436 865 480 865 q 346 861 391 865 q 342 897 342 879 q 345 931 342 916 q 522 1056 423 1056 q 589 1042 561 1056 q 643 1014 618 1028 q 758 974 714 974 q 848 978 802 974 q 852 941 852 958 q 850 907 852 924 q 671 783 770 783 z "},"Ū":{"ha":1041,"x_min":144,"x_max":999,"o":"m 860 227 q 765 60 840 127 q 536 -14 682 -14 q 191 120 275 -14 q 144 311 144 194 q 176 581 144 389 q 207 878 207 774 q 229 905 207 888 q 266 923 250 923 l 589 923 q 484 260 484 431 q 644 96 484 96 q 766 133 707 96 q 860 227 825 169 m 814 264 q 792 611 814 468 q 711 878 770 755 q 732 905 711 888 q 770 923 754 923 l 999 923 q 873 310 920 564 q 850 282 871 300 q 814 264 829 264 m 864 1025 q 463 1015 623 1025 l 483 1163 q 500 1201 486 1180 q 522 1223 514 1222 q 924 1233 785 1223 l 903 1084 q 886 1046 901 1067 q 864 1025 872 1025 z "},"ū":{"ha":1039,"x_min":106,"x_max":965,"o":"m 106 175 q 129 368 106 245 q 151 540 151 490 q 119 610 151 589 q 139 649 119 621 q 173 678 159 678 l 438 678 q 463 653 451 671 q 475 608 475 635 q 446 428 475 580 q 416 190 416 275 q 438 124 416 146 q 495 101 460 101 q 494 79 494 92 q 486 40 494 49 q 398 6 452 19 q 293 -6 343 -6 q 106 175 106 -6 m 618 1 q 564 94 564 39 q 593 340 564 149 q 630 633 622 532 q 652 660 630 642 q 690 678 674 678 l 965 678 q 906 382 928 521 q 884 194 884 244 q 896 120 884 144 q 936 75 909 96 q 916 43 936 65 q 880 14 897 21 q 618 1 793 1 m 762 825 q 361 815 522 825 l 381 964 q 398 1002 384 981 q 420 1023 412 1023 q 822 1034 684 1023 l 802 885 q 785 846 799 867 q 762 825 770 825 z "},"Ŭ":{"ha":1041,"x_min":144,"x_max":999,"o":"m 860 227 q 765 60 840 127 q 536 -14 682 -14 q 191 120 275 -14 q 144 311 144 194 q 176 581 144 389 q 207 878 207 774 q 229 905 207 888 q 266 923 250 923 l 589 923 q 484 260 484 431 q 644 96 484 96 q 766 133 707 96 q 860 227 825 169 m 814 264 q 792 611 814 468 q 711 878 770 755 q 732 905 711 888 q 770 923 754 923 l 999 923 q 873 310 920 564 q 850 282 871 300 q 814 264 829 264 m 948 1257 q 975 1200 968 1230 q 863 1040 947 1097 q 678 983 779 983 q 504 1042 576 983 q 427 1217 427 1103 q 469 1274 439 1241 q 687 1174 534 1174 q 826 1196 755 1174 q 948 1257 896 1219 z "},"ŭ":{"ha":1039,"x_min":106,"x_max":965,"o":"m 106 175 q 129 368 106 245 q 151 540 151 490 q 119 610 151 589 q 139 649 119 621 q 173 678 159 678 l 438 678 q 463 653 451 671 q 475 608 475 635 q 446 428 475 580 q 416 190 416 275 q 438 124 416 146 q 495 101 460 101 q 494 79 494 92 q 486 40 494 49 q 398 6 452 19 q 293 -6 343 -6 q 106 175 106 -6 m 618 1 q 564 94 564 39 q 593 340 564 149 q 630 633 622 532 q 652 660 630 642 q 690 678 674 678 l 965 678 q 906 382 928 521 q 884 194 884 244 q 896 120 884 144 q 936 75 909 96 q 916 43 936 65 q 880 14 897 21 q 618 1 793 1 m 829 1072 q 857 1015 849 1044 q 572 762 800 762 q 401 834 467 762 q 335 1031 335 906 q 378 1088 348 1055 q 579 943 440 943 q 829 1072 718 943 z "},"Ů":{"ha":1041,"x_min":144,"x_max":999,"o":"m 860 227 q 765 60 840 127 q 536 -14 682 -14 q 191 120 275 -14 q 144 311 144 194 q 176 581 144 389 q 207 878 207 774 q 229 905 207 888 q 266 923 250 923 l 589 923 q 484 260 484 431 q 644 96 484 96 q 766 133 707 96 q 860 227 825 169 m 814 264 q 792 611 814 468 q 711 878 770 755 q 732 905 711 888 q 770 923 754 923 l 999 923 q 873 310 920 564 q 850 282 871 300 q 814 264 829 264 m 694 1183 q 648 1166 670 1183 q 627 1125 627 1149 q 642 1087 627 1101 q 683 1073 656 1073 q 730 1091 709 1073 q 750 1132 750 1109 q 735 1168 750 1154 q 694 1183 720 1183 m 576 1242 q 709 1287 638 1287 q 824 1246 781 1287 q 867 1139 867 1206 q 809 1020 867 1072 q 674 968 751 968 q 553 1009 597 968 q 509 1101 509 1049 q 528 1187 509 1152 q 576 1242 547 1221 z "},"ů":{"ha":1039,"x_min":106,"x_max":965,"o":"m 106 175 q 129 368 106 245 q 151 540 151 490 q 119 610 151 589 q 139 649 119 621 q 173 678 159 678 l 438 678 q 463 653 451 671 q 475 608 475 635 q 446 428 475 580 q 416 190 416 275 q 438 124 416 146 q 495 101 460 101 q 494 79 494 92 q 486 40 494 49 q 398 6 452 19 q 293 -6 343 -6 q 106 175 106 -6 m 618 1 q 564 94 564 39 q 593 340 564 149 q 630 633 622 532 q 652 660 630 642 q 690 678 674 678 l 965 678 q 906 382 928 521 q 884 194 884 244 q 896 120 884 144 q 936 75 909 96 q 916 43 936 65 q 880 14 897 21 q 618 1 793 1 m 586 960 q 540 944 562 960 q 518 903 518 927 q 533 864 518 878 q 574 850 548 850 q 621 868 601 850 q 642 909 642 886 q 626 946 642 932 q 586 960 611 960 m 468 1020 q 601 1065 530 1065 q 715 1024 672 1065 q 759 916 759 983 q 701 798 759 849 q 565 746 642 746 q 445 786 488 746 q 401 878 401 827 q 420 964 401 930 q 468 1020 439 999 z "},"Ű":{"ha":1041,"x_min":144,"x_max":1082,"o":"m 860 227 q 765 60 840 127 q 536 -14 682 -14 q 191 120 275 -14 q 144 311 144 194 q 176 581 144 389 q 207 878 207 774 q 229 905 207 888 q 266 923 250 923 l 589 923 q 484 260 484 431 q 644 96 484 96 q 766 133 707 96 q 860 227 825 169 m 814 264 q 792 611 814 468 q 711 878 770 755 q 732 905 711 888 q 770 923 754 923 l 999 923 q 873 310 920 564 q 850 282 871 300 q 814 264 829 264 m 446 962 q 382 1018 406 985 q 465 1168 433 1116 q 543 1281 496 1221 q 630 1208 602 1237 q 713 1112 659 1180 q 446 962 602 1034 m 814 962 q 751 1018 775 985 q 834 1168 802 1116 q 911 1281 865 1221 q 999 1208 970 1237 q 1082 1112 1028 1180 q 814 962 970 1034 z "},"ű":{"ha":1039,"x_min":106,"x_max":965,"o":"m 106 175 q 129 368 106 245 q 151 540 151 490 q 119 610 151 589 q 139 649 119 621 q 173 678 159 678 l 438 678 q 463 653 451 671 q 475 608 475 635 q 446 428 475 580 q 416 190 416 275 q 438 124 416 146 q 495 101 460 101 q 494 79 494 92 q 486 40 494 49 q 398 6 452 19 q 293 -6 343 -6 q 106 175 106 -6 m 618 1 q 564 94 564 39 q 593 340 564 149 q 630 633 622 532 q 652 660 630 642 q 690 678 674 678 l 965 678 q 906 382 928 521 q 884 194 884 244 q 896 120 884 144 q 936 75 909 96 q 916 43 936 65 q 880 14 897 21 q 618 1 793 1 m 315 776 q 252 832 276 800 q 316 997 287 937 q 391 1118 345 1058 q 591 930 489 1046 q 315 776 476 850 m 684 776 q 621 832 645 800 q 685 997 656 937 q 760 1118 713 1058 q 960 930 858 1046 q 684 776 845 850 z "},"Ų":{"ha":1041,"x_min":144,"x_max":999,"o":"m 860 227 q 765 60 840 127 q 591 -10 699 1 q 532 -87 545 -56 q 520 -144 520 -111 q 548 -199 520 -178 q 628 -220 576 -220 q 753 -192 680 -220 q 738 -308 749 -257 q 532 -370 661 -370 q 342 -240 342 -370 q 474 -22 342 -134 q 485 -12 479 -17 q 191 120 266 0 q 144 311 144 194 q 176 581 144 389 q 207 878 207 774 q 229 905 207 888 q 266 923 250 923 l 589 923 q 484 260 484 431 q 644 96 484 96 q 766 133 707 96 q 860 227 825 169 m 814 264 q 792 611 814 468 q 711 878 770 755 q 732 905 711 888 q 770 923 754 923 l 999 923 q 873 310 920 564 q 850 282 871 300 q 814 264 829 264 z "},"ų":{"ha":1039,"x_min":106,"x_max":965,"o":"m 860 -308 q 654 -370 783 -370 q 465 -240 465 -370 q 578 -19 465 -136 q 607 9 591 -5 q 564 94 564 45 q 593 340 564 149 q 630 633 622 532 q 652 660 630 642 q 690 678 674 678 l 965 678 q 906 382 928 521 q 884 194 884 244 q 896 120 884 144 q 936 75 909 96 q 916 43 936 65 q 880 14 897 21 q 705 2 816 5 q 651 -84 663 -52 q 643 -142 643 -109 q 671 -197 643 -176 q 750 -218 699 -218 q 876 -190 802 -218 q 860 -308 871 -254 m 106 175 q 129 368 106 245 q 151 540 151 490 q 119 610 151 589 q 139 649 119 621 q 173 678 159 678 l 438 678 q 463 653 451 671 q 475 608 475 635 q 446 428 475 580 q 416 190 416 275 q 438 124 416 146 q 495 101 460 101 q 494 79 494 92 q 486 40 494 49 q 398 6 452 19 q 293 -6 343 -6 q 106 175 106 -6 z "},"Ŵ":{"ha":1387,"x_min":101,"x_max":1421,"o":"m 645 923 l 944 923 q 952 834 947 897 q 962 719 957 772 q 975 598 967 667 q 991 478 982 530 q 1013 378 1001 425 q 1074 279 1037 279 q 1100 290 1086 279 q 987 45 1049 190 q 963 17 983 35 q 928 0 943 0 l 729 0 q 673 448 714 198 q 585 879 632 699 q 607 905 585 888 q 645 923 629 923 m 1147 802 l 1145 879 q 1167 905 1145 888 q 1206 923 1190 923 l 1421 923 q 1148 385 1343 791 q 1124 358 1143 374 q 1088 341 1104 341 q 1147 802 1147 554 m 160 923 l 460 923 q 536 413 498 547 q 612 279 574 279 q 639 290 626 279 q 526 45 595 204 q 502 17 522 35 q 467 0 481 0 l 268 0 q 193 456 240 205 q 101 879 146 707 q 123 905 101 888 q 160 923 144 923 m 519 991 q 487 1063 497 1023 q 785 1236 618 1150 l 854 1236 q 1120 1063 980 1162 q 1080 991 1105 1021 q 801 1036 916 1012 q 519 991 650 1009 z "},"ŵ":{"ha":1270,"x_min":60,"x_max":1299,"o":"m 123 680 l 427 680 q 467 469 442 560 q 573 295 515 295 q 601 298 587 295 q 535 152 580 258 q 487 40 490 45 q 465 17 484 34 q 429 0 445 0 l 251 0 q 95 531 224 149 l 60 635 q 83 662 60 644 q 123 680 106 680 m 604 680 l 907 680 q 918 572 913 629 q 929 476 924 516 q 942 406 935 435 q 959 350 949 376 q 1013 295 979 295 q 1041 298 1027 295 q 976 156 1020 259 q 928 43 932 52 q 904 17 924 34 q 869 0 884 0 l 692 0 q 620 340 664 149 q 541 635 576 530 q 564 662 541 644 q 604 680 587 680 m 1059 633 q 1082 660 1059 642 q 1121 678 1105 678 l 1299 678 q 1199 538 1281 651 q 1090 377 1117 425 q 1065 358 1086 368 q 1027 349 1044 349 q 1061 581 1061 460 q 1059 633 1061 607 m 458 841 q 708 1082 578 979 l 777 1082 q 872 978 840 1018 q 969 841 904 937 q 915 770 953 804 q 724 863 795 825 q 497 770 625 820 q 458 841 469 800 z "},"Ŷ":{"ha":926,"x_min":104,"x_max":963,"o":"m 523 0 l 223 0 q 260 238 248 128 q 104 879 204 537 q 125 905 104 888 q 163 923 146 923 l 478 923 q 616 267 512 573 q 583 45 596 173 q 561 18 583 36 q 523 0 539 0 m 685 412 q 660 384 680 401 q 626 367 641 367 q 688 824 688 598 q 687 879 688 861 q 709 905 687 888 q 747 923 731 923 l 963 923 q 685 412 861 764 m 317 991 q 284 1063 294 1023 q 582 1236 416 1150 l 651 1236 q 918 1063 777 1162 q 877 991 903 1021 q 598 1036 713 1012 q 317 991 447 1009 z "},"ŷ":{"ha":1041,"x_min":85,"x_max":958,"o":"m 121 213 q 141 372 121 269 q 161 522 161 476 q 123 610 161 594 q 142 649 123 621 q 176 678 162 678 l 440 678 q 467 657 456 673 q 477 612 477 641 q 464 521 477 584 q 423 238 423 330 q 449 172 423 195 q 510 149 474 149 q 487 88 505 110 q 316 42 414 42 q 121 213 121 42 m 632 639 q 653 661 632 647 q 692 675 675 675 l 958 675 q 868 60 904 416 q 704 -274 841 -203 q 486 -317 621 -317 q 418 -314 465 -317 q 507 -154 476 -246 q 563 66 538 -61 q 610 368 587 193 q 633 581 632 543 q 632 639 633 618 m 282 -297 q 139 -256 193 -290 q 85 -174 85 -222 q 127 -93 85 -126 q 360 -28 211 -28 q 456 -36 408 -28 q 393 -119 417 -74 q 370 -196 370 -164 q 376 -252 370 -228 q 341 -279 376 -262 q 282 -297 307 -297 m 312 840 q 562 1081 433 979 l 631 1081 q 726 977 694 1017 q 823 840 758 937 q 769 769 807 804 q 578 863 650 825 q 351 769 479 819 q 312 840 323 800 z "},"Ÿ":{"ha":926,"x_min":104,"x_max":963,"o":"m 523 0 l 223 0 q 260 238 248 128 q 104 879 204 537 q 125 905 104 888 q 163 923 146 923 l 478 923 q 616 267 512 573 q 583 45 596 173 q 561 18 583 36 q 523 0 539 0 m 685 412 q 660 384 680 401 q 626 367 641 367 q 688 824 688 598 q 687 879 688 861 q 709 905 687 888 q 747 923 731 923 l 963 923 q 685 412 861 764 m 293 1145 q 425 1200 341 1200 q 520 1172 486 1200 q 555 1095 555 1145 q 508 1011 555 1046 q 399 976 462 976 q 301 1003 336 976 q 267 1073 267 1030 q 293 1145 267 1116 m 670 1145 q 791 1200 719 1200 q 898 1173 863 1200 q 932 1096 932 1145 q 885 1011 932 1046 q 776 976 839 976 q 678 1003 713 976 q 644 1073 644 1030 q 670 1145 644 1116 z "},"Ź":{"ha":926,"x_min":39,"x_max":927,"o":"m 112 568 q 161 875 132 762 q 185 906 166 888 q 216 923 203 923 l 472 923 q 171 614 303 798 q 145 585 163 602 q 112 568 126 568 m 845 357 q 797 49 825 169 q 772 18 791 35 q 741 0 753 0 l 485 0 q 786 313 650 122 q 813 342 795 326 q 845 357 831 357 m 39 45 q 536 923 344 492 l 867 923 q 904 906 883 923 q 927 879 925 888 q 863 774 911 853 q 802 674 815 696 q 750 588 789 653 q 698 501 711 524 q 653 424 685 479 q 606 342 621 369 l 564 265 q 517 179 536 216 q 474 96 498 142 q 427 0 450 49 l 98 0 q 60 18 82 0 q 39 45 39 36 m 398 990 q 377 1051 385 1017 q 721 1242 568 1171 q 767 1141 745 1202 q 793 1040 789 1080 q 398 990 637 1007 z "},"ź":{"ha":926,"x_min":44,"x_max":888,"o":"m 92 410 q 133 629 106 538 q 157 661 138 643 q 187 678 175 678 l 407 678 q 385 640 400 662 q 354 607 370 617 q 254 530 298 571 q 155 425 210 488 q 131 414 151 419 q 92 410 111 410 m 850 292 q 805 49 835 155 q 782 18 800 35 q 751 0 763 0 l 517 0 q 578 76 538 48 q 636 118 618 104 q 684 157 654 132 q 777 269 731 199 q 808 284 782 275 q 850 292 833 292 m 44 59 q 498 678 282 315 l 828 678 q 865 661 844 678 q 888 633 886 643 q 676 366 803 541 q 431 0 549 191 l 104 0 q 66 24 88 0 q 44 59 44 49 m 371 777 q 338 848 348 806 q 650 1088 497 989 q 712 975 677 1053 q 755 855 747 897 q 371 777 602 803 z "},"Ż":{"ha":926,"x_min":39,"x_max":927,"o":"m 112 568 q 161 875 132 762 q 185 906 166 888 q 216 923 203 923 l 472 923 q 171 614 303 798 q 145 585 163 602 q 112 568 126 568 m 845 357 q 797 49 825 169 q 772 18 791 35 q 741 0 753 0 l 485 0 q 786 313 650 122 q 813 342 795 326 q 845 357 831 357 m 39 45 q 536 923 344 492 l 867 923 q 904 906 883 923 q 927 879 925 888 q 863 774 911 853 q 802 674 815 696 q 750 588 789 653 q 698 501 711 524 q 653 424 685 479 q 606 342 621 369 l 564 265 q 517 179 536 216 q 474 96 498 142 q 427 0 450 49 l 98 0 q 60 18 82 0 q 39 45 39 36 m 464 1181 q 604 1240 517 1240 q 703 1210 667 1240 q 740 1129 740 1179 q 691 1041 740 1080 q 576 1003 642 1003 q 474 1033 511 1003 q 437 1106 437 1063 q 464 1181 437 1149 z "},"ż":{"ha":926,"x_min":44,"x_max":888,"o":"m 92 410 q 133 629 106 538 q 157 661 138 643 q 187 678 175 678 l 407 678 q 385 640 400 662 q 354 607 370 617 q 254 530 298 571 q 155 425 210 488 q 131 414 151 419 q 92 410 111 410 m 850 292 q 805 49 835 155 q 782 18 800 35 q 751 0 763 0 l 517 0 q 578 76 538 48 q 636 118 618 104 q 684 157 654 132 q 777 269 731 199 q 808 284 782 275 q 850 292 833 292 m 44 59 q 498 678 282 315 l 828 678 q 865 661 844 678 q 888 633 886 643 q 676 366 803 541 q 431 0 549 191 l 104 0 q 66 24 88 0 q 44 59 44 49 m 427 947 q 566 1007 479 1007 q 666 977 629 1007 q 703 896 703 946 q 653 808 703 846 q 539 770 604 770 q 436 800 473 770 q 399 873 399 830 q 427 947 399 916 z "},"Ž":{"ha":926,"x_min":39,"x_max":927,"o":"m 112 568 q 161 875 132 762 q 185 906 166 888 q 216 923 203 923 l 472 923 q 171 614 303 798 q 145 585 163 602 q 112 568 126 568 m 845 357 q 797 49 825 169 q 772 18 791 35 q 741 0 753 0 l 485 0 q 786 313 650 122 q 813 342 795 326 q 845 357 831 357 m 39 45 q 536 923 344 492 l 867 923 q 904 906 883 923 q 927 879 925 888 q 863 774 911 853 q 802 674 815 696 q 750 588 789 653 q 698 501 711 524 q 653 424 685 479 q 606 342 621 369 l 564 265 q 517 179 536 216 q 474 96 498 142 q 427 0 450 49 l 98 0 q 60 18 82 0 q 39 45 39 36 m 864 1236 q 897 1164 886 1204 q 599 991 765 1077 l 530 991 q 263 1164 404 1065 q 304 1236 278 1206 q 583 1192 455 1217 q 864 1236 729 1217 z "},"ž":{"ha":926,"x_min":44,"x_max":888,"o":"m 92 410 q 133 629 106 538 q 157 661 138 643 q 187 678 175 678 l 407 678 q 385 640 400 662 q 354 607 370 617 q 254 530 298 571 q 155 425 210 488 q 131 414 151 419 q 92 410 111 410 m 850 292 q 805 49 835 155 q 782 18 800 35 q 751 0 763 0 l 517 0 q 578 76 538 48 q 636 118 618 104 q 684 157 654 132 q 777 269 731 199 q 808 284 782 275 q 850 292 833 292 m 44 59 q 498 678 282 315 l 828 678 q 865 661 844 678 q 888 633 886 643 q 676 366 803 541 q 431 0 549 191 l 104 0 q 66 24 88 0 q 44 59 44 49 m 821 1017 q 571 777 701 879 l 502 777 q 407 881 439 840 q 310 1017 375 921 q 364 1088 326 1054 q 554 995 471 1038 q 782 1088 655 1039 q 821 1017 810 1058 z "},"ƒ":{"ha":926,"x_min":95,"x_max":851,"o":"m 792 834 q 644 790 694 834 q 568 640 593 747 q 512 307 543 532 q 466 1 480 81 q 355 -220 438 -154 q 95 -286 272 -286 q 205 354 151 -95 q 241 631 233 575 q 351 866 263 787 q 611 945 439 945 q 842 901 749 945 q 851 832 849 872 q 792 834 821 834 m 616 448 q 646 623 622 547 q 781 583 705 597 q 791 550 787 574 q 795 513 795 527 q 616 448 687 481 z "},"Ǽ":{"ha":1280,"x_min":-72,"x_max":1246,"o":"m 758 0 l 449 0 q 477 422 477 219 q 467 732 477 626 q 549 879 516 816 q 576 906 555 889 q 612 923 597 923 l 835 923 q 817 494 817 505 q 1044 459 992 475 q 1028 404 1044 422 q 814 375 932 399 q 814 247 814 346 q 821 45 814 147 q 797 18 820 36 q 758 0 773 0 m 165 0 l -72 0 q 177 341 -12 75 q 412 666 366 607 q 414 641 414 654 q 413 621 414 627 q 349 451 409 581 q 273 254 290 322 q 398 220 346 242 q 378 160 393 178 q 237 142 308 154 l 234 120 q 231 79 232 106 q 228 44 229 52 q 203 18 227 36 q 165 0 180 0 m 1133 512 q 1058 752 1090 692 q 986 837 1026 812 q 878 869 945 863 q 898 923 882 901 l 1246 923 q 1225 746 1241 857 q 1192 557 1210 635 q 1169 529 1190 546 q 1133 512 1149 512 m 1095 279 q 1129 306 1103 288 q 1171 323 1156 323 q 1127 49 1147 122 q 1103 18 1121 35 q 1073 0 1084 0 l 851 0 q 989 122 932 54 q 1095 279 1045 189 m 647 990 q 626 1051 634 1017 q 970 1242 817 1171 q 1016 1141 994 1202 q 1042 1040 1038 1080 q 647 990 886 1007 z "},"ǽ":{"ha":1426,"x_min":83,"x_max":1375,"o":"m 1063 685 q 930 535 979 628 q 881 336 881 442 q 962 164 881 231 q 1200 98 1044 98 q 1291 105 1242 98 q 1168 21 1259 55 q 970 -12 1078 -12 q 790 15 863 -12 q 598 -1 697 -1 q 564 97 564 45 q 594 358 564 149 q 625 637 625 568 q 648 664 625 646 q 685 682 670 682 q 836 665 751 682 q 1000 691 910 691 q 1063 685 1035 691 m 568 691 q 446 529 488 631 q 404 328 404 427 q 426 151 404 229 q 486 46 448 73 q 464 18 486 36 q 427 0 442 0 q 177 78 271 0 q 83 291 83 156 q 210 572 83 458 q 364 659 271 627 q 568 691 456 691 m 1173 674 q 1323 594 1270 656 q 1375 453 1375 531 q 1292 304 1375 357 q 1076 250 1208 250 q 985 264 1034 250 q 1082 376 1050 306 q 1113 511 1113 446 q 1100 627 1113 577 q 1128 654 1100 635 q 1173 674 1156 673 m 684 777 q 651 848 661 806 q 964 1088 810 989 q 1025 975 991 1053 q 1068 855 1060 897 q 684 777 916 803 z "},"Ș":{"ha":926,"x_min":95,"x_max":858,"o":"m 529 949 q 475 839 475 903 q 511 709 475 774 q 594 599 547 644 q 668 527 642 553 q 727 462 694 500 q 779 395 760 425 q 825 268 825 322 q 803 166 825 213 q 738 81 780 119 q 632 18 696 43 q 489 -11 567 -7 q 511 55 511 20 q 496 124 511 89 q 453 201 482 160 q 348 330 406 267 q 268 420 290 393 q 216 488 245 447 q 161 649 161 568 q 210 799 161 730 q 344 908 260 868 q 529 949 429 948 m 755 539 q 731 675 755 605 q 575 895 684 811 q 598 924 576 907 q 634 941 620 941 q 750 921 684 941 q 854 883 816 901 q 858 812 858 863 q 848 686 858 762 q 825 566 839 610 q 797 548 821 556 q 755 539 772 539 m 430 48 q 405 -14 422 2 q 237 5 334 -14 q 96 52 140 23 q 95 94 95 66 q 126 345 95 227 q 149 373 129 356 q 186 389 170 389 q 242 239 201 315 q 333 112 282 164 q 430 48 385 60 m 260 -151 q 315 -74 260 -105 q 438 -43 370 -43 q 544 -69 507 -43 q 581 -132 581 -94 q 565 -203 581 -170 q 529 -259 550 -236 q 470 -313 485 -307 q 414 -319 455 -319 q 346 -317 372 -319 q 365 -251 365 -271 q 349 -221 365 -232 q 313 -204 332 -211 q 277 -184 293 -198 q 260 -151 260 -170 z "},"ș":{"ha":810,"x_min":15,"x_max":787,"o":"m 449 697 q 410 620 410 661 q 555 423 410 525 q 656 345 620 377 q 739 185 739 271 q 653 47 739 100 q 412 -5 567 -5 q 430 66 430 34 q 412 128 430 98 q 366 183 394 158 q 302 234 337 208 q 233 286 268 259 q 170 340 199 312 q 106 476 106 403 q 165 608 106 557 q 449 697 268 694 m 554 695 q 718 657 650 695 q 787 566 787 620 q 629 463 787 481 q 631 477 631 467 q 598 573 631 529 q 507 643 566 616 q 522 673 507 654 q 554 695 537 692 m 294 -3 q 243 -5 260 -5 q 80 27 145 -5 q 15 111 15 59 q 172 241 15 214 q 167 190 166 212 q 182 147 168 168 q 221 109 196 125 q 332 54 266 79 q 320 23 332 43 q 294 -3 307 3 m 167 -151 q 222 -74 167 -105 q 345 -43 277 -43 q 450 -69 413 -43 q 487 -132 487 -94 q 472 -203 487 -170 q 435 -259 456 -236 q 376 -313 391 -307 q 320 -319 361 -319 q 252 -317 279 -319 q 271 -251 271 -271 q 255 -221 271 -232 q 219 -204 239 -211 q 183 -184 199 -198 q 167 -151 167 -170 z "},"ȷ":{"ha":578,"x_min":18,"x_max":499,"o":"m 215 673 l 499 673 q 439 343 475 567 q 389 1 403 119 q 285 -219 372 -153 q 18 -286 198 -286 q 97 137 54 -163 q 156 629 140 437 q 178 655 156 637 q 215 673 199 673 z "},"ˆ":{"ha":761,"x_min":145,"x_max":656,"o":"m 145 848 q 395 1088 266 986 l 465 1088 q 559 984 527 1025 q 656 848 591 944 q 602 777 640 811 q 412 870 483 832 q 184 777 313 827 q 145 848 156 807 z "},"ˇ":{"ha":761,"x_min":145,"x_max":656,"o":"m 656 1017 q 406 777 536 879 l 337 777 q 242 881 275 840 q 145 1017 210 921 q 199 1088 161 1054 q 389 995 307 1038 q 617 1088 490 1039 q 656 1017 646 1058 z "},"˘":{"ha":761,"x_min":184,"x_max":706,"o":"m 679 1072 q 706 1015 699 1044 q 422 762 650 762 q 250 834 316 762 q 184 1031 184 906 q 227 1088 197 1055 q 429 943 290 943 q 679 1072 568 943 z "},"˙":{"ha":761,"x_min":273,"x_max":576,"o":"m 300 947 q 439 1007 353 1007 q 539 977 503 1007 q 576 896 576 946 q 527 808 576 846 q 412 770 477 770 q 310 800 347 770 q 273 873 273 830 q 300 947 273 916 z "},"˚":{"ha":761,"x_min":218,"x_max":576,"o":"m 404 960 q 357 944 379 960 q 336 903 336 927 q 351 864 336 878 q 392 850 366 850 q 439 868 418 850 q 459 909 459 886 q 444 946 459 932 q 404 960 429 960 m 286 1020 q 418 1065 347 1065 q 533 1024 490 1065 q 576 916 576 983 q 518 798 576 849 q 383 746 460 746 q 262 786 306 746 q 218 878 218 827 q 237 964 218 930 q 286 1020 256 999 z "},"˛":{"ha":761,"x_min":238,"x_max":650,"o":"m 633 -308 q 428 -370 556 -370 q 238 -240 238 -370 q 285 -85 238 -160 q 385 45 324 -23 l 460 60 q 407 -111 407 -32 q 434 -189 407 -159 q 518 -218 461 -218 q 650 -190 575 -218 q 633 -308 645 -254 z "},"˜":{"ha":761,"x_min":159,"x_max":669,"o":"m 489 783 q 367 824 435 783 q 253 865 298 865 q 163 861 209 865 q 159 897 159 879 q 162 931 159 916 q 340 1056 241 1056 q 407 1042 378 1056 q 460 1014 435 1028 q 576 974 532 974 q 665 978 620 974 q 669 941 669 958 q 667 907 669 924 q 489 783 588 783 z "},"˝":{"ha":761,"x_min":71,"x_max":779,"o":"m 134 776 q 71 832 95 800 q 135 997 106 937 q 210 1118 163 1058 q 410 930 308 1046 q 134 776 295 850 m 503 776 q 439 832 464 800 q 504 997 475 937 q 578 1118 532 1058 q 779 930 677 1046 q 503 776 664 850 z "},"Δ":{"ha":926,"x_min":23,"x_max":808,"o":"m 586 951 q 808 94 720 404 l 808 61 q 792 23 808 44 q 768 1 777 1 q 23 -9 340 1 l 23 24 q 35 58 23 39 q 463 911 260 486 q 488 937 469 924 q 523 951 507 951 l 586 951 m 147 84 q 715 91 471 84 q 518 844 626 459 q 147 84 295 402 z "},"Ω":{"ha":926,"x_min":52,"x_max":832,"o":"m 260 -1 l 52 -9 l 52 31 q 67 69 52 47 q 92 91 83 91 l 222 91 q 110 433 110 270 q 144 646 110 547 q 235 812 178 745 q 370 919 293 880 q 532 957 447 957 q 752 853 671 957 q 832 573 832 749 q 779 329 832 441 q 618 94 726 217 q 738 101 684 96 l 738 61 q 723 23 738 44 q 699 1 707 1 q 507 -1 570 1 l 507 33 q 523 71 507 49 q 684 313 627 189 q 741 582 741 436 q 691 772 741 693 q 523 859 637 859 q 353 797 429 859 q 236 635 277 736 q 195 417 195 535 q 300 92 195 252 l 300 52 q 285 17 300 35 q 260 -1 270 -1 z "},"π":{"ha":926,"x_min":106,"x_max":846,"o":"m 806 604 l 712 608 q 680 375 694 511 q 667 178 667 239 q 697 74 667 74 q 781 92 732 74 l 770 26 q 748 1 768 16 q 711 -14 727 -14 l 648 -14 q 575 131 575 -14 q 623 610 575 275 q 483 610 563 610 q 336 608 402 610 q 294 327 305 411 q 260 26 283 243 q 238 2 260 17 q 200 -14 217 -14 l 151 -14 q 202 322 191 235 q 235 603 214 409 q 106 593 182 600 l 106 642 q 122 680 106 659 q 146 702 137 701 q 488 696 313 696 q 846 712 663 696 l 846 663 q 830 625 846 646 q 806 604 815 604 z "},"Ḃ":{"ha":1041,"x_min":70,"x_max":985,"o":"m 70 3 q 202 871 159 363 q 224 897 202 880 q 261 915 245 914 q 571 932 465 932 q 437 40 474 514 q 416 13 437 31 q 378 -5 394 -5 q 70 3 260 -5 m 475 -1 q 606 110 550 25 q 663 281 663 195 q 555 442 663 398 q 545 465 545 449 q 566 507 545 501 q 648 593 614 520 q 682 755 682 666 q 625 886 682 844 q 648 915 625 897 q 688 933 671 933 q 966 798 903 919 q 985 714 985 761 q 961 627 985 667 q 902 561 938 587 q 817 513 865 534 q 629 467 728 477 q 696 469 670 469 q 898 415 825 469 q 971 262 971 361 q 946 157 971 204 q 882 78 922 109 q 789 26 842 47 q 574 -14 692 -14 q 475 -1 523 -14 m 476 1181 q 616 1240 529 1240 q 715 1210 679 1240 q 752 1129 752 1179 q 703 1041 752 1080 q 588 1003 654 1003 q 486 1033 523 1003 q 449 1106 449 1063 q 476 1181 449 1149 z "},"ḃ":{"ha":1041,"x_min":85,"x_max":959,"o":"m 424 46 q 402 18 424 37 q 364 0 380 0 l 85 0 q 154 426 115 127 q 208 894 193 724 q 229 921 208 903 q 267 939 251 939 l 552 939 q 477 508 516 789 q 424 46 439 227 m 488 5 q 605 165 564 54 q 646 407 646 276 q 572 646 646 538 q 593 673 572 656 q 630 691 614 691 q 794 654 720 691 q 913 547 868 618 q 958 383 958 476 q 836 109 958 212 q 488 5 713 5 m 683 947 q 823 1007 736 1007 q 922 977 886 1007 q 959 896 959 946 q 910 808 959 846 q 795 770 861 770 q 693 800 730 770 q 656 873 656 830 q 683 947 656 916 z "},"Ḋ":{"ha":1156,"x_min":97,"x_max":1073,"o":"m 506 -14 q 616 126 566 29 q 697 347 667 223 q 726 589 726 470 q 653 886 726 777 q 675 915 653 897 q 712 933 696 933 q 851 903 785 933 q 966 819 918 873 q 1044 687 1015 766 q 1073 521 1073 608 q 1052 358 1073 434 q 984 214 1030 282 q 873 96 939 146 q 713 16 808 45 q 506 -14 618 -14 m 405 -5 q 97 3 288 -5 q 229 871 189 371 q 251 897 229 880 q 289 915 273 913 q 598 932 491 932 q 465 40 503 519 q 443 13 465 31 q 405 -5 421 -5 m 502 1181 q 641 1240 554 1240 q 741 1210 704 1240 q 777 1129 777 1179 q 728 1041 777 1080 q 613 1003 679 1003 q 511 1033 548 1003 q 474 1106 474 1063 q 502 1181 474 1149 z "},"ḋ":{"ha":1042,"x_min":83,"x_max":1005,"o":"m 566 691 q 445 529 485 631 q 404 328 404 427 q 426 151 404 229 q 486 46 448 73 q 464 18 486 36 q 427 0 442 0 q 178 81 273 0 q 83 298 83 161 q 210 575 83 463 q 362 660 271 629 q 566 691 454 691 m 877 46 q 855 18 877 37 q 817 0 833 0 l 545 0 q 609 413 574 125 q 661 894 644 701 q 682 921 661 903 q 720 939 704 939 l 1005 939 q 930 508 969 789 q 877 46 892 227 m 285 947 q 425 1007 338 1007 q 524 977 488 1007 q 561 896 561 946 q 512 808 561 846 q 397 770 463 770 q 295 800 332 770 q 258 873 258 830 q 285 947 258 916 z "},"Ḟ":{"ha":926,"x_min":63,"x_max":891,"o":"m 379 0 l 63 0 q 197 879 154 329 q 220 905 197 888 q 258 923 242 923 l 572 923 q 485 453 520 703 q 619 435 538 448 q 730 413 700 422 q 715 357 730 374 q 466 319 585 349 q 438 45 452 203 q 416 18 438 36 q 379 0 395 0 m 779 512 q 717 716 762 614 q 625 869 671 818 q 645 923 629 901 l 891 923 q 871 746 886 857 q 838 557 855 635 q 814 529 835 546 q 779 512 794 512 m 469 1181 q 609 1240 522 1240 q 709 1210 672 1240 q 745 1129 745 1179 q 696 1041 745 1080 q 582 1003 647 1003 q 479 1033 516 1003 q 442 1106 442 1063 q 469 1181 442 1149 z "},"ḟ":{"ha":695,"x_min":64,"x_max":768,"o":"m 532 448 q 563 623 538 547 q 697 583 621 597 q 708 550 703 574 q 712 513 712 527 q 532 448 604 481 m 459 505 q 408 45 433 334 q 387 18 408 36 q 349 0 365 0 l 64 0 q 123 358 93 117 q 157 628 153 600 q 268 866 180 786 q 528 945 355 945 q 758 901 665 945 q 768 832 766 872 q 709 834 737 834 q 581 806 631 834 q 505 707 531 778 q 459 505 479 637 m 281 1211 q 420 1270 334 1270 q 520 1240 484 1270 q 557 1159 557 1209 q 508 1071 557 1109 q 393 1033 458 1033 q 291 1063 328 1033 q 254 1136 254 1093 q 281 1211 254 1179 z "},"Ṁ":{"ha":1156,"x_min":-10,"x_max":1073,"o":"m 1013 0 l 714 0 q 718 340 718 167 q 701 732 718 513 q 766 879 724 781 q 790 906 770 890 q 825 923 810 923 l 1032 923 q 1027 724 1027 833 q 1073 45 1027 382 q 1051 18 1073 36 q 1013 0 1029 0 m 548 35 q 527 13 543 25 q 501 0 511 0 l 393 0 q 319 355 365 169 q 229 663 274 542 q 247 758 232 678 q 269 879 262 838 q 292 906 271 888 q 328 923 313 923 l 525 923 q 603 556 572 652 q 659 404 633 461 q 548 35 594 210 m 214 490 q 227 231 218 321 q 267 45 236 142 q 244 18 267 36 q 206 0 222 0 l -10 0 q 95 259 57 160 q 155 446 133 359 q 177 473 155 455 q 214 490 199 490 m 532 1181 q 671 1240 584 1240 q 770 1210 734 1240 q 807 1129 807 1179 q 758 1041 807 1080 q 643 1003 709 1003 q 541 1033 578 1003 q 504 1106 504 1063 q 532 1181 504 1149 z "},"ṁ":{"ha":1502,"x_min":78,"x_max":1381,"o":"m 363 0 l 78 0 q 178 627 151 310 q 199 652 178 635 q 245 673 221 669 q 363 684 269 677 q 509 691 457 691 q 422 45 450 391 q 400 18 422 36 q 363 0 378 0 m 545 0 q 616 502 616 408 q 572 597 616 597 q 602 659 581 633 q 759 691 671 691 q 888 648 846 691 q 930 519 930 606 q 905 304 930 473 q 873 45 880 135 q 852 18 873 36 q 814 0 830 0 l 545 0 m 1055 -1 q 1015 87 1015 39 q 1040 308 1015 135 q 1066 521 1066 480 q 1042 579 1066 562 q 987 597 1019 597 q 1010 659 994 636 q 1092 681 1035 671 q 1196 691 1149 691 q 1332 650 1286 691 q 1377 519 1377 608 q 1353 346 1377 468 q 1329 195 1329 224 q 1331 153 1329 167 q 1335 131 1333 138 q 1344 112 1337 123 q 1354 99 1352 101 q 1368 85 1356 96 q 1381 72 1380 73 q 1361 41 1381 63 q 1325 12 1341 19 q 1055 -1 1238 -1 m 674 947 q 813 1007 726 1007 q 913 977 876 1007 q 949 896 949 946 q 900 808 949 846 q 786 770 851 770 q 683 800 720 770 q 646 873 646 830 q 674 947 646 916 z "},"Ṗ":{"ha":1041,"x_min":90,"x_max":1017,"o":"m 546 311 q 654 479 615 386 q 693 679 693 573 q 637 887 693 785 q 660 915 637 897 q 697 933 682 933 q 932 845 847 923 q 1017 647 1017 768 q 982 507 1017 572 q 890 399 947 442 q 608 307 766 307 q 546 311 570 307 m 458 45 q 436 18 458 36 q 398 0 414 0 l 90 0 q 222 871 183 374 q 244 898 222 880 q 281 916 266 915 q 592 932 498 932 q 458 45 495 516 m 509 1181 q 648 1240 561 1240 q 747 1210 711 1240 q 784 1129 784 1179 q 735 1041 784 1080 q 620 1003 686 1003 q 518 1033 555 1003 q 481 1106 481 1063 q 509 1181 481 1149 z "},"ṗ":{"ha":1041,"x_min":35,"x_max":958,"o":"m 35 -284 q 173 629 140 204 q 195 654 173 637 q 244 674 216 671 q 370 683 272 677 q 511 688 468 688 q 380 -240 437 368 q 358 -267 380 -249 q 321 -284 336 -284 l 35 -284 m 488 0 q 576 100 539 33 q 646 382 646 227 q 572 646 646 538 q 593 673 572 656 q 630 691 614 691 q 794 654 720 691 q 913 547 868 618 q 958 383 958 476 q 831 106 958 213 q 488 0 705 0 m 433 947 q 572 1007 486 1007 q 672 977 635 1007 q 709 896 709 946 q 660 808 709 846 q 545 770 610 770 q 443 800 479 770 q 406 873 406 830 q 433 947 406 916 z "},"Ṡ":{"ha":926,"x_min":95,"x_max":858,"o":"m 529 949 q 475 839 475 903 q 511 709 475 774 q 594 599 547 644 q 668 527 642 553 q 727 462 694 500 q 779 395 760 425 q 825 268 825 322 q 803 166 825 213 q 738 81 780 119 q 632 18 696 43 q 489 -11 567 -7 q 511 55 511 20 q 496 124 511 89 q 453 201 482 160 q 348 330 406 267 q 268 420 290 393 q 216 488 245 447 q 161 649 161 568 q 210 799 161 730 q 344 908 260 868 q 529 949 429 948 m 755 539 q 731 675 755 605 q 575 895 684 811 q 598 924 576 907 q 634 941 620 941 q 750 921 684 941 q 854 883 816 901 q 858 812 858 863 q 848 686 858 762 q 825 566 839 610 q 797 548 821 556 q 755 539 772 539 m 430 48 q 405 -14 422 2 q 237 5 334 -14 q 96 52 140 23 q 95 94 95 66 q 126 345 95 227 q 149 373 129 356 q 186 389 170 389 q 242 239 201 315 q 333 112 282 164 q 430 48 385 60 m 448 1181 q 587 1240 500 1240 q 686 1210 650 1240 q 723 1129 723 1179 q 674 1041 723 1080 q 559 1003 625 1003 q 457 1033 494 1003 q 420 1106 420 1063 q 448 1181 420 1149 z "},"ṡ":{"ha":810,"x_min":15,"x_max":787,"o":"m 449 697 q 410 620 410 661 q 555 423 410 525 q 656 345 620 377 q 739 185 739 271 q 653 47 739 100 q 412 -5 567 -5 q 430 66 430 34 q 412 128 430 98 q 366 183 394 158 q 302 234 337 208 q 233 286 268 259 q 170 340 199 312 q 106 476 106 403 q 165 608 106 557 q 449 697 268 694 m 554 695 q 718 657 650 695 q 787 566 787 620 q 629 463 787 481 q 631 477 631 467 q 598 573 631 529 q 507 643 566 616 q 522 673 507 654 q 554 695 537 692 m 294 -3 q 243 -5 260 -5 q 80 27 145 -5 q 15 111 15 59 q 172 241 15 214 q 167 190 166 212 q 182 147 168 168 q 221 109 196 125 q 332 54 266 79 q 320 23 332 43 q 294 -3 307 3 m 376 947 q 515 1007 429 1007 q 615 977 578 1007 q 652 896 652 946 q 603 808 652 846 q 488 770 553 770 q 386 800 422 770 q 349 873 349 830 q 376 947 349 916 z "},"Ṫ":{"ha":1041,"x_min":79,"x_max":1043,"o":"m 587 0 l 271 0 q 413 879 371 360 q 435 905 413 888 q 472 923 457 923 l 774 923 q 647 45 687 555 q 625 18 647 36 q 587 0 604 0 m 905 498 q 875 705 905 591 q 812 869 846 818 q 832 923 816 900 l 1043 923 q 985 543 1021 719 q 952 516 983 533 q 905 498 922 498 m 79 499 q 104 708 84 578 q 135 875 125 837 q 158 906 140 888 q 189 923 177 923 l 395 923 q 289 770 326 840 q 218 635 252 701 q 165 536 184 570 q 128 514 161 528 q 79 499 94 499 m 496 1181 q 636 1240 549 1240 q 736 1210 699 1240 q 772 1129 772 1179 q 723 1041 772 1080 q 609 1003 674 1003 q 506 1033 543 1003 q 469 1106 469 1063 q 496 1181 469 1149 z "},"ṫ":{"ha":695,"x_min":69,"x_max":688,"o":"m 613 41 q 336 -3 474 -3 q 69 209 69 -3 q 89 393 69 255 q 109 584 109 531 q 104 664 109 636 q 267 758 197 705 q 404 886 338 810 q 492 896 438 896 q 420 567 447 736 q 393 318 393 398 q 405 202 393 237 q 442 146 416 166 q 586 112 488 112 q 636 114 610 112 q 613 41 630 69 m 494 513 q 525 688 500 607 q 673 648 591 660 q 684 615 679 638 q 688 578 688 591 q 494 513 594 552 m 313 1174 q 453 1234 366 1234 q 553 1203 516 1234 q 589 1123 589 1173 q 540 1035 589 1073 q 426 996 491 996 q 323 1026 360 996 q 286 1100 286 1057 q 313 1174 286 1143 z "}}}
